<svg xmlns="http://www.w3.org/2000/svg" viewBox="0 0 500 350" preserveAspectRatio="xMidYMid" width="500" height="350" style="shape-rendering: auto; display: block; " xmlns:xlink="http://www.w3.org/1999/xlink"><g><defs>
  <linearGradient gradientUnits="userSpaceOnUse" y2="371.00" y1="0" x2="0" x1="0" id="s"><stop stop-opacity="0.4" stop-color="#000" offset="-0.01"></stop>
<stop stop-opacity="0" stop-color="#000" offset="0.03571428571428571"></stop>
<stop stop-opacity="0" stop-color="#000" offset="0.06042857142857143"></stop><stop stop-opacity="0.4" stop-color="#000" offset="0.06142857142857142"></stop>
<stop stop-opacity="0" stop-color="#000" offset="0.10714285714285714"></stop>
<stop stop-opacity="0" stop-color="#000" offset="0.13185714285714284"></stop><stop stop-opacity="0.4" stop-color="#000" offset="0.13285714285714284"></stop>
<stop stop-opacity="0" stop-color="#000" offset="0.17857142857142858"></stop>
<stop stop-opacity="0" stop-color="#000" offset="0.20328571428571426"></stop><stop stop-opacity="0.4" stop-color="#000" offset="0.20428571428571426"></stop>
<stop stop-opacity="0" stop-color="#000" offset="0.25"></stop>
<stop stop-opacity="0" stop-color="#000" offset="0.2747142857142857"></stop><stop stop-opacity="0.4" stop-color="#000" offset="0.2757142857142857"></stop>
<stop stop-opacity="0" stop-color="#000" offset="0.32142857142857145"></stop>
<stop stop-opacity="0" stop-color="#000" offset="0.34614285714285714"></stop><stop stop-opacity="0.4" stop-color="#000" offset="0.34714285714285714"></stop>
<stop stop-opacity="0" stop-color="#000" offset="0.39285714285714285"></stop>
<stop stop-opacity="0" stop-color="#000" offset="0.41757142857142854"></stop><stop stop-opacity="0.4" stop-color="#000" offset="0.41857142857142854"></stop>
<stop stop-opacity="0" stop-color="#000" offset="0.4642857142857143"></stop>
<stop stop-opacity="0" stop-color="#000" offset="0.489"></stop><stop stop-opacity="0.4" stop-color="#000" offset="0.49"></stop>
<stop stop-opacity="0" stop-color="#000" offset="0.5357142857142857"></stop>
<stop stop-opacity="0" stop-color="#000" offset="0.5604285714285714"></stop><stop stop-opacity="0.4" stop-color="#000" offset="0.5614285714285714"></stop>
<stop stop-opacity="0" stop-color="#000" offset="0.6071428571428571"></stop>
<stop stop-opacity="0" stop-color="#000" offset="0.6318571428571429"></stop><stop stop-opacity="0.4" stop-color="#000" offset="0.6328571428571429"></stop>
<stop stop-opacity="0" stop-color="#000" offset="0.6785714285714286"></stop>
<stop stop-opacity="0" stop-color="#000" offset="0.7032857142857143"></stop><stop stop-opacity="0.4" stop-color="#000" offset="0.7042857142857143"></stop>
<stop stop-opacity="0" stop-color="#000" offset="0.75"></stop>
<stop stop-opacity="0" stop-color="#000" offset="0.7747142857142857"></stop><stop stop-opacity="0.4" stop-color="#000" offset="0.7757142857142857"></stop>
<stop stop-opacity="0" stop-color="#000" offset="0.8214285714285714"></stop>
<stop stop-opacity="0" stop-color="#000" offset="0.8461428571428571"></stop><stop stop-opacity="0.4" stop-color="#000" offset="0.8471428571428571"></stop>
<stop stop-opacity="0" stop-color="#000" offset="0.8928571428571429"></stop>
<stop stop-opacity="0" stop-color="#000" offset="0.9175714285714286"></stop><stop stop-opacity="0.4" stop-color="#000" offset="0.9185714285714286"></stop>
<stop stop-opacity="0" stop-color="#000" offset="0.9642857142857143"></stop>
<stop stop-opacity="0" stop-color="#000" offset="0.989"></stop>  </linearGradient>
</defs>
<path fill="#ef7b1d" d="M0.00 0.00l26.50 0l0 26.50l-26.50 0l0 -26.50zM53.00 0.00l26.50 0l0 26.50l-26.50 0l0 -26.50zM106.00 0.00l26.50 0l0 26.50l-26.50 0l0 -26.50zM159.00 0.00l26.50 0l0 26.50l-26.50 0l0 -26.50zM212.00 0.00l26.50 0l0 26.50l-26.50 0l0 -26.50zM265.00 0.00l26.50 0l0 26.50l-26.50 0l0 -26.50zM318.00 0.00l26.50 0l0 26.50l-26.50 0l0 -26.50zM371.00 0.00l26.50 0l0 26.50l-26.50 0l0 -26.50zM424.00 0.00l26.50 0l0 26.50l-26.50 0l0 -26.50zM477.00 0.00l26.50 0l0 26.50l-26.50 0l0 -26.50zM26.50 26.50l26.50 0l0 26.50l-26.50 0l0 -26.50zM79.50 26.50l26.50 0l0 26.50l-26.50 0l0 -26.50zM132.50 26.50l26.50 0l0 26.50l-26.50 0l0 -26.50zM185.50 26.50l26.50 0l0 26.50l-26.50 0l0 -26.50zM238.50 26.50l26.50 0l0 26.50l-26.50 0l0 -26.50zM291.50 26.50l26.50 0l0 26.50l-26.50 0l0 -26.50zM344.50 26.50l26.50 0l0 26.50l-26.50 0l0 -26.50zM397.50 26.50l26.50 0l0 26.50l-26.50 0l0 -26.50zM450.50 26.50l26.50 0l0 26.50l-26.50 0l0 -26.50zM503.50 26.50l26.50 0l0 26.50l-26.50 0l0 -26.50zM0.00 53.00l26.50 0l0 26.50l-26.50 0l0 -26.50zM53.00 53.00l26.50 0l0 26.50l-26.50 0l0 -26.50zM106.00 53.00l26.50 0l0 26.50l-26.50 0l0 -26.50zM159.00 53.00l26.50 0l0 26.50l-26.50 0l0 -26.50zM212.00 53.00l26.50 0l0 26.50l-26.50 0l0 -26.50zM265.00 53.00l26.50 0l0 26.50l-26.50 0l0 -26.50zM318.00 53.00l26.50 0l0 26.50l-26.50 0l0 -26.50zM371.00 53.00l26.50 0l0 26.50l-26.50 0l0 -26.50zM424.00 53.00l26.50 0l0 26.50l-26.50 0l0 -26.50zM477.00 53.00l26.50 0l0 26.50l-26.50 0l0 -26.50zM26.50 79.50l26.50 0l0 26.50l-26.50 0l0 -26.50zM79.50 79.50l26.50 0l0 26.50l-26.50 0l0 -26.50zM132.50 79.50l26.50 0l0 26.50l-26.50 0l0 -26.50zM185.50 79.50l26.50 0l0 26.50l-26.50 0l0 -26.50zM238.50 79.50l26.50 0l0 26.50l-26.50 0l0 -26.50zM291.50 79.50l26.50 0l0 26.50l-26.50 0l0 -26.50zM344.50 79.50l26.50 0l0 26.50l-26.50 0l0 -26.50zM397.50 79.50l26.50 0l0 26.50l-26.50 0l0 -26.50zM450.50 79.50l26.50 0l0 26.50l-26.50 0l0 -26.50zM503.50 79.50l26.50 0l0 26.50l-26.50 0l0 -26.50zM0.00 106.00l26.50 0l0 26.50l-26.50 0l0 -26.50zM53.00 106.00l26.50 0l0 26.50l-26.50 0l0 -26.50zM106.00 106.00l26.50 0l0 26.50l-26.50 0l0 -26.50zM159.00 106.00l26.50 0l0 26.50l-26.50 0l0 -26.50zM212.00 106.00l26.50 0l0 26.50l-26.50 0l0 -26.50zM265.00 106.00l26.50 0l0 26.50l-26.50 0l0 -26.50zM318.00 106.00l26.50 0l0 26.50l-26.50 0l0 -26.50zM371.00 106.00l26.50 0l0 26.50l-26.50 0l0 -26.50zM424.00 106.00l26.50 0l0 26.50l-26.50 0l0 -26.50zM477.00 106.00l26.50 0l0 26.50l-26.50 0l0 -26.50zM26.50 132.50l26.50 0l0 26.50l-26.50 0l0 -26.50zM79.50 132.50l26.50 0l0 26.50l-26.50 0l0 -26.50zM132.50 132.50l26.50 0l0 26.50l-26.50 0l0 -26.50zM185.50 132.50l26.50 0l0 26.50l-26.50 0l0 -26.50zM238.50 132.50l26.50 0l0 26.50l-26.50 0l0 -26.50zM291.50 132.50l26.50 0l0 26.50l-26.50 0l0 -26.50zM344.50 132.50l26.50 0l0 26.50l-26.50 0l0 -26.50zM397.50 132.50l26.50 0l0 26.50l-26.50 0l0 -26.50zM450.50 132.50l26.50 0l0 26.50l-26.50 0l0 -26.50zM503.50 132.50l26.50 0l0 26.50l-26.50 0l0 -26.50zM0.00 159.00l26.50 0l0 26.50l-26.50 0l0 -26.50zM53.00 159.00l26.50 0l0 26.50l-26.50 0l0 -26.50zM106.00 159.00l26.50 0l0 26.50l-26.50 0l0 -26.50zM159.00 159.00l26.50 0l0 26.50l-26.50 0l0 -26.50zM212.00 159.00l26.50 0l0 26.50l-26.50 0l0 -26.50zM265.00 159.00l26.50 0l0 26.50l-26.50 0l0 -26.50zM318.00 159.00l26.50 0l0 26.50l-26.50 0l0 -26.50zM371.00 159.00l26.50 0l0 26.50l-26.50 0l0 -26.50zM424.00 159.00l26.50 0l0 26.50l-26.50 0l0 -26.50zM477.00 159.00l26.50 0l0 26.50l-26.50 0l0 -26.50zM26.50 185.50l26.50 0l0 26.50l-26.50 0l0 -26.50zM79.50 185.50l26.50 0l0 26.50l-26.50 0l0 -26.50zM132.50 185.50l26.50 0l0 26.50l-26.50 0l0 -26.50zM185.50 185.50l26.50 0l0 26.50l-26.50 0l0 -26.50zM238.50 185.50l26.50 0l0 26.50l-26.50 0l0 -26.50zM291.50 185.50l26.50 0l0 26.50l-26.50 0l0 -26.50zM344.50 185.50l26.50 0l0 26.50l-26.50 0l0 -26.50zM397.50 185.50l26.50 0l0 26.50l-26.50 0l0 -26.50zM450.50 185.50l26.50 0l0 26.50l-26.50 0l0 -26.50zM503.50 185.50l26.50 0l0 26.50l-26.50 0l0 -26.50zM0.00 212.00l26.50 0l0 26.50l-26.50 0l0 -26.50zM53.00 212.00l26.50 0l0 26.50l-26.50 0l0 -26.50zM106.00 212.00l26.50 0l0 26.50l-26.50 0l0 -26.50zM159.00 212.00l26.50 0l0 26.50l-26.50 0l0 -26.50zM212.00 212.00l26.50 0l0 26.50l-26.50 0l0 -26.50zM265.00 212.00l26.50 0l0 26.50l-26.50 0l0 -26.50zM318.00 212.00l26.50 0l0 26.50l-26.50 0l0 -26.50zM371.00 212.00l26.50 0l0 26.50l-26.50 0l0 -26.50zM424.00 212.00l26.50 0l0 26.50l-26.50 0l0 -26.50zM477.00 212.00l26.50 0l0 26.50l-26.50 0l0 -26.50zM26.50 238.50l26.50 0l0 26.50l-26.50 0l0 -26.50zM79.50 238.50l26.50 0l0 26.50l-26.50 0l0 -26.50zM132.50 238.50l26.50 0l0 26.50l-26.50 0l0 -26.50zM185.50 238.50l26.50 0l0 26.50l-26.50 0l0 -26.50zM238.50 238.50l26.50 0l0 26.50l-26.50 0l0 -26.50zM291.50 238.50l26.50 0l0 26.50l-26.50 0l0 -26.50zM344.50 238.50l26.50 0l0 26.50l-26.50 0l0 -26.50zM397.50 238.50l26.50 0l0 26.50l-26.50 0l0 -26.50zM450.50 238.50l26.50 0l0 26.50l-26.50 0l0 -26.50zM503.50 238.50l26.50 0l0 26.50l-26.50 0l0 -26.50zM0.00 265.00l26.50 0l0 26.50l-26.50 0l0 -26.50zM53.00 265.00l26.50 0l0 26.50l-26.50 0l0 -26.50zM106.00 265.00l26.50 0l0 26.50l-26.50 0l0 -26.50zM159.00 265.00l26.50 0l0 26.50l-26.50 0l0 -26.50zM212.00 265.00l26.50 0l0 26.50l-26.50 0l0 -26.50zM265.00 265.00l26.50 0l0 26.50l-26.50 0l0 -26.50zM318.00 265.00l26.50 0l0 26.50l-26.50 0l0 -26.50zM371.00 265.00l26.50 0l0 26.50l-26.50 0l0 -26.50zM424.00 265.00l26.50 0l0 26.50l-26.50 0l0 -26.50zM477.00 265.00l26.50 0l0 26.50l-26.50 0l0 -26.50zM26.50 291.50l26.50 0l0 26.50l-26.50 0l0 -26.50zM79.50 291.50l26.50 0l0 26.50l-26.50 0l0 -26.50zM132.50 291.50l26.50 0l0 26.50l-26.50 0l0 -26.50zM185.50 291.50l26.50 0l0 26.50l-26.50 0l0 -26.50zM238.50 291.50l26.50 0l0 26.50l-26.50 0l0 -26.50zM291.50 291.50l26.50 0l0 26.50l-26.50 0l0 -26.50zM344.50 291.50l26.50 0l0 26.50l-26.50 0l0 -26.50zM397.50 291.50l26.50 0l0 26.50l-26.50 0l0 -26.50zM450.50 291.50l26.50 0l0 26.50l-26.50 0l0 -26.50zM503.50 291.50l26.50 0l0 26.50l-26.50 0l0 -26.50zM0.00 318.00l26.50 0l0 26.50l-26.50 0l0 -26.50zM53.00 318.00l26.50 0l0 26.50l-26.50 0l0 -26.50zM106.00 318.00l26.50 0l0 26.50l-26.50 0l0 -26.50zM159.00 318.00l26.50 0l0 26.50l-26.50 0l0 -26.50zM212.00 318.00l26.50 0l0 26.50l-26.50 0l0 -26.50zM265.00 318.00l26.50 0l0 26.50l-26.50 0l0 -26.50zM318.00 318.00l26.50 0l0 26.50l-26.50 0l0 -26.50zM371.00 318.00l26.50 0l0 26.50l-26.50 0l0 -26.50zM424.00 318.00l26.50 0l0 26.50l-26.50 0l0 -26.50zM477.00 318.00l26.50 0l0 26.50l-26.50 0l0 -26.50zM26.50 344.50l26.50 0l0 26.50l-26.50 0l0 -26.50zM79.50 344.50l26.50 0l0 26.50l-26.50 0l0 -26.50zM132.50 344.50l26.50 0l0 26.50l-26.50 0l0 -26.50zM185.50 344.50l26.50 0l0 26.50l-26.50 0l0 -26.50zM238.50 344.50l26.50 0l0 26.50l-26.50 0l0 -26.50zM291.50 344.50l26.50 0l0 26.50l-26.50 0l0 -26.50zM344.50 344.50l26.50 0l0 26.50l-26.50 0l0 -26.50zM397.50 344.50l26.50 0l0 26.50l-26.50 0l0 -26.50zM450.50 344.50l26.50 0l0 26.50l-26.50 0l0 -26.50zM503.50 344.50l26.50 0l0 26.50l-26.50 0l0 -26.50z"></path>
<path fill="url(#s)" d="M0.00 0.00l53.00 0l-26.50 9.28l-26.50 -9.28zM53.00 0.00l53.00 0l-26.50 9.28l-26.50 -9.28zM106.00 0.00l53.00 0l-26.50 9.28l-26.50 -9.28zM159.00 0.00l53.00 0l-26.50 9.28l-26.50 -9.28zM212.00 0.00l53.00 0l-26.50 9.28l-26.50 -9.28zM265.00 0.00l53.00 0l-26.50 9.28l-26.50 -9.28zM318.00 0.00l53.00 0l-26.50 9.28l-26.50 -9.28zM371.00 0.00l53.00 0l-26.50 9.28l-26.50 -9.28zM424.00 0.00l53.00 0l-26.50 9.28l-26.50 -9.28zM477.00 0.00l53.00 0l-26.50 9.28l-26.50 -9.28zM530.00 0.00l53.00 0l-26.50 9.28l-26.50 -9.28zM-26.50 26.50l53.00 0l-26.50 9.28l-26.50 -9.28zM26.50 26.50l53.00 0l-26.50 9.28l-26.50 -9.28zM79.50 26.50l53.00 0l-26.50 9.28l-26.50 -9.28zM132.50 26.50l53.00 0l-26.50 9.28l-26.50 -9.28zM185.50 26.50l53.00 0l-26.50 9.28l-26.50 -9.28zM238.50 26.50l53.00 0l-26.50 9.28l-26.50 -9.28zM291.50 26.50l53.00 0l-26.50 9.28l-26.50 -9.28zM344.50 26.50l53.00 0l-26.50 9.28l-26.50 -9.28zM397.50 26.50l53.00 0l-26.50 9.28l-26.50 -9.28zM450.50 26.50l53.00 0l-26.50 9.28l-26.50 -9.28zM503.50 26.50l53.00 0l-26.50 9.28l-26.50 -9.28zM0.00 53.00l53.00 0l-26.50 9.28l-26.50 -9.28zM53.00 53.00l53.00 0l-26.50 9.28l-26.50 -9.28zM106.00 53.00l53.00 0l-26.50 9.28l-26.50 -9.28zM159.00 53.00l53.00 0l-26.50 9.28l-26.50 -9.28zM212.00 53.00l53.00 0l-26.50 9.28l-26.50 -9.28zM265.00 53.00l53.00 0l-26.50 9.28l-26.50 -9.28zM318.00 53.00l53.00 0l-26.50 9.28l-26.50 -9.28zM371.00 53.00l53.00 0l-26.50 9.28l-26.50 -9.28zM424.00 53.00l53.00 0l-26.50 9.28l-26.50 -9.28zM477.00 53.00l53.00 0l-26.50 9.28l-26.50 -9.28zM530.00 53.00l53.00 0l-26.50 9.28l-26.50 -9.28zM-26.50 79.50l53.00 0l-26.50 9.28l-26.50 -9.28zM26.50 79.50l53.00 0l-26.50 9.28l-26.50 -9.28zM79.50 79.50l53.00 0l-26.50 9.28l-26.50 -9.28zM132.50 79.50l53.00 0l-26.50 9.28l-26.50 -9.28zM185.50 79.50l53.00 0l-26.50 9.28l-26.50 -9.28zM238.50 79.50l53.00 0l-26.50 9.28l-26.50 -9.28zM291.50 79.50l53.00 0l-26.50 9.28l-26.50 -9.28zM344.50 79.50l53.00 0l-26.50 9.28l-26.50 -9.28zM397.50 79.50l53.00 0l-26.50 9.28l-26.50 -9.28zM450.50 79.50l53.00 0l-26.50 9.28l-26.50 -9.28zM503.50 79.50l53.00 0l-26.50 9.28l-26.50 -9.28zM0.00 106.00l53.00 0l-26.50 9.28l-26.50 -9.28zM53.00 106.00l53.00 0l-26.50 9.28l-26.50 -9.28zM106.00 106.00l53.00 0l-26.50 9.28l-26.50 -9.28zM159.00 106.00l53.00 0l-26.50 9.28l-26.50 -9.28zM212.00 106.00l53.00 0l-26.50 9.28l-26.50 -9.28zM265.00 106.00l53.00 0l-26.50 9.28l-26.50 -9.28zM318.00 106.00l53.00 0l-26.50 9.28l-26.50 -9.28zM371.00 106.00l53.00 0l-26.50 9.28l-26.50 -9.28zM424.00 106.00l53.00 0l-26.50 9.28l-26.50 -9.28zM477.00 106.00l53.00 0l-26.50 9.28l-26.50 -9.28zM530.00 106.00l53.00 0l-26.50 9.28l-26.50 -9.28zM-26.50 132.50l53.00 0l-26.50 9.28l-26.50 -9.28zM26.50 132.50l53.00 0l-26.50 9.28l-26.50 -9.28zM79.50 132.50l53.00 0l-26.50 9.28l-26.50 -9.28zM132.50 132.50l53.00 0l-26.50 9.28l-26.50 -9.28zM185.50 132.50l53.00 0l-26.50 9.28l-26.50 -9.28zM238.50 132.50l53.00 0l-26.50 9.28l-26.50 -9.28zM291.50 132.50l53.00 0l-26.50 9.28l-26.50 -9.28zM344.50 132.50l53.00 0l-26.50 9.28l-26.50 -9.28zM397.50 132.50l53.00 0l-26.50 9.28l-26.50 -9.28zM450.50 132.50l53.00 0l-26.50 9.28l-26.50 -9.28zM503.50 132.50l53.00 0l-26.50 9.28l-26.50 -9.28zM0.00 159.00l53.00 0l-26.50 9.28l-26.50 -9.28zM53.00 159.00l53.00 0l-26.50 9.28l-26.50 -9.28zM106.00 159.00l53.00 0l-26.50 9.28l-26.50 -9.28zM159.00 159.00l53.00 0l-26.50 9.28l-26.50 -9.28zM212.00 159.00l53.00 0l-26.50 9.28l-26.50 -9.28zM265.00 159.00l53.00 0l-26.50 9.28l-26.50 -9.28zM318.00 159.00l53.00 0l-26.50 9.28l-26.50 -9.28zM371.00 159.00l53.00 0l-26.50 9.28l-26.50 -9.28zM424.00 159.00l53.00 0l-26.50 9.28l-26.50 -9.28zM477.00 159.00l53.00 0l-26.50 9.28l-26.50 -9.28zM530.00 159.00l53.00 0l-26.50 9.28l-26.50 -9.28zM-26.50 185.50l53.00 0l-26.50 9.28l-26.50 -9.28zM26.50 185.50l53.00 0l-26.50 9.28l-26.50 -9.28zM79.50 185.50l53.00 0l-26.50 9.28l-26.50 -9.28zM132.50 185.50l53.00 0l-26.50 9.28l-26.50 -9.28zM185.50 185.50l53.00 0l-26.50 9.28l-26.50 -9.28zM238.50 185.50l53.00 0l-26.50 9.28l-26.50 -9.28zM291.50 185.50l53.00 0l-26.50 9.28l-26.50 -9.28zM344.50 185.50l53.00 0l-26.50 9.28l-26.50 -9.28zM397.50 185.50l53.00 0l-26.50 9.28l-26.50 -9.28zM450.50 185.50l53.00 0l-26.50 9.28l-26.50 -9.28zM503.50 185.50l53.00 0l-26.50 9.28l-26.50 -9.28zM0.00 212.00l53.00 0l-26.50 9.28l-26.50 -9.28zM53.00 212.00l53.00 0l-26.50 9.28l-26.50 -9.28zM106.00 212.00l53.00 0l-26.50 9.28l-26.50 -9.28zM159.00 212.00l53.00 0l-26.50 9.28l-26.50 -9.28zM212.00 212.00l53.00 0l-26.50 9.28l-26.50 -9.28zM265.00 212.00l53.00 0l-26.50 9.28l-26.50 -9.28zM318.00 212.00l53.00 0l-26.50 9.28l-26.50 -9.28zM371.00 212.00l53.00 0l-26.50 9.28l-26.50 -9.28zM424.00 212.00l53.00 0l-26.50 9.28l-26.50 -9.28zM477.00 212.00l53.00 0l-26.50 9.28l-26.50 -9.28zM530.00 212.00l53.00 0l-26.50 9.28l-26.50 -9.28zM-26.50 238.50l53.00 0l-26.50 9.28l-26.50 -9.28zM26.50 238.50l53.00 0l-26.50 9.28l-26.50 -9.28zM79.50 238.50l53.00 0l-26.50 9.28l-26.50 -9.28zM132.50 238.50l53.00 0l-26.50 9.28l-26.50 -9.28zM185.50 238.50l53.00 0l-26.50 9.28l-26.50 -9.28zM238.50 238.50l53.00 0l-26.50 9.28l-26.50 -9.28zM291.50 238.50l53.00 0l-26.50 9.28l-26.50 -9.28zM344.50 238.50l53.00 0l-26.50 9.28l-26.50 -9.28zM397.50 238.50l53.00 0l-26.50 9.28l-26.50 -9.28zM450.50 238.50l53.00 0l-26.50 9.28l-26.50 -9.28zM503.50 238.50l53.00 0l-26.50 9.28l-26.50 -9.28zM0.00 265.00l53.00 0l-26.50 9.28l-26.50 -9.28zM53.00 265.00l53.00 0l-26.50 9.28l-26.50 -9.28zM106.00 265.00l53.00 0l-26.50 9.28l-26.50 -9.28zM159.00 265.00l53.00 0l-26.50 9.28l-26.50 -9.28zM212.00 265.00l53.00 0l-26.50 9.28l-26.50 -9.28zM265.00 265.00l53.00 0l-26.50 9.28l-26.50 -9.28zM318.00 265.00l53.00 0l-26.50 9.28l-26.50 -9.28zM371.00 265.00l53.00 0l-26.50 9.28l-26.50 -9.28zM424.00 265.00l53.00 0l-26.50 9.28l-26.50 -9.28zM477.00 265.00l53.00 0l-26.50 9.28l-26.50 -9.28zM530.00 265.00l53.00 0l-26.50 9.28l-26.50 -9.28zM-26.50 291.50l53.00 0l-26.50 9.28l-26.50 -9.28zM26.50 291.50l53.00 0l-26.50 9.28l-26.50 -9.28zM79.50 291.50l53.00 0l-26.50 9.28l-26.50 -9.28zM132.50 291.50l53.00 0l-26.50 9.28l-26.50 -9.28zM185.50 291.50l53.00 0l-26.50 9.28l-26.50 -9.28zM238.50 291.50l53.00 0l-26.50 9.28l-26.50 -9.28zM291.50 291.50l53.00 0l-26.50 9.28l-26.50 -9.28zM344.50 291.50l53.00 0l-26.50 9.28l-26.50 -9.28zM397.50 291.50l53.00 0l-26.50 9.28l-26.50 -9.28zM450.50 291.50l53.00 0l-26.50 9.28l-26.50 -9.28zM503.50 291.50l53.00 0l-26.50 9.28l-26.50 -9.28zM0.00 318.00l53.00 0l-26.50 9.28l-26.50 -9.28zM53.00 318.00l53.00 0l-26.50 9.28l-26.50 -9.28zM106.00 318.00l53.00 0l-26.50 9.28l-26.50 -9.28zM159.00 318.00l53.00 0l-26.50 9.28l-26.50 -9.28zM212.00 318.00l53.00 0l-26.50 9.28l-26.50 -9.28zM265.00 318.00l53.00 0l-26.50 9.28l-26.50 -9.28zM318.00 318.00l53.00 0l-26.50 9.28l-26.50 -9.28zM371.00 318.00l53.00 0l-26.50 9.28l-26.50 -9.28zM424.00 318.00l53.00 0l-26.50 9.28l-26.50 -9.28zM477.00 318.00l53.00 0l-26.50 9.28l-26.50 -9.28zM530.00 318.00l53.00 0l-26.50 9.28l-26.50 -9.28zM-26.50 344.50l53.00 0l-26.50 9.28l-26.50 -9.28zM26.50 344.50l53.00 0l-26.50 9.28l-26.50 -9.28zM79.50 344.50l53.00 0l-26.50 9.28l-26.50 -9.28zM132.50 344.50l53.00 0l-26.50 9.28l-26.50 -9.28zM185.50 344.50l53.00 0l-26.50 9.28l-26.50 -9.28zM238.50 344.50l53.00 0l-26.50 9.28l-26.50 -9.28zM291.50 344.50l53.00 0l-26.50 9.28l-26.50 -9.28zM344.50 344.50l53.00 0l-26.50 9.28l-26.50 -9.28zM397.50 344.50l53.00 0l-26.50 9.28l-26.50 -9.28zM450.50 344.50l53.00 0l-26.50 9.28l-26.50 -9.28zM503.50 344.50l53.00 0l-26.50 9.28l-26.50 -9.28z">
<animate values="M0.00 0.00l53.00 0l-26.50 9.28l-26.50 -9.28zM53.00 0.00l53.00 0l-26.50 9.28l-26.50 -9.28zM106.00 0.00l53.00 0l-26.50 9.28l-26.50 -9.28zM159.00 0.00l53.00 0l-26.50 9.28l-26.50 -9.28zM212.00 0.00l53.00 0l-26.50 9.28l-26.50 -9.28zM265.00 0.00l53.00 0l-26.50 9.28l-26.50 -9.28zM318.00 0.00l53.00 0l-26.50 9.28l-26.50 -9.28zM371.00 0.00l53.00 0l-26.50 9.28l-26.50 -9.28zM424.00 0.00l53.00 0l-26.50 9.28l-26.50 -9.28zM477.00 0.00l53.00 0l-26.50 9.28l-26.50 -9.28zM530.00 0.00l53.00 0l-26.50 9.28l-26.50 -9.28zM-26.50 26.50l53.00 0l-26.50 9.28l-26.50 -9.28zM26.50 26.50l53.00 0l-26.50 9.28l-26.50 -9.28zM79.50 26.50l53.00 0l-26.50 9.28l-26.50 -9.28zM132.50 26.50l53.00 0l-26.50 9.28l-26.50 -9.28zM185.50 26.50l53.00 0l-26.50 9.28l-26.50 -9.28zM238.50 26.50l53.00 0l-26.50 9.28l-26.50 -9.28zM291.50 26.50l53.00 0l-26.50 9.28l-26.50 -9.28zM344.50 26.50l53.00 0l-26.50 9.28l-26.50 -9.28zM397.50 26.50l53.00 0l-26.50 9.28l-26.50 -9.28zM450.50 26.50l53.00 0l-26.50 9.28l-26.50 -9.28zM503.50 26.50l53.00 0l-26.50 9.28l-26.50 -9.28zM0.00 53.00l53.00 0l-26.50 9.28l-26.50 -9.28zM53.00 53.00l53.00 0l-26.50 9.28l-26.50 -9.28zM106.00 53.00l53.00 0l-26.50 9.28l-26.50 -9.28zM159.00 53.00l53.00 0l-26.50 9.28l-26.50 -9.28zM212.00 53.00l53.00 0l-26.50 9.28l-26.50 -9.28zM265.00 53.00l53.00 0l-26.50 9.28l-26.50 -9.28zM318.00 53.00l53.00 0l-26.50 9.28l-26.50 -9.28zM371.00 53.00l53.00 0l-26.50 9.28l-26.50 -9.28zM424.00 53.00l53.00 0l-26.50 9.28l-26.50 -9.28zM477.00 53.00l53.00 0l-26.50 9.28l-26.50 -9.28zM530.00 53.00l53.00 0l-26.50 9.28l-26.50 -9.28zM-26.50 79.50l53.00 0l-26.50 9.28l-26.50 -9.28zM26.50 79.50l53.00 0l-26.50 9.28l-26.50 -9.28zM79.50 79.50l53.00 0l-26.50 9.28l-26.50 -9.28zM132.50 79.50l53.00 0l-26.50 9.28l-26.50 -9.28zM185.50 79.50l53.00 0l-26.50 9.28l-26.50 -9.28zM238.50 79.50l53.00 0l-26.50 9.28l-26.50 -9.28zM291.50 79.50l53.00 0l-26.50 9.28l-26.50 -9.28zM344.50 79.50l53.00 0l-26.50 9.28l-26.50 -9.28zM397.50 79.50l53.00 0l-26.50 9.28l-26.50 -9.28zM450.50 79.50l53.00 0l-26.50 9.28l-26.50 -9.28zM503.50 79.50l53.00 0l-26.50 9.28l-26.50 -9.28zM0.00 106.00l53.00 0l-26.50 9.28l-26.50 -9.28zM53.00 106.00l53.00 0l-26.50 9.28l-26.50 -9.28zM106.00 106.00l53.00 0l-26.50 9.28l-26.50 -9.28zM159.00 106.00l53.00 0l-26.50 9.28l-26.50 -9.28zM212.00 106.00l53.00 0l-26.50 9.28l-26.50 -9.28zM265.00 106.00l53.00 0l-26.50 9.28l-26.50 -9.28zM318.00 106.00l53.00 0l-26.50 9.28l-26.50 -9.28zM371.00 106.00l53.00 0l-26.50 9.28l-26.50 -9.28zM424.00 106.00l53.00 0l-26.50 9.28l-26.50 -9.28zM477.00 106.00l53.00 0l-26.50 9.28l-26.50 -9.28zM530.00 106.00l53.00 0l-26.50 9.28l-26.50 -9.28zM-26.50 132.50l53.00 0l-26.50 9.28l-26.50 -9.28zM26.50 132.50l53.00 0l-26.50 9.28l-26.50 -9.28zM79.50 132.50l53.00 0l-26.50 9.28l-26.50 -9.28zM132.50 132.50l53.00 0l-26.50 9.28l-26.50 -9.28zM185.50 132.50l53.00 0l-26.50 9.28l-26.50 -9.28zM238.50 132.50l53.00 0l-26.50 9.28l-26.50 -9.28zM291.50 132.50l53.00 0l-26.50 9.28l-26.50 -9.28zM344.50 132.50l53.00 0l-26.50 9.28l-26.50 -9.28zM397.50 132.50l53.00 0l-26.50 9.28l-26.50 -9.28zM450.50 132.50l53.00 0l-26.50 9.28l-26.50 -9.28zM503.50 132.50l53.00 0l-26.50 9.28l-26.50 -9.28zM0.00 159.00l53.00 0l-26.50 9.28l-26.50 -9.28zM53.00 159.00l53.00 0l-26.50 9.28l-26.50 -9.28zM106.00 159.00l53.00 0l-26.50 9.28l-26.50 -9.28zM159.00 159.00l53.00 0l-26.50 9.28l-26.50 -9.28zM212.00 159.00l53.00 0l-26.50 9.28l-26.50 -9.28zM265.00 159.00l53.00 0l-26.50 9.28l-26.50 -9.28zM318.00 159.00l53.00 0l-26.50 9.28l-26.50 -9.28zM371.00 159.00l53.00 0l-26.50 9.28l-26.50 -9.28zM424.00 159.00l53.00 0l-26.50 9.28l-26.50 -9.28zM477.00 159.00l53.00 0l-26.50 9.28l-26.50 -9.28zM530.00 159.00l53.00 0l-26.50 9.28l-26.50 -9.28zM-26.50 185.50l53.00 0l-26.50 9.28l-26.50 -9.28zM26.50 185.50l53.00 0l-26.50 9.28l-26.50 -9.28zM79.50 185.50l53.00 0l-26.50 9.28l-26.50 -9.28zM132.50 185.50l53.00 0l-26.50 9.28l-26.50 -9.28zM185.50 185.50l53.00 0l-26.50 9.28l-26.50 -9.28zM238.50 185.50l53.00 0l-26.50 9.28l-26.50 -9.28zM291.50 185.50l53.00 0l-26.50 9.28l-26.50 -9.28zM344.50 185.50l53.00 0l-26.50 9.28l-26.50 -9.28zM397.50 185.50l53.00 0l-26.50 9.28l-26.50 -9.28zM450.50 185.50l53.00 0l-26.50 9.28l-26.50 -9.28zM503.50 185.50l53.00 0l-26.50 9.28l-26.50 -9.28zM0.00 212.00l53.00 0l-26.50 9.28l-26.50 -9.28zM53.00 212.00l53.00 0l-26.50 9.28l-26.50 -9.28zM106.00 212.00l53.00 0l-26.50 9.28l-26.50 -9.28zM159.00 212.00l53.00 0l-26.50 9.28l-26.50 -9.28zM212.00 212.00l53.00 0l-26.50 9.28l-26.50 -9.28zM265.00 212.00l53.00 0l-26.50 9.28l-26.50 -9.28zM318.00 212.00l53.00 0l-26.50 9.28l-26.50 -9.28zM371.00 212.00l53.00 0l-26.50 9.28l-26.50 -9.28zM424.00 212.00l53.00 0l-26.50 9.28l-26.50 -9.28zM477.00 212.00l53.00 0l-26.50 9.28l-26.50 -9.28zM530.00 212.00l53.00 0l-26.50 9.28l-26.50 -9.28zM-26.50 238.50l53.00 0l-26.50 9.28l-26.50 -9.28zM26.50 238.50l53.00 0l-26.50 9.28l-26.50 -9.28zM79.50 238.50l53.00 0l-26.50 9.28l-26.50 -9.28zM132.50 238.50l53.00 0l-26.50 9.28l-26.50 -9.28zM185.50 238.50l53.00 0l-26.50 9.28l-26.50 -9.28zM238.50 238.50l53.00 0l-26.50 9.28l-26.50 -9.28zM291.50 238.50l53.00 0l-26.50 9.28l-26.50 -9.28zM344.50 238.50l53.00 0l-26.50 9.28l-26.50 -9.28zM397.50 238.50l53.00 0l-26.50 9.28l-26.50 -9.28zM450.50 238.50l53.00 0l-26.50 9.28l-26.50 -9.28zM503.50 238.50l53.00 0l-26.50 9.28l-26.50 -9.28zM0.00 265.00l53.00 0l-26.50 9.28l-26.50 -9.28zM53.00 265.00l53.00 0l-26.50 9.28l-26.50 -9.28zM106.00 265.00l53.00 0l-26.50 9.28l-26.50 -9.28zM159.00 265.00l53.00 0l-26.50 9.28l-26.50 -9.28zM212.00 265.00l53.00 0l-26.50 9.28l-26.50 -9.28zM265.00 265.00l53.00 0l-26.50 9.28l-26.50 -9.28zM318.00 265.00l53.00 0l-26.50 9.28l-26.50 -9.28zM371.00 265.00l53.00 0l-26.50 9.28l-26.50 -9.28zM424.00 265.00l53.00 0l-26.50 9.28l-26.50 -9.28zM477.00 265.00l53.00 0l-26.50 9.28l-26.50 -9.28zM530.00 265.00l53.00 0l-26.50 9.28l-26.50 -9.28zM-26.50 291.50l53.00 0l-26.50 9.28l-26.50 -9.28zM26.50 291.50l53.00 0l-26.50 9.28l-26.50 -9.28zM79.50 291.50l53.00 0l-26.50 9.28l-26.50 -9.28zM132.50 291.50l53.00 0l-26.50 9.28l-26.50 -9.28zM185.50 291.50l53.00 0l-26.50 9.28l-26.50 -9.28zM238.50 291.50l53.00 0l-26.50 9.28l-26.50 -9.28zM291.50 291.50l53.00 0l-26.50 9.28l-26.50 -9.28zM344.50 291.50l53.00 0l-26.50 9.28l-26.50 -9.28zM397.50 291.50l53.00 0l-26.50 9.28l-26.50 -9.28zM450.50 291.50l53.00 0l-26.50 9.28l-26.50 -9.28zM503.50 291.50l53.00 0l-26.50 9.28l-26.50 -9.28zM0.00 318.00l53.00 0l-26.50 9.28l-26.50 -9.28zM53.00 318.00l53.00 0l-26.50 9.28l-26.50 -9.28zM106.00 318.00l53.00 0l-26.50 9.28l-26.50 -9.28zM159.00 318.00l53.00 0l-26.50 9.28l-26.50 -9.28zM212.00 318.00l53.00 0l-26.50 9.28l-26.50 -9.28zM265.00 318.00l53.00 0l-26.50 9.28l-26.50 -9.28zM318.00 318.00l53.00 0l-26.50 9.28l-26.50 -9.28zM371.00 318.00l53.00 0l-26.50 9.28l-26.50 -9.28zM424.00 318.00l53.00 0l-26.50 9.28l-26.50 -9.28zM477.00 318.00l53.00 0l-26.50 9.28l-26.50 -9.28zM530.00 318.00l53.00 0l-26.50 9.28l-26.50 -9.28zM-26.50 344.50l53.00 0l-26.50 9.28l-26.50 -9.28zM26.50 344.50l53.00 0l-26.50 9.28l-26.50 -9.28zM79.50 344.50l53.00 0l-26.50 9.28l-26.50 -9.28zM132.50 344.50l53.00 0l-26.50 9.28l-26.50 -9.28zM185.50 344.50l53.00 0l-26.50 9.28l-26.50 -9.28zM238.50 344.50l53.00 0l-26.50 9.28l-26.50 -9.28zM291.50 344.50l53.00 0l-26.50 9.28l-26.50 -9.28zM344.50 344.50l53.00 0l-26.50 9.28l-26.50 -9.28zM397.50 344.50l53.00 0l-26.50 9.28l-26.50 -9.28zM450.50 344.50l53.00 0l-26.50 9.28l-26.50 -9.28zM503.50 344.50l53.00 0l-26.50 9.28l-26.50 -9.28z;M0.00 0.00l53.00 0l-26.50 3.71l-26.50 -3.71zM53.00 0.00l53.00 0l-26.50 3.71l-26.50 -3.71zM106.00 0.00l53.00 0l-26.50 3.71l-26.50 -3.71zM159.00 0.00l53.00 0l-26.50 3.71l-26.50 -3.71zM212.00 0.00l53.00 0l-26.50 3.71l-26.50 -3.71zM265.00 0.00l53.00 0l-26.50 3.71l-26.50 -3.71zM318.00 0.00l53.00 0l-26.50 3.71l-26.50 -3.71zM371.00 0.00l53.00 0l-26.50 3.71l-26.50 -3.71zM424.00 0.00l53.00 0l-26.50 3.71l-26.50 -3.71zM477.00 0.00l53.00 0l-26.50 3.71l-26.50 -3.71zM530.00 0.00l53.00 0l-26.50 3.71l-26.50 -3.71zM-26.50 26.50l53.00 0l-26.50 3.71l-26.50 -3.71zM26.50 26.50l53.00 0l-26.50 3.71l-26.50 -3.71zM79.50 26.50l53.00 0l-26.50 3.71l-26.50 -3.71zM132.50 26.50l53.00 0l-26.50 3.71l-26.50 -3.71zM185.50 26.50l53.00 0l-26.50 3.71l-26.50 -3.71zM238.50 26.50l53.00 0l-26.50 3.71l-26.50 -3.71zM291.50 26.50l53.00 0l-26.50 3.71l-26.50 -3.71zM344.50 26.50l53.00 0l-26.50 3.71l-26.50 -3.71zM397.50 26.50l53.00 0l-26.50 3.71l-26.50 -3.71zM450.50 26.50l53.00 0l-26.50 3.71l-26.50 -3.71zM503.50 26.50l53.00 0l-26.50 3.71l-26.50 -3.71zM0.00 53.00l53.00 0l-26.50 3.71l-26.50 -3.71zM53.00 53.00l53.00 0l-26.50 3.71l-26.50 -3.71zM106.00 53.00l53.00 0l-26.50 3.71l-26.50 -3.71zM159.00 53.00l53.00 0l-26.50 3.71l-26.50 -3.71zM212.00 53.00l53.00 0l-26.50 3.71l-26.50 -3.71zM265.00 53.00l53.00 0l-26.50 3.71l-26.50 -3.71zM318.00 53.00l53.00 0l-26.50 3.71l-26.50 -3.71zM371.00 53.00l53.00 0l-26.50 3.71l-26.50 -3.71zM424.00 53.00l53.00 0l-26.50 3.71l-26.50 -3.71zM477.00 53.00l53.00 0l-26.50 3.71l-26.50 -3.71zM530.00 53.00l53.00 0l-26.50 3.71l-26.50 -3.71zM-26.50 79.50l53.00 0l-26.50 3.71l-26.50 -3.71zM26.50 79.50l53.00 0l-26.50 3.71l-26.50 -3.71zM79.50 79.50l53.00 0l-26.50 3.71l-26.50 -3.71zM132.50 79.50l53.00 0l-26.50 3.71l-26.50 -3.71zM185.50 79.50l53.00 0l-26.50 3.71l-26.50 -3.71zM238.50 79.50l53.00 0l-26.50 3.71l-26.50 -3.71zM291.50 79.50l53.00 0l-26.50 3.71l-26.50 -3.71zM344.50 79.50l53.00 0l-26.50 3.71l-26.50 -3.71zM397.50 79.50l53.00 0l-26.50 3.71l-26.50 -3.71zM450.50 79.50l53.00 0l-26.50 3.71l-26.50 -3.71zM503.50 79.50l53.00 0l-26.50 3.71l-26.50 -3.71zM0.00 106.00l53.00 0l-26.50 3.71l-26.50 -3.71zM53.00 106.00l53.00 0l-26.50 3.71l-26.50 -3.71zM106.00 106.00l53.00 0l-26.50 3.71l-26.50 -3.71zM159.00 106.00l53.00 0l-26.50 3.71l-26.50 -3.71zM212.00 106.00l53.00 0l-26.50 3.71l-26.50 -3.71zM265.00 106.00l53.00 0l-26.50 3.71l-26.50 -3.71zM318.00 106.00l53.00 0l-26.50 3.71l-26.50 -3.71zM371.00 106.00l53.00 0l-26.50 3.71l-26.50 -3.71zM424.00 106.00l53.00 0l-26.50 3.71l-26.50 -3.71zM477.00 106.00l53.00 0l-26.50 3.71l-26.50 -3.71zM530.00 106.00l53.00 0l-26.50 3.71l-26.50 -3.71zM-26.50 132.50l53.00 0l-26.50 3.71l-26.50 -3.71zM26.50 132.50l53.00 0l-26.50 3.71l-26.50 -3.71zM79.50 132.50l53.00 0l-26.50 3.71l-26.50 -3.71zM132.50 132.50l53.00 0l-26.50 3.71l-26.50 -3.71zM185.50 132.50l53.00 0l-26.50 3.71l-26.50 -3.71zM238.50 132.50l53.00 0l-26.50 3.71l-26.50 -3.71zM291.50 132.50l53.00 0l-26.50 3.71l-26.50 -3.71zM344.50 132.50l53.00 0l-26.50 3.71l-26.50 -3.71zM397.50 132.50l53.00 0l-26.50 3.71l-26.50 -3.71zM450.50 132.50l53.00 0l-26.50 3.71l-26.50 -3.71zM503.50 132.50l53.00 0l-26.50 3.71l-26.50 -3.71zM0.00 159.00l53.00 0l-26.50 3.71l-26.50 -3.71zM53.00 159.00l53.00 0l-26.50 3.71l-26.50 -3.71zM106.00 159.00l53.00 0l-26.50 3.71l-26.50 -3.71zM159.00 159.00l53.00 0l-26.50 3.71l-26.50 -3.71zM212.00 159.00l53.00 0l-26.50 3.71l-26.50 -3.71zM265.00 159.00l53.00 0l-26.50 3.71l-26.50 -3.71zM318.00 159.00l53.00 0l-26.50 3.71l-26.50 -3.71zM371.00 159.00l53.00 0l-26.50 3.71l-26.50 -3.71zM424.00 159.00l53.00 0l-26.50 3.71l-26.50 -3.71zM477.00 159.00l53.00 0l-26.50 3.71l-26.50 -3.71zM530.00 159.00l53.00 0l-26.50 3.71l-26.50 -3.71zM-26.50 185.50l53.00 0l-26.50 3.71l-26.50 -3.71zM26.50 185.50l53.00 0l-26.50 3.71l-26.50 -3.71zM79.50 185.50l53.00 0l-26.50 3.71l-26.50 -3.71zM132.50 185.50l53.00 0l-26.50 3.71l-26.50 -3.71zM185.50 185.50l53.00 0l-26.50 3.71l-26.50 -3.71zM238.50 185.50l53.00 0l-26.50 3.71l-26.50 -3.71zM291.50 185.50l53.00 0l-26.50 3.71l-26.50 -3.71zM344.50 185.50l53.00 0l-26.50 3.71l-26.50 -3.71zM397.50 185.50l53.00 0l-26.50 3.71l-26.50 -3.71zM450.50 185.50l53.00 0l-26.50 3.71l-26.50 -3.71zM503.50 185.50l53.00 0l-26.50 3.71l-26.50 -3.71zM0.00 212.00l53.00 0l-26.50 3.71l-26.50 -3.71zM53.00 212.00l53.00 0l-26.50 3.71l-26.50 -3.71zM106.00 212.00l53.00 0l-26.50 3.71l-26.50 -3.71zM159.00 212.00l53.00 0l-26.50 3.71l-26.50 -3.71zM212.00 212.00l53.00 0l-26.50 3.71l-26.50 -3.71zM265.00 212.00l53.00 0l-26.50 3.71l-26.50 -3.71zM318.00 212.00l53.00 0l-26.50 3.71l-26.50 -3.71zM371.00 212.00l53.00 0l-26.50 3.71l-26.50 -3.71zM424.00 212.00l53.00 0l-26.50 3.71l-26.50 -3.71zM477.00 212.00l53.00 0l-26.50 3.71l-26.50 -3.71zM530.00 212.00l53.00 0l-26.50 3.71l-26.50 -3.71zM-26.50 238.50l53.00 0l-26.50 3.71l-26.50 -3.71zM26.50 238.50l53.00 0l-26.50 3.71l-26.50 -3.71zM79.50 238.50l53.00 0l-26.50 3.71l-26.50 -3.71zM132.50 238.50l53.00 0l-26.50 3.71l-26.50 -3.71zM185.50 238.50l53.00 0l-26.50 3.71l-26.50 -3.71zM238.50 238.50l53.00 0l-26.50 3.71l-26.50 -3.71zM291.50 238.50l53.00 0l-26.50 3.71l-26.50 -3.71zM344.50 238.50l53.00 0l-26.50 3.71l-26.50 -3.71zM397.50 238.50l53.00 0l-26.50 3.71l-26.50 -3.71zM450.50 238.50l53.00 0l-26.50 3.71l-26.50 -3.71zM503.50 238.50l53.00 0l-26.50 3.71l-26.50 -3.71zM0.00 265.00l53.00 0l-26.50 3.71l-26.50 -3.71zM53.00 265.00l53.00 0l-26.50 3.71l-26.50 -3.71zM106.00 265.00l53.00 0l-26.50 3.71l-26.50 -3.71zM159.00 265.00l53.00 0l-26.50 3.71l-26.50 -3.71zM212.00 265.00l53.00 0l-26.50 3.71l-26.50 -3.71zM265.00 265.00l53.00 0l-26.50 3.71l-26.50 -3.71zM318.00 265.00l53.00 0l-26.50 3.71l-26.50 -3.71zM371.00 265.00l53.00 0l-26.50 3.71l-26.50 -3.71zM424.00 265.00l53.00 0l-26.50 3.71l-26.50 -3.71zM477.00 265.00l53.00 0l-26.50 3.71l-26.50 -3.71zM530.00 265.00l53.00 0l-26.50 3.71l-26.50 -3.71zM-26.50 291.50l53.00 0l-26.50 3.71l-26.50 -3.71zM26.50 291.50l53.00 0l-26.50 3.71l-26.50 -3.71zM79.50 291.50l53.00 0l-26.50 3.71l-26.50 -3.71zM132.50 291.50l53.00 0l-26.50 3.71l-26.50 -3.71zM185.50 291.50l53.00 0l-26.50 3.71l-26.50 -3.71zM238.50 291.50l53.00 0l-26.50 3.71l-26.50 -3.71zM291.50 291.50l53.00 0l-26.50 3.71l-26.50 -3.71zM344.50 291.50l53.00 0l-26.50 3.71l-26.50 -3.71zM397.50 291.50l53.00 0l-26.50 3.71l-26.50 -3.71zM450.50 291.50l53.00 0l-26.50 3.71l-26.50 -3.71zM503.50 291.50l53.00 0l-26.50 3.71l-26.50 -3.71zM0.00 318.00l53.00 0l-26.50 3.71l-26.50 -3.71zM53.00 318.00l53.00 0l-26.50 3.71l-26.50 -3.71zM106.00 318.00l53.00 0l-26.50 3.71l-26.50 -3.71zM159.00 318.00l53.00 0l-26.50 3.71l-26.50 -3.71zM212.00 318.00l53.00 0l-26.50 3.71l-26.50 -3.71zM265.00 318.00l53.00 0l-26.50 3.71l-26.50 -3.71zM318.00 318.00l53.00 0l-26.50 3.71l-26.50 -3.71zM371.00 318.00l53.00 0l-26.50 3.71l-26.50 -3.71zM424.00 318.00l53.00 0l-26.50 3.71l-26.50 -3.71zM477.00 318.00l53.00 0l-26.50 3.71l-26.50 -3.71zM530.00 318.00l53.00 0l-26.50 3.71l-26.50 -3.71zM-26.50 344.50l53.00 0l-26.50 3.71l-26.50 -3.71zM26.50 344.50l53.00 0l-26.50 3.71l-26.50 -3.71zM79.50 344.50l53.00 0l-26.50 3.71l-26.50 -3.71zM132.50 344.50l53.00 0l-26.50 3.71l-26.50 -3.71zM185.50 344.50l53.00 0l-26.50 3.71l-26.50 -3.71zM238.50 344.50l53.00 0l-26.50 3.71l-26.50 -3.71zM291.50 344.50l53.00 0l-26.50 3.71l-26.50 -3.71zM344.50 344.50l53.00 0l-26.50 3.71l-26.50 -3.71zM397.50 344.50l53.00 0l-26.50 3.71l-26.50 -3.71zM450.50 344.50l53.00 0l-26.50 3.71l-26.50 -3.71zM503.50 344.50l53.00 0l-26.50 3.71l-26.50 -3.71z;M0.00 0.00l53.00 0l-26.50 9.28l-26.50 -9.28zM53.00 0.00l53.00 0l-26.50 9.28l-26.50 -9.28zM106.00 0.00l53.00 0l-26.50 9.28l-26.50 -9.28zM159.00 0.00l53.00 0l-26.50 9.28l-26.50 -9.28zM212.00 0.00l53.00 0l-26.50 9.28l-26.50 -9.28zM265.00 0.00l53.00 0l-26.50 9.28l-26.50 -9.28zM318.00 0.00l53.00 0l-26.50 9.28l-26.50 -9.28zM371.00 0.00l53.00 0l-26.50 9.28l-26.50 -9.28zM424.00 0.00l53.00 0l-26.50 9.28l-26.50 -9.28zM477.00 0.00l53.00 0l-26.50 9.28l-26.50 -9.28zM530.00 0.00l53.00 0l-26.50 9.28l-26.50 -9.28zM-26.50 26.50l53.00 0l-26.50 9.28l-26.50 -9.28zM26.50 26.50l53.00 0l-26.50 9.28l-26.50 -9.28zM79.50 26.50l53.00 0l-26.50 9.28l-26.50 -9.28zM132.50 26.50l53.00 0l-26.50 9.28l-26.50 -9.28zM185.50 26.50l53.00 0l-26.50 9.28l-26.50 -9.28zM238.50 26.50l53.00 0l-26.50 9.28l-26.50 -9.28zM291.50 26.50l53.00 0l-26.50 9.28l-26.50 -9.28zM344.50 26.50l53.00 0l-26.50 9.28l-26.50 -9.28zM397.50 26.50l53.00 0l-26.50 9.28l-26.50 -9.28zM450.50 26.50l53.00 0l-26.50 9.28l-26.50 -9.28zM503.50 26.50l53.00 0l-26.50 9.28l-26.50 -9.28zM0.00 53.00l53.00 0l-26.50 9.28l-26.50 -9.28zM53.00 53.00l53.00 0l-26.50 9.28l-26.50 -9.28zM106.00 53.00l53.00 0l-26.50 9.28l-26.50 -9.28zM159.00 53.00l53.00 0l-26.50 9.28l-26.50 -9.28zM212.00 53.00l53.00 0l-26.50 9.28l-26.50 -9.28zM265.00 53.00l53.00 0l-26.50 9.28l-26.50 -9.28zM318.00 53.00l53.00 0l-26.50 9.28l-26.50 -9.28zM371.00 53.00l53.00 0l-26.50 9.28l-26.50 -9.28zM424.00 53.00l53.00 0l-26.50 9.28l-26.50 -9.28zM477.00 53.00l53.00 0l-26.50 9.28l-26.50 -9.28zM530.00 53.00l53.00 0l-26.50 9.28l-26.50 -9.28zM-26.50 79.50l53.00 0l-26.50 9.28l-26.50 -9.28zM26.50 79.50l53.00 0l-26.50 9.28l-26.50 -9.28zM79.50 79.50l53.00 0l-26.50 9.28l-26.50 -9.28zM132.50 79.50l53.00 0l-26.50 9.28l-26.50 -9.28zM185.50 79.50l53.00 0l-26.50 9.28l-26.50 -9.28zM238.50 79.50l53.00 0l-26.50 9.28l-26.50 -9.28zM291.50 79.50l53.00 0l-26.50 9.28l-26.50 -9.28zM344.50 79.50l53.00 0l-26.50 9.28l-26.50 -9.28zM397.50 79.50l53.00 0l-26.50 9.28l-26.50 -9.28zM450.50 79.50l53.00 0l-26.50 9.28l-26.50 -9.28zM503.50 79.50l53.00 0l-26.50 9.28l-26.50 -9.28zM0.00 106.00l53.00 0l-26.50 9.28l-26.50 -9.28zM53.00 106.00l53.00 0l-26.50 9.28l-26.50 -9.28zM106.00 106.00l53.00 0l-26.50 9.28l-26.50 -9.28zM159.00 106.00l53.00 0l-26.50 9.28l-26.50 -9.28zM212.00 106.00l53.00 0l-26.50 9.28l-26.50 -9.28zM265.00 106.00l53.00 0l-26.50 9.28l-26.50 -9.28zM318.00 106.00l53.00 0l-26.50 9.28l-26.50 -9.28zM371.00 106.00l53.00 0l-26.50 9.28l-26.50 -9.28zM424.00 106.00l53.00 0l-26.50 9.28l-26.50 -9.28zM477.00 106.00l53.00 0l-26.50 9.28l-26.50 -9.28zM530.00 106.00l53.00 0l-26.50 9.28l-26.50 -9.28zM-26.50 132.50l53.00 0l-26.50 9.28l-26.50 -9.28zM26.50 132.50l53.00 0l-26.50 9.28l-26.50 -9.28zM79.50 132.50l53.00 0l-26.50 9.28l-26.50 -9.28zM132.50 132.50l53.00 0l-26.50 9.28l-26.50 -9.28zM185.50 132.50l53.00 0l-26.50 9.28l-26.50 -9.28zM238.50 132.50l53.00 0l-26.50 9.28l-26.50 -9.28zM291.50 132.50l53.00 0l-26.50 9.28l-26.50 -9.28zM344.50 132.50l53.00 0l-26.50 9.28l-26.50 -9.28zM397.50 132.50l53.00 0l-26.50 9.28l-26.50 -9.28zM450.50 132.50l53.00 0l-26.50 9.28l-26.50 -9.28zM503.50 132.50l53.00 0l-26.50 9.28l-26.50 -9.28zM0.00 159.00l53.00 0l-26.50 9.28l-26.50 -9.28zM53.00 159.00l53.00 0l-26.50 9.28l-26.50 -9.28zM106.00 159.00l53.00 0l-26.50 9.28l-26.50 -9.28zM159.00 159.00l53.00 0l-26.50 9.28l-26.50 -9.28zM212.00 159.00l53.00 0l-26.50 9.28l-26.50 -9.28zM265.00 159.00l53.00 0l-26.50 9.28l-26.50 -9.28zM318.00 159.00l53.00 0l-26.50 9.28l-26.50 -9.28zM371.00 159.00l53.00 0l-26.50 9.28l-26.50 -9.28zM424.00 159.00l53.00 0l-26.50 9.28l-26.50 -9.28zM477.00 159.00l53.00 0l-26.50 9.28l-26.50 -9.28zM530.00 159.00l53.00 0l-26.50 9.28l-26.50 -9.28zM-26.50 185.50l53.00 0l-26.50 9.28l-26.50 -9.28zM26.50 185.50l53.00 0l-26.50 9.28l-26.50 -9.28zM79.50 185.50l53.00 0l-26.50 9.28l-26.50 -9.28zM132.50 185.50l53.00 0l-26.50 9.28l-26.50 -9.28zM185.50 185.50l53.00 0l-26.50 9.28l-26.50 -9.28zM238.50 185.50l53.00 0l-26.50 9.28l-26.50 -9.28zM291.50 185.50l53.00 0l-26.50 9.28l-26.50 -9.28zM344.50 185.50l53.00 0l-26.50 9.28l-26.50 -9.28zM397.50 185.50l53.00 0l-26.50 9.28l-26.50 -9.28zM450.50 185.50l53.00 0l-26.50 9.28l-26.50 -9.28zM503.50 185.50l53.00 0l-26.50 9.28l-26.50 -9.28zM0.00 212.00l53.00 0l-26.50 9.28l-26.50 -9.28zM53.00 212.00l53.00 0l-26.50 9.28l-26.50 -9.28zM106.00 212.00l53.00 0l-26.50 9.28l-26.50 -9.28zM159.00 212.00l53.00 0l-26.50 9.28l-26.50 -9.28zM212.00 212.00l53.00 0l-26.50 9.28l-26.50 -9.28zM265.00 212.00l53.00 0l-26.50 9.28l-26.50 -9.28zM318.00 212.00l53.00 0l-26.50 9.28l-26.50 -9.28zM371.00 212.00l53.00 0l-26.50 9.28l-26.50 -9.28zM424.00 212.00l53.00 0l-26.50 9.28l-26.50 -9.28zM477.00 212.00l53.00 0l-26.50 9.28l-26.50 -9.28zM530.00 212.00l53.00 0l-26.50 9.28l-26.50 -9.28zM-26.50 238.50l53.00 0l-26.50 9.28l-26.50 -9.28zM26.50 238.50l53.00 0l-26.50 9.28l-26.50 -9.28zM79.50 238.50l53.00 0l-26.50 9.28l-26.50 -9.28zM132.50 238.50l53.00 0l-26.50 9.28l-26.50 -9.28zM185.50 238.50l53.00 0l-26.50 9.28l-26.50 -9.28zM238.50 238.50l53.00 0l-26.50 9.28l-26.50 -9.28zM291.50 238.50l53.00 0l-26.50 9.28l-26.50 -9.28zM344.50 238.50l53.00 0l-26.50 9.28l-26.50 -9.28zM397.50 238.50l53.00 0l-26.50 9.28l-26.50 -9.28zM450.50 238.50l53.00 0l-26.50 9.28l-26.50 -9.28zM503.50 238.50l53.00 0l-26.50 9.28l-26.50 -9.28zM0.00 265.00l53.00 0l-26.50 9.28l-26.50 -9.28zM53.00 265.00l53.00 0l-26.50 9.28l-26.50 -9.28zM106.00 265.00l53.00 0l-26.50 9.28l-26.50 -9.28zM159.00 265.00l53.00 0l-26.50 9.28l-26.50 -9.28zM212.00 265.00l53.00 0l-26.50 9.28l-26.50 -9.28zM265.00 265.00l53.00 0l-26.50 9.28l-26.50 -9.28zM318.00 265.00l53.00 0l-26.50 9.28l-26.50 -9.28zM371.00 265.00l53.00 0l-26.50 9.28l-26.50 -9.28zM424.00 265.00l53.00 0l-26.50 9.28l-26.50 -9.28zM477.00 265.00l53.00 0l-26.50 9.28l-26.50 -9.28zM530.00 265.00l53.00 0l-26.50 9.28l-26.50 -9.28zM-26.50 291.50l53.00 0l-26.50 9.28l-26.50 -9.28zM26.50 291.50l53.00 0l-26.50 9.28l-26.50 -9.28zM79.50 291.50l53.00 0l-26.50 9.28l-26.50 -9.28zM132.50 291.50l53.00 0l-26.50 9.28l-26.50 -9.28zM185.50 291.50l53.00 0l-26.50 9.28l-26.50 -9.28zM238.50 291.50l53.00 0l-26.50 9.28l-26.50 -9.28zM291.50 291.50l53.00 0l-26.50 9.28l-26.50 -9.28zM344.50 291.50l53.00 0l-26.50 9.28l-26.50 -9.28zM397.50 291.50l53.00 0l-26.50 9.28l-26.50 -9.28zM450.50 291.50l53.00 0l-26.50 9.28l-26.50 -9.28zM503.50 291.50l53.00 0l-26.50 9.28l-26.50 -9.28zM0.00 318.00l53.00 0l-26.50 9.28l-26.50 -9.28zM53.00 318.00l53.00 0l-26.50 9.28l-26.50 -9.28zM106.00 318.00l53.00 0l-26.50 9.28l-26.50 -9.28zM159.00 318.00l53.00 0l-26.50 9.28l-26.50 -9.28zM212.00 318.00l53.00 0l-26.50 9.28l-26.50 -9.28zM265.00 318.00l53.00 0l-26.50 9.28l-26.50 -9.28zM318.00 318.00l53.00 0l-26.50 9.28l-26.50 -9.28zM371.00 318.00l53.00 0l-26.50 9.28l-26.50 -9.28zM424.00 318.00l53.00 0l-26.50 9.28l-26.50 -9.28zM477.00 318.00l53.00 0l-26.50 9.28l-26.50 -9.28zM530.00 318.00l53.00 0l-26.50 9.28l-26.50 -9.28zM-26.50 344.50l53.00 0l-26.50 9.28l-26.50 -9.28zM26.50 344.50l53.00 0l-26.50 9.28l-26.50 -9.28zM79.50 344.50l53.00 0l-26.50 9.28l-26.50 -9.28zM132.50 344.50l53.00 0l-26.50 9.28l-26.50 -9.28zM185.50 344.50l53.00 0l-26.50 9.28l-26.50 -9.28zM238.50 344.50l53.00 0l-26.50 9.28l-26.50 -9.28zM291.50 344.50l53.00 0l-26.50 9.28l-26.50 -9.28zM344.50 344.50l53.00 0l-26.50 9.28l-26.50 -9.28zM397.50 344.50l53.00 0l-26.50 9.28l-26.50 -9.28zM450.50 344.50l53.00 0l-26.50 9.28l-26.50 -9.28zM503.50 344.50l53.00 0l-26.50 9.28l-26.50 -9.28z" keyTimes="0;0.5;1" keySplines="0.50 0.20 0.50 0.80;0.50 0.20 0.50 0.80" calcMode="spline" repeatCount="indefinite" dur="3.33s" attributeName="d"></animate>
</path><g></g></g><!-- [ldio] generated by https://loading.io --></svg>