<svg xmlns="http://www.w3.org/2000/svg" viewBox="0 0 500 350" preserveAspectRatio="xMidYMid" width="500" height="350" style="shape-rendering: auto; display: block; " xmlns:xlink="http://www.w3.org/1999/xlink"><g><g><path d="M-83.33 -83.33A41.67 41.67 0 0 1 0 -83.33A41.67 41.67 0 0 1 83.33 -83.33A41.67 41.67 0 0 1 166.67 -83.33A41.67 41.67 0 0 1 250 -83.33A41.67 41.67 0 0 1 333.33 -83.33A41.67 41.67 0 0 1 416.67 -83.33A41.67 41.67 0 0 1 500 -83.33A41.67 41.67 0 0 1 583.33 -83.33L-83.33 -83.33" fill="#00ffff">
<animateTransform attributeName="transform" type="translate" dur="10s" begin="0s" repeatCount="indefinite" calcMode="spline" keySplines="0.3 0 0.7 1;0.3 0 0.7 1;0.3 0 0.7 1;0.3 0 0.7 1" keyTimes="0;0.25;0.5;0.75;1" values="0 0;41.666666666666664 0;0 0;-41.666666666666664 0;0 0"></animateTransform>
</path>
<animateTransform attributeName="transform" type="translate" dur="3.3333333333333335s" begin="0s" repeatCount="indefinite" calcMode="spline" keySplines="0.5 0 0.5 1;0.5 0 0.5 1;0.5 0 0.5 1;0.5 0 0.5 1" keyTimes="0;0.25;0.5;0.75;1" values="0 0;0 4.166666666666666;0 0;0 -4.166666666666666;0 0"></animateTransform>
</g><g><path d="M-41.67 -66.67A41.67 41.67 0 0 1 41.67 -66.67A41.67 41.67 0 0 1 125 -66.67A41.67 41.67 0 0 1 208.33 -66.67A41.67 41.67 0 0 1 291.67 -66.67A41.67 41.67 0 0 1 375 -66.67A41.67 41.67 0 0 1 458.33 -66.67A41.67 41.67 0 0 1 541.67 -66.67A41.67 41.67 0 0 1 625 -66.67L-41.67 -66.67" fill="#01f7f8">
<animateTransform attributeName="transform" type="translate" dur="10s" begin="-0.3125s" repeatCount="indefinite" calcMode="spline" keySplines="0.3 0 0.7 1;0.3 0 0.7 1;0.3 0 0.7 1;0.3 0 0.7 1" keyTimes="0;0.25;0.5;0.75;1" values="0 0;41.666666666666664 0;0 0;-41.666666666666664 0;0 0"></animateTransform>
</path>
<animateTransform attributeName="transform" type="translate" dur="3.3333333333333335s" begin="-0.3125s" repeatCount="indefinite" calcMode="spline" keySplines="0.5 0 0.5 1;0.5 0 0.5 1;0.5 0 0.5 1;0.5 0 0.5 1" keyTimes="0;0.25;0.5;0.75;1" values="0 0;0 4.166666666666666;0 0;0 -4.166666666666666;0 0"></animateTransform>
</g><g><path d="M-83.33 -50A41.67 41.67 0 0 1 0 -50A41.67 41.67 0 0 1 83.33 -50A41.67 41.67 0 0 1 166.67 -50A41.67 41.67 0 0 1 250 -50A41.67 41.67 0 0 1 333.33 -50A41.67 41.67 0 0 1 416.67 -50A41.67 41.67 0 0 1 500 -50A41.67 41.67 0 0 1 583.33 -50L-83.33 -50" fill="#02eff0">
<animateTransform attributeName="transform" type="translate" dur="10s" begin="-0.625s" repeatCount="indefinite" calcMode="spline" keySplines="0.3 0 0.7 1;0.3 0 0.7 1;0.3 0 0.7 1;0.3 0 0.7 1" keyTimes="0;0.25;0.5;0.75;1" values="0 0;41.666666666666664 0;0 0;-41.666666666666664 0;0 0"></animateTransform>
</path>
<animateTransform attributeName="transform" type="translate" dur="3.3333333333333335s" begin="-0.625s" repeatCount="indefinite" calcMode="spline" keySplines="0.5 0 0.5 1;0.5 0 0.5 1;0.5 0 0.5 1;0.5 0 0.5 1" keyTimes="0;0.25;0.5;0.75;1" values="0 0;0 4.166666666666666;0 0;0 -4.166666666666666;0 0"></animateTransform>
</g><g><path d="M-41.67 -33.33A41.67 41.67 0 0 1 41.67 -33.33A41.67 41.67 0 0 1 125 -33.33A41.67 41.67 0 0 1 208.33 -33.33A41.67 41.67 0 0 1 291.67 -33.33A41.67 41.67 0 0 1 375 -33.33A41.67 41.67 0 0 1 458.33 -33.33A41.67 41.67 0 0 1 541.67 -33.33A41.67 41.67 0 0 1 625 -33.33L-41.67 -33.33" fill="#02e7e9">
<animateTransform attributeName="transform" type="translate" dur="10s" begin="-0.9375s" repeatCount="indefinite" calcMode="spline" keySplines="0.3 0 0.7 1;0.3 0 0.7 1;0.3 0 0.7 1;0.3 0 0.7 1" keyTimes="0;0.25;0.5;0.75;1" values="0 0;41.666666666666664 0;0 0;-41.666666666666664 0;0 0"></animateTransform>
</path>
<animateTransform attributeName="transform" type="translate" dur="3.3333333333333335s" begin="-0.9375s" repeatCount="indefinite" calcMode="spline" keySplines="0.5 0 0.5 1;0.5 0 0.5 1;0.5 0 0.5 1;0.5 0 0.5 1" keyTimes="0;0.25;0.5;0.75;1" values="0 0;0 4.166666666666666;0 0;0 -4.166666666666666;0 0"></animateTransform>
</g><g><path d="M-83.33 -16.67A41.67 41.67 0 0 1 0 -16.67A41.67 41.67 0 0 1 83.33 -16.67A41.67 41.67 0 0 1 166.67 -16.67A41.67 41.67 0 0 1 250 -16.67A41.67 41.67 0 0 1 333.33 -16.67A41.67 41.67 0 0 1 416.67 -16.67A41.67 41.67 0 0 1 500 -16.67A41.67 41.67 0 0 1 583.33 -16.67L-83.33 -16.67" fill="#03dfe1">
<animateTransform attributeName="transform" type="translate" dur="10s" begin="-1.25s" repeatCount="indefinite" calcMode="spline" keySplines="0.3 0 0.7 1;0.3 0 0.7 1;0.3 0 0.7 1;0.3 0 0.7 1" keyTimes="0;0.25;0.5;0.75;1" values="0 0;41.666666666666664 0;0 0;-41.666666666666664 0;0 0"></animateTransform>
</path>
<animateTransform attributeName="transform" type="translate" dur="3.3333333333333335s" begin="-1.25s" repeatCount="indefinite" calcMode="spline" keySplines="0.5 0 0.5 1;0.5 0 0.5 1;0.5 0 0.5 1;0.5 0 0.5 1" keyTimes="0;0.25;0.5;0.75;1" values="0 0;0 4.166666666666666;0 0;0 -4.166666666666666;0 0"></animateTransform>
</g><g><path d="M-41.67 0A41.67 41.67 0 0 1 41.67 0A41.67 41.67 0 0 1 125 0A41.67 41.67 0 0 1 208.33 0A41.67 41.67 0 0 1 291.67 0A41.67 41.67 0 0 1 375 0A41.67 41.67 0 0 1 458.33 0A41.67 41.67 0 0 1 541.67 0A41.67 41.67 0 0 1 625 0L-41.67 0" fill="#04d7da">
<animateTransform attributeName="transform" type="translate" dur="10s" begin="-1.5625s" repeatCount="indefinite" calcMode="spline" keySplines="0.3 0 0.7 1;0.3 0 0.7 1;0.3 0 0.7 1;0.3 0 0.7 1" keyTimes="0;0.25;0.5;0.75;1" values="0 0;41.666666666666664 0;0 0;-41.666666666666664 0;0 0"></animateTransform>
</path>
<animateTransform attributeName="transform" type="translate" dur="3.3333333333333335s" begin="-1.5625s" repeatCount="indefinite" calcMode="spline" keySplines="0.5 0 0.5 1;0.5 0 0.5 1;0.5 0 0.5 1;0.5 0 0.5 1" keyTimes="0;0.25;0.5;0.75;1" values="0 0;0 4.166666666666666;0 0;0 -4.166666666666666;0 0"></animateTransform>
</g><g><path d="M-83.33 16.67A41.67 41.67 0 0 1 0 16.67A41.67 41.67 0 0 1 83.33 16.67A41.67 41.67 0 0 1 166.67 16.67A41.67 41.67 0 0 1 250 16.67A41.67 41.67 0 0 1 333.33 16.67A41.67 41.67 0 0 1 416.67 16.67A41.67 41.67 0 0 1 500 16.67A41.67 41.67 0 0 1 583.33 16.67L-83.33 16.67" fill="#05cfd2">
<animateTransform attributeName="transform" type="translate" dur="10s" begin="-1.875s" repeatCount="indefinite" calcMode="spline" keySplines="0.3 0 0.7 1;0.3 0 0.7 1;0.3 0 0.7 1;0.3 0 0.7 1" keyTimes="0;0.25;0.5;0.75;1" values="0 0;41.666666666666664 0;0 0;-41.666666666666664 0;0 0"></animateTransform>
</path>
<animateTransform attributeName="transform" type="translate" dur="3.3333333333333335s" begin="-1.875s" repeatCount="indefinite" calcMode="spline" keySplines="0.5 0 0.5 1;0.5 0 0.5 1;0.5 0 0.5 1;0.5 0 0.5 1" keyTimes="0;0.25;0.5;0.75;1" values="0 0;0 4.166666666666666;0 0;0 -4.166666666666666;0 0"></animateTransform>
</g><g><path d="M-41.67 33.33A41.67 41.67 0 0 1 41.67 33.33A41.67 41.67 0 0 1 125 33.33A41.67 41.67 0 0 1 208.33 33.33A41.67 41.67 0 0 1 291.67 33.33A41.67 41.67 0 0 1 375 33.33A41.67 41.67 0 0 1 458.33 33.33A41.67 41.67 0 0 1 541.67 33.33A41.67 41.67 0 0 1 625 33.33L-41.67 33.33" fill="#05c7cb">
<animateTransform attributeName="transform" type="translate" dur="10s" begin="-2.1875s" repeatCount="indefinite" calcMode="spline" keySplines="0.3 0 0.7 1;0.3 0 0.7 1;0.3 0 0.7 1;0.3 0 0.7 1" keyTimes="0;0.25;0.5;0.75;1" values="0 0;41.666666666666664 0;0 0;-41.666666666666664 0;0 0"></animateTransform>
</path>
<animateTransform attributeName="transform" type="translate" dur="3.3333333333333335s" begin="-2.1875s" repeatCount="indefinite" calcMode="spline" keySplines="0.5 0 0.5 1;0.5 0 0.5 1;0.5 0 0.5 1;0.5 0 0.5 1" keyTimes="0;0.25;0.5;0.75;1" values="0 0;0 4.166666666666666;0 0;0 -4.166666666666666;0 0"></animateTransform>
</g><g><path d="M-83.33 50A41.67 41.67 0 0 1 0 50A41.67 41.67 0 0 1 83.33 50A41.67 41.67 0 0 1 166.67 50A41.67 41.67 0 0 1 250 50A41.67 41.67 0 0 1 333.33 50A41.67 41.67 0 0 1 416.67 50A41.67 41.67 0 0 1 500 50A41.67 41.67 0 0 1 583.33 50L-83.33 50" fill="#06bfc3">
<animateTransform attributeName="transform" type="translate" dur="10s" begin="-2.5s" repeatCount="indefinite" calcMode="spline" keySplines="0.3 0 0.7 1;0.3 0 0.7 1;0.3 0 0.7 1;0.3 0 0.7 1" keyTimes="0;0.25;0.5;0.75;1" values="0 0;41.666666666666664 0;0 0;-41.666666666666664 0;0 0"></animateTransform>
</path>
<animateTransform attributeName="transform" type="translate" dur="3.3333333333333335s" begin="-2.5s" repeatCount="indefinite" calcMode="spline" keySplines="0.5 0 0.5 1;0.5 0 0.5 1;0.5 0 0.5 1;0.5 0 0.5 1" keyTimes="0;0.25;0.5;0.75;1" values="0 0;0 4.166666666666666;0 0;0 -4.166666666666666;0 0"></animateTransform>
</g><g><path d="M-41.67 66.67A41.67 41.67 0 0 1 41.67 66.67A41.67 41.67 0 0 1 125 66.67A41.67 41.67 0 0 1 208.33 66.67A41.67 41.67 0 0 1 291.67 66.67A41.67 41.67 0 0 1 375 66.67A41.67 41.67 0 0 1 458.33 66.67A41.67 41.67 0 0 1 541.67 66.67A41.67 41.67 0 0 1 625 66.67L-41.67 66.67" fill="#07b7bc">
<animateTransform attributeName="transform" type="translate" dur="10s" begin="-2.8125s" repeatCount="indefinite" calcMode="spline" keySplines="0.3 0 0.7 1;0.3 0 0.7 1;0.3 0 0.7 1;0.3 0 0.7 1" keyTimes="0;0.25;0.5;0.75;1" values="0 0;41.666666666666664 0;0 0;-41.666666666666664 0;0 0"></animateTransform>
</path>
<animateTransform attributeName="transform" type="translate" dur="3.3333333333333335s" begin="-2.8125s" repeatCount="indefinite" calcMode="spline" keySplines="0.5 0 0.5 1;0.5 0 0.5 1;0.5 0 0.5 1;0.5 0 0.5 1" keyTimes="0;0.25;0.5;0.75;1" values="0 0;0 4.166666666666666;0 0;0 -4.166666666666666;0 0"></animateTransform>
</g><g><path d="M-83.33 83.33A41.67 41.67 0 0 1 0 83.33A41.67 41.67 0 0 1 83.33 83.33A41.67 41.67 0 0 1 166.67 83.33A41.67 41.67 0 0 1 250 83.33A41.67 41.67 0 0 1 333.33 83.33A41.67 41.67 0 0 1 416.67 83.33A41.67 41.67 0 0 1 500 83.33A41.67 41.67 0 0 1 583.33 83.33L-83.33 83.33" fill="#08afb4">
<animateTransform attributeName="transform" type="translate" dur="10s" begin="-3.125s" repeatCount="indefinite" calcMode="spline" keySplines="0.3 0 0.7 1;0.3 0 0.7 1;0.3 0 0.7 1;0.3 0 0.7 1" keyTimes="0;0.25;0.5;0.75;1" values="0 0;41.666666666666664 0;0 0;-41.666666666666664 0;0 0"></animateTransform>
</path>
<animateTransform attributeName="transform" type="translate" dur="3.3333333333333335s" begin="-3.125s" repeatCount="indefinite" calcMode="spline" keySplines="0.5 0 0.5 1;0.5 0 0.5 1;0.5 0 0.5 1;0.5 0 0.5 1" keyTimes="0;0.25;0.5;0.75;1" values="0 0;0 4.166666666666666;0 0;0 -4.166666666666666;0 0"></animateTransform>
</g><g><path d="M-41.67 100A41.67 41.67 0 0 1 41.67 100A41.67 41.67 0 0 1 125 100A41.67 41.67 0 0 1 208.33 100A41.67 41.67 0 0 1 291.67 100A41.67 41.67 0 0 1 375 100A41.67 41.67 0 0 1 458.33 100A41.67 41.67 0 0 1 541.67 100A41.67 41.67 0 0 1 625 100L-41.67 100" fill="#09a7ad">
<animateTransform attributeName="transform" type="translate" dur="10s" begin="-3.4375s" repeatCount="indefinite" calcMode="spline" keySplines="0.3 0 0.7 1;0.3 0 0.7 1;0.3 0 0.7 1;0.3 0 0.7 1" keyTimes="0;0.25;0.5;0.75;1" values="0 0;41.666666666666664 0;0 0;-41.666666666666664 0;0 0"></animateTransform>
</path>
<animateTransform attributeName="transform" type="translate" dur="3.3333333333333335s" begin="-3.4375s" repeatCount="indefinite" calcMode="spline" keySplines="0.5 0 0.5 1;0.5 0 0.5 1;0.5 0 0.5 1;0.5 0 0.5 1" keyTimes="0;0.25;0.5;0.75;1" values="0 0;0 4.166666666666666;0 0;0 -4.166666666666666;0 0"></animateTransform>
</g><g><path d="M-83.33 116.67A41.67 41.67 0 0 1 0 116.67A41.67 41.67 0 0 1 83.33 116.67A41.67 41.67 0 0 1 166.67 116.67A41.67 41.67 0 0 1 250 116.67A41.67 41.67 0 0 1 333.33 116.67A41.67 41.67 0 0 1 416.67 116.67A41.67 41.67 0 0 1 500 116.67A41.67 41.67 0 0 1 583.33 116.67L-83.33 116.67" fill="#099fa6">
<animateTransform attributeName="transform" type="translate" dur="10s" begin="-3.75s" repeatCount="indefinite" calcMode="spline" keySplines="0.3 0 0.7 1;0.3 0 0.7 1;0.3 0 0.7 1;0.3 0 0.7 1" keyTimes="0;0.25;0.5;0.75;1" values="0 0;41.666666666666664 0;0 0;-41.666666666666664 0;0 0"></animateTransform>
</path>
<animateTransform attributeName="transform" type="translate" dur="3.3333333333333335s" begin="-3.75s" repeatCount="indefinite" calcMode="spline" keySplines="0.5 0 0.5 1;0.5 0 0.5 1;0.5 0 0.5 1;0.5 0 0.5 1" keyTimes="0;0.25;0.5;0.75;1" values="0 0;0 4.166666666666666;0 0;0 -4.166666666666666;0 0"></animateTransform>
</g><g><path d="M-41.67 133.33A41.67 41.67 0 0 1 41.67 133.33A41.67 41.67 0 0 1 125 133.33A41.67 41.67 0 0 1 208.33 133.33A41.67 41.67 0 0 1 291.67 133.33A41.67 41.67 0 0 1 375 133.33A41.67 41.67 0 0 1 458.33 133.33A41.67 41.67 0 0 1 541.67 133.33A41.67 41.67 0 0 1 625 133.33L-41.67 133.33" fill="#0a979e">
<animateTransform attributeName="transform" type="translate" dur="10s" begin="-4.0625s" repeatCount="indefinite" calcMode="spline" keySplines="0.3 0 0.7 1;0.3 0 0.7 1;0.3 0 0.7 1;0.3 0 0.7 1" keyTimes="0;0.25;0.5;0.75;1" values="0 0;41.666666666666664 0;0 0;-41.666666666666664 0;0 0"></animateTransform>
</path>
<animateTransform attributeName="transform" type="translate" dur="3.3333333333333335s" begin="-4.0625s" repeatCount="indefinite" calcMode="spline" keySplines="0.5 0 0.5 1;0.5 0 0.5 1;0.5 0 0.5 1;0.5 0 0.5 1" keyTimes="0;0.25;0.5;0.75;1" values="0 0;0 4.166666666666666;0 0;0 -4.166666666666666;0 0"></animateTransform>
</g><g><path d="M-83.33 150A41.67 41.67 0 0 1 0 150A41.67 41.67 0 0 1 83.33 150A41.67 41.67 0 0 1 166.67 150A41.67 41.67 0 0 1 250 150A41.67 41.67 0 0 1 333.33 150A41.67 41.67 0 0 1 416.67 150A41.67 41.67 0 0 1 500 150A41.67 41.67 0 0 1 583.33 150L-83.33 150" fill="#0b8f97">
<animateTransform attributeName="transform" type="translate" dur="10s" begin="-4.375s" repeatCount="indefinite" calcMode="spline" keySplines="0.3 0 0.7 1;0.3 0 0.7 1;0.3 0 0.7 1;0.3 0 0.7 1" keyTimes="0;0.25;0.5;0.75;1" values="0 0;41.666666666666664 0;0 0;-41.666666666666664 0;0 0"></animateTransform>
</path>
<animateTransform attributeName="transform" type="translate" dur="3.3333333333333335s" begin="-4.375s" repeatCount="indefinite" calcMode="spline" keySplines="0.5 0 0.5 1;0.5 0 0.5 1;0.5 0 0.5 1;0.5 0 0.5 1" keyTimes="0;0.25;0.5;0.75;1" values="0 0;0 4.166666666666666;0 0;0 -4.166666666666666;0 0"></animateTransform>
</g><g><path d="M-41.67 166.67A41.67 41.67 0 0 1 41.67 166.67A41.67 41.67 0 0 1 125 166.67A41.67 41.67 0 0 1 208.33 166.67A41.67 41.67 0 0 1 291.67 166.67A41.67 41.67 0 0 1 375 166.67A41.67 41.67 0 0 1 458.33 166.67A41.67 41.67 0 0 1 541.67 166.67A41.67 41.67 0 0 1 625 166.67L-41.67 166.67" fill="#0c878f">
<animateTransform attributeName="transform" type="translate" dur="10s" begin="-4.6875s" repeatCount="indefinite" calcMode="spline" keySplines="0.3 0 0.7 1;0.3 0 0.7 1;0.3 0 0.7 1;0.3 0 0.7 1" keyTimes="0;0.25;0.5;0.75;1" values="0 0;41.666666666666664 0;0 0;-41.666666666666664 0;0 0"></animateTransform>
</path>
<animateTransform attributeName="transform" type="translate" dur="3.3333333333333335s" begin="-4.6875s" repeatCount="indefinite" calcMode="spline" keySplines="0.5 0 0.5 1;0.5 0 0.5 1;0.5 0 0.5 1;0.5 0 0.5 1" keyTimes="0;0.25;0.5;0.75;1" values="0 0;0 4.166666666666666;0 0;0 -4.166666666666666;0 0"></animateTransform>
</g><g><path d="M-83.33 183.33A41.67 41.67 0 0 1 0 183.33A41.67 41.67 0 0 1 83.33 183.33A41.67 41.67 0 0 1 166.67 183.33A41.67 41.67 0 0 1 250 183.33A41.67 41.67 0 0 1 333.33 183.33A41.67 41.67 0 0 1 416.67 183.33A41.67 41.67 0 0 1 500 183.33A41.67 41.67 0 0 1 583.33 183.33L-83.33 183.33" fill="#0c7f88">
<animateTransform attributeName="transform" type="translate" dur="10s" begin="-5s" repeatCount="indefinite" calcMode="spline" keySplines="0.3 0 0.7 1;0.3 0 0.7 1;0.3 0 0.7 1;0.3 0 0.7 1" keyTimes="0;0.25;0.5;0.75;1" values="0 0;41.666666666666664 0;0 0;-41.666666666666664 0;0 0"></animateTransform>
</path>
<animateTransform attributeName="transform" type="translate" dur="3.3333333333333335s" begin="-5s" repeatCount="indefinite" calcMode="spline" keySplines="0.5 0 0.5 1;0.5 0 0.5 1;0.5 0 0.5 1;0.5 0 0.5 1" keyTimes="0;0.25;0.5;0.75;1" values="0 0;0 4.166666666666666;0 0;0 -4.166666666666666;0 0"></animateTransform>
</g><g><path d="M-41.67 200A41.67 41.67 0 0 1 41.67 200A41.67 41.67 0 0 1 125 200A41.67 41.67 0 0 1 208.33 200A41.67 41.67 0 0 1 291.67 200A41.67 41.67 0 0 1 375 200A41.67 41.67 0 0 1 458.33 200A41.67 41.67 0 0 1 541.67 200A41.67 41.67 0 0 1 625 200L-41.67 200" fill="#0d7780">
<animateTransform attributeName="transform" type="translate" dur="10s" begin="-5.3125s" repeatCount="indefinite" calcMode="spline" keySplines="0.3 0 0.7 1;0.3 0 0.7 1;0.3 0 0.7 1;0.3 0 0.7 1" keyTimes="0;0.25;0.5;0.75;1" values="0 0;41.666666666666664 0;0 0;-41.666666666666664 0;0 0"></animateTransform>
</path>
<animateTransform attributeName="transform" type="translate" dur="3.3333333333333335s" begin="-5.3125s" repeatCount="indefinite" calcMode="spline" keySplines="0.5 0 0.5 1;0.5 0 0.5 1;0.5 0 0.5 1;0.5 0 0.5 1" keyTimes="0;0.25;0.5;0.75;1" values="0 0;0 4.166666666666666;0 0;0 -4.166666666666666;0 0"></animateTransform>
</g><g><path d="M-83.33 216.67A41.67 41.67 0 0 1 0 216.67A41.67 41.67 0 0 1 83.33 216.67A41.67 41.67 0 0 1 166.67 216.67A41.67 41.67 0 0 1 250 216.67A41.67 41.67 0 0 1 333.33 216.67A41.67 41.67 0 0 1 416.67 216.67A41.67 41.67 0 0 1 500 216.67A41.67 41.67 0 0 1 583.33 216.67L-83.33 216.67" fill="#0e6f79">
<animateTransform attributeName="transform" type="translate" dur="10s" begin="-5.625s" repeatCount="indefinite" calcMode="spline" keySplines="0.3 0 0.7 1;0.3 0 0.7 1;0.3 0 0.7 1;0.3 0 0.7 1" keyTimes="0;0.25;0.5;0.75;1" values="0 0;41.666666666666664 0;0 0;-41.666666666666664 0;0 0"></animateTransform>
</path>
<animateTransform attributeName="transform" type="translate" dur="3.3333333333333335s" begin="-5.625s" repeatCount="indefinite" calcMode="spline" keySplines="0.5 0 0.5 1;0.5 0 0.5 1;0.5 0 0.5 1;0.5 0 0.5 1" keyTimes="0;0.25;0.5;0.75;1" values="0 0;0 4.166666666666666;0 0;0 -4.166666666666666;0 0"></animateTransform>
</g><g><path d="M-41.67 233.33A41.67 41.67 0 0 1 41.67 233.33A41.67 41.67 0 0 1 125 233.33A41.67 41.67 0 0 1 208.33 233.33A41.67 41.67 0 0 1 291.67 233.33A41.67 41.67 0 0 1 375 233.33A41.67 41.67 0 0 1 458.33 233.33A41.67 41.67 0 0 1 541.67 233.33A41.67 41.67 0 0 1 625 233.33L-41.67 233.33" fill="#0f6771">
<animateTransform attributeName="transform" type="translate" dur="10s" begin="-5.9375s" repeatCount="indefinite" calcMode="spline" keySplines="0.3 0 0.7 1;0.3 0 0.7 1;0.3 0 0.7 1;0.3 0 0.7 1" keyTimes="0;0.25;0.5;0.75;1" values="0 0;41.666666666666664 0;0 0;-41.666666666666664 0;0 0"></animateTransform>
</path>
<animateTransform attributeName="transform" type="translate" dur="3.3333333333333335s" begin="-5.9375s" repeatCount="indefinite" calcMode="spline" keySplines="0.5 0 0.5 1;0.5 0 0.5 1;0.5 0 0.5 1;0.5 0 0.5 1" keyTimes="0;0.25;0.5;0.75;1" values="0 0;0 4.166666666666666;0 0;0 -4.166666666666666;0 0"></animateTransform>
</g><g><path d="M-83.33 250A41.67 41.67 0 0 1 0 250A41.67 41.67 0 0 1 83.33 250A41.67 41.67 0 0 1 166.67 250A41.67 41.67 0 0 1 250 250A41.67 41.67 0 0 1 333.33 250A41.67 41.67 0 0 1 416.67 250A41.67 41.67 0 0 1 500 250A41.67 41.67 0 0 1 583.33 250L-83.33 250" fill="#0f5f6a">
<animateTransform attributeName="transform" type="translate" dur="10s" begin="-6.25s" repeatCount="indefinite" calcMode="spline" keySplines="0.3 0 0.7 1;0.3 0 0.7 1;0.3 0 0.7 1;0.3 0 0.7 1" keyTimes="0;0.25;0.5;0.75;1" values="0 0;41.666666666666664 0;0 0;-41.666666666666664 0;0 0"></animateTransform>
</path>
<animateTransform attributeName="transform" type="translate" dur="3.3333333333333335s" begin="-6.25s" repeatCount="indefinite" calcMode="spline" keySplines="0.5 0 0.5 1;0.5 0 0.5 1;0.5 0 0.5 1;0.5 0 0.5 1" keyTimes="0;0.25;0.5;0.75;1" values="0 0;0 4.166666666666666;0 0;0 -4.166666666666666;0 0"></animateTransform>
</g><g><path d="M-41.67 266.67A41.67 41.67 0 0 1 41.67 266.67A41.67 41.67 0 0 1 125 266.67A41.67 41.67 0 0 1 208.33 266.67A41.67 41.67 0 0 1 291.67 266.67A41.67 41.67 0 0 1 375 266.67A41.67 41.67 0 0 1 458.33 266.67A41.67 41.67 0 0 1 541.67 266.67A41.67 41.67 0 0 1 625 266.67L-41.67 266.67" fill="#105763">
<animateTransform attributeName="transform" type="translate" dur="10s" begin="-6.5625s" repeatCount="indefinite" calcMode="spline" keySplines="0.3 0 0.7 1;0.3 0 0.7 1;0.3 0 0.7 1;0.3 0 0.7 1" keyTimes="0;0.25;0.5;0.75;1" values="0 0;41.666666666666664 0;0 0;-41.666666666666664 0;0 0"></animateTransform>
</path>
<animateTransform attributeName="transform" type="translate" dur="3.3333333333333335s" begin="-6.5625s" repeatCount="indefinite" calcMode="spline" keySplines="0.5 0 0.5 1;0.5 0 0.5 1;0.5 0 0.5 1;0.5 0 0.5 1" keyTimes="0;0.25;0.5;0.75;1" values="0 0;0 4.166666666666666;0 0;0 -4.166666666666666;0 0"></animateTransform>
</g><g><path d="M-83.33 283.33A41.67 41.67 0 0 1 0 283.33A41.67 41.67 0 0 1 83.33 283.33A41.67 41.67 0 0 1 166.67 283.33A41.67 41.67 0 0 1 250 283.33A41.67 41.67 0 0 1 333.33 283.33A41.67 41.67 0 0 1 416.67 283.33A41.67 41.67 0 0 1 500 283.33A41.67 41.67 0 0 1 583.33 283.33L-83.33 283.33" fill="#114f5b">
<animateTransform attributeName="transform" type="translate" dur="10s" begin="-6.875s" repeatCount="indefinite" calcMode="spline" keySplines="0.3 0 0.7 1;0.3 0 0.7 1;0.3 0 0.7 1;0.3 0 0.7 1" keyTimes="0;0.25;0.5;0.75;1" values="0 0;41.666666666666664 0;0 0;-41.666666666666664 0;0 0"></animateTransform>
</path>
<animateTransform attributeName="transform" type="translate" dur="3.3333333333333335s" begin="-6.875s" repeatCount="indefinite" calcMode="spline" keySplines="0.5 0 0.5 1;0.5 0 0.5 1;0.5 0 0.5 1;0.5 0 0.5 1" keyTimes="0;0.25;0.5;0.75;1" values="0 0;0 4.166666666666666;0 0;0 -4.166666666666666;0 0"></animateTransform>
</g><g><path d="M-41.67 300A41.67 41.67 0 0 1 41.67 300A41.67 41.67 0 0 1 125 300A41.67 41.67 0 0 1 208.33 300A41.67 41.67 0 0 1 291.67 300A41.67 41.67 0 0 1 375 300A41.67 41.67 0 0 1 458.33 300A41.67 41.67 0 0 1 541.67 300A41.67 41.67 0 0 1 625 300L-41.67 300" fill="#124754">
<animateTransform attributeName="transform" type="translate" dur="10s" begin="-7.1875s" repeatCount="indefinite" calcMode="spline" keySplines="0.3 0 0.7 1;0.3 0 0.7 1;0.3 0 0.7 1;0.3 0 0.7 1" keyTimes="0;0.25;0.5;0.75;1" values="0 0;41.666666666666664 0;0 0;-41.666666666666664 0;0 0"></animateTransform>
</path>
<animateTransform attributeName="transform" type="translate" dur="3.3333333333333335s" begin="-7.1875s" repeatCount="indefinite" calcMode="spline" keySplines="0.5 0 0.5 1;0.5 0 0.5 1;0.5 0 0.5 1;0.5 0 0.5 1" keyTimes="0;0.25;0.5;0.75;1" values="0 0;0 4.166666666666666;0 0;0 -4.166666666666666;0 0"></animateTransform>
</g><g><path d="M-83.33 316.67A41.67 41.67 0 0 1 0 316.67A41.67 41.67 0 0 1 83.33 316.67A41.67 41.67 0 0 1 166.67 316.67A41.67 41.67 0 0 1 250 316.67A41.67 41.67 0 0 1 333.33 316.67A41.67 41.67 0 0 1 416.67 316.67A41.67 41.67 0 0 1 500 316.67A41.67 41.67 0 0 1 583.33 316.67L-83.33 316.67" fill="#133f4c">
<animateTransform attributeName="transform" type="translate" dur="10s" begin="-7.5s" repeatCount="indefinite" calcMode="spline" keySplines="0.3 0 0.7 1;0.3 0 0.7 1;0.3 0 0.7 1;0.3 0 0.7 1" keyTimes="0;0.25;0.5;0.75;1" values="0 0;41.666666666666664 0;0 0;-41.666666666666664 0;0 0"></animateTransform>
</path>
<animateTransform attributeName="transform" type="translate" dur="3.3333333333333335s" begin="-7.5s" repeatCount="indefinite" calcMode="spline" keySplines="0.5 0 0.5 1;0.5 0 0.5 1;0.5 0 0.5 1;0.5 0 0.5 1" keyTimes="0;0.25;0.5;0.75;1" values="0 0;0 4.166666666666666;0 0;0 -4.166666666666666;0 0"></animateTransform>
</g><g><path d="M-41.67 333.33A41.67 41.67 0 0 1 41.67 333.33A41.67 41.67 0 0 1 125 333.33A41.67 41.67 0 0 1 208.33 333.33A41.67 41.67 0 0 1 291.67 333.33A41.67 41.67 0 0 1 375 333.33A41.67 41.67 0 0 1 458.33 333.33A41.67 41.67 0 0 1 541.67 333.33A41.67 41.67 0 0 1 625 333.33L-41.67 333.33" fill="#133745">
<animateTransform attributeName="transform" type="translate" dur="10s" begin="-7.8125s" repeatCount="indefinite" calcMode="spline" keySplines="0.3 0 0.7 1;0.3 0 0.7 1;0.3 0 0.7 1;0.3 0 0.7 1" keyTimes="0;0.25;0.5;0.75;1" values="0 0;41.666666666666664 0;0 0;-41.666666666666664 0;0 0"></animateTransform>
</path>
<animateTransform attributeName="transform" type="translate" dur="3.3333333333333335s" begin="-7.8125s" repeatCount="indefinite" calcMode="spline" keySplines="0.5 0 0.5 1;0.5 0 0.5 1;0.5 0 0.5 1;0.5 0 0.5 1" keyTimes="0;0.25;0.5;0.75;1" values="0 0;0 4.166666666666666;0 0;0 -4.166666666666666;0 0"></animateTransform>
</g><g><path d="M-83.33 350A41.67 41.67 0 0 1 0 350A41.67 41.67 0 0 1 83.33 350A41.67 41.67 0 0 1 166.67 350A41.67 41.67 0 0 1 250 350A41.67 41.67 0 0 1 333.33 350A41.67 41.67 0 0 1 416.67 350A41.67 41.67 0 0 1 500 350A41.67 41.67 0 0 1 583.33 350L-83.33 350" fill="#142f3d">
<animateTransform attributeName="transform" type="translate" dur="10s" begin="-8.125s" repeatCount="indefinite" calcMode="spline" keySplines="0.3 0 0.7 1;0.3 0 0.7 1;0.3 0 0.7 1;0.3 0 0.7 1" keyTimes="0;0.25;0.5;0.75;1" values="0 0;41.666666666666664 0;0 0;-41.666666666666664 0;0 0"></animateTransform>
</path>
<animateTransform attributeName="transform" type="translate" dur="3.3333333333333335s" begin="-8.125s" repeatCount="indefinite" calcMode="spline" keySplines="0.5 0 0.5 1;0.5 0 0.5 1;0.5 0 0.5 1;0.5 0 0.5 1" keyTimes="0;0.25;0.5;0.75;1" values="0 0;0 4.166666666666666;0 0;0 -4.166666666666666;0 0"></animateTransform>
</g><g><path d="M-41.67 366.67A41.67 41.67 0 0 1 41.67 366.67A41.67 41.67 0 0 1 125 366.67A41.67 41.67 0 0 1 208.33 366.67A41.67 41.67 0 0 1 291.67 366.67A41.67 41.67 0 0 1 375 366.67A41.67 41.67 0 0 1 458.33 366.67A41.67 41.67 0 0 1 541.67 366.67A41.67 41.67 0 0 1 625 366.67L-41.67 366.67" fill="#152736">
<animateTransform attributeName="transform" type="translate" dur="10s" begin="-8.4375s" repeatCount="indefinite" calcMode="spline" keySplines="0.3 0 0.7 1;0.3 0 0.7 1;0.3 0 0.7 1;0.3 0 0.7 1" keyTimes="0;0.25;0.5;0.75;1" values="0 0;41.666666666666664 0;0 0;-41.666666666666664 0;0 0"></animateTransform>
</path>
<animateTransform attributeName="transform" type="translate" dur="3.3333333333333335s" begin="-8.4375s" repeatCount="indefinite" calcMode="spline" keySplines="0.5 0 0.5 1;0.5 0 0.5 1;0.5 0 0.5 1;0.5 0 0.5 1" keyTimes="0;0.25;0.5;0.75;1" values="0 0;0 4.166666666666666;0 0;0 -4.166666666666666;0 0"></animateTransform>
</g><g><path d="M-83.33 383.33A41.67 41.67 0 0 1 0 383.33A41.67 41.67 0 0 1 83.33 383.33A41.67 41.67 0 0 1 166.67 383.33A41.67 41.67 0 0 1 250 383.33A41.67 41.67 0 0 1 333.33 383.33A41.67 41.67 0 0 1 416.67 383.33A41.67 41.67 0 0 1 500 383.33A41.67 41.67 0 0 1 583.33 383.33L-83.33 383.33" fill="#161f2e">
<animateTransform attributeName="transform" type="translate" dur="10s" begin="-8.75s" repeatCount="indefinite" calcMode="spline" keySplines="0.3 0 0.7 1;0.3 0 0.7 1;0.3 0 0.7 1;0.3 0 0.7 1" keyTimes="0;0.25;0.5;0.75;1" values="0 0;41.666666666666664 0;0 0;-41.666666666666664 0;0 0"></animateTransform>
</path>
<animateTransform attributeName="transform" type="translate" dur="3.3333333333333335s" begin="-8.75s" repeatCount="indefinite" calcMode="spline" keySplines="0.5 0 0.5 1;0.5 0 0.5 1;0.5 0 0.5 1;0.5 0 0.5 1" keyTimes="0;0.25;0.5;0.75;1" values="0 0;0 4.166666666666666;0 0;0 -4.166666666666666;0 0"></animateTransform>
</g><g><path d="M-41.67 400A41.67 41.67 0 0 1 41.67 400A41.67 41.67 0 0 1 125 400A41.67 41.67 0 0 1 208.33 400A41.67 41.67 0 0 1 291.67 400A41.67 41.67 0 0 1 375 400A41.67 41.67 0 0 1 458.33 400A41.67 41.67 0 0 1 541.67 400A41.67 41.67 0 0 1 625 400L-41.67 400" fill="#161727">
<animateTransform attributeName="transform" type="translate" dur="10s" begin="-9.0625s" repeatCount="indefinite" calcMode="spline" keySplines="0.3 0 0.7 1;0.3 0 0.7 1;0.3 0 0.7 1;0.3 0 0.7 1" keyTimes="0;0.25;0.5;0.75;1" values="0 0;41.666666666666664 0;0 0;-41.666666666666664 0;0 0"></animateTransform>
</path>
<animateTransform attributeName="transform" type="translate" dur="3.3333333333333335s" begin="-9.0625s" repeatCount="indefinite" calcMode="spline" keySplines="0.5 0 0.5 1;0.5 0 0.5 1;0.5 0 0.5 1;0.5 0 0.5 1" keyTimes="0;0.25;0.5;0.75;1" values="0 0;0 4.166666666666666;0 0;0 -4.166666666666666;0 0"></animateTransform>
</g><g><path d="M-83.33 416.67A41.67 41.67 0 0 1 0 416.67A41.67 41.67 0 0 1 83.33 416.67A41.67 41.67 0 0 1 166.67 416.67A41.67 41.67 0 0 1 250 416.67A41.67 41.67 0 0 1 333.33 416.67A41.67 41.67 0 0 1 416.67 416.67A41.67 41.67 0 0 1 500 416.67A41.67 41.67 0 0 1 583.33 416.67L-83.33 416.67" fill="#170f1f">
<animateTransform attributeName="transform" type="translate" dur="10s" begin="-9.375s" repeatCount="indefinite" calcMode="spline" keySplines="0.3 0 0.7 1;0.3 0 0.7 1;0.3 0 0.7 1;0.3 0 0.7 1" keyTimes="0;0.25;0.5;0.75;1" values="0 0;41.666666666666664 0;0 0;-41.666666666666664 0;0 0"></animateTransform>
</path>
<animateTransform attributeName="transform" type="translate" dur="3.3333333333333335s" begin="-9.375s" repeatCount="indefinite" calcMode="spline" keySplines="0.5 0 0.5 1;0.5 0 0.5 1;0.5 0 0.5 1;0.5 0 0.5 1" keyTimes="0;0.25;0.5;0.75;1" values="0 0;0 4.166666666666666;0 0;0 -4.166666666666666;0 0"></animateTransform>
</g><g><path d="M-41.67 433.33A41.67 41.67 0 0 1 41.67 433.33A41.67 41.67 0 0 1 125 433.33A41.67 41.67 0 0 1 208.33 433.33A41.67 41.67 0 0 1 291.67 433.33A41.67 41.67 0 0 1 375 433.33A41.67 41.67 0 0 1 458.33 433.33A41.67 41.67 0 0 1 541.67 433.33A41.67 41.67 0 0 1 625 433.33L-41.67 433.33" fill="#180718">
<animateTransform attributeName="transform" type="translate" dur="10s" begin="-9.6875s" repeatCount="indefinite" calcMode="spline" keySplines="0.3 0 0.7 1;0.3 0 0.7 1;0.3 0 0.7 1;0.3 0 0.7 1" keyTimes="0;0.25;0.5;0.75;1" values="0 0;41.666666666666664 0;0 0;-41.666666666666664 0;0 0"></animateTransform>
</path>
<animateTransform attributeName="transform" type="translate" dur="3.3333333333333335s" begin="-9.6875s" repeatCount="indefinite" calcMode="spline" keySplines="0.5 0 0.5 1;0.5 0 0.5 1;0.5 0 0.5 1;0.5 0 0.5 1" keyTimes="0;0.25;0.5;0.75;1" values="0 0;0 4.166666666666666;0 0;0 -4.166666666666666;0 0"></animateTransform>
</g><g></g></g><style type="text/css"></style><!-- [ldio] generated by https://loading.io --></svg>