<svg xmlns="http://www.w3.org/2000/svg" viewBox="0 0 640 480" preserveAspectRatio="xMidYMid" width="640" height="480" style="shape-rendering: auto; display: block; " xmlns:xlink="http://www.w3.org/1999/xlink"><g><defs>
  <style type="text/css">
    .g1 {animation: b 5s ease-in-out infinite}
    .g2 {animation: b 5s -1.67s ease-in-out infinite}
    .g3 {animation: b 5s -3.33s ease-in-out infinite}
    @keyframes b { 0% {opacity: 0.60} 50% {opacity: 1} 100% {opacity: 0.60} }
  </style>
</defs>
<g><g class="g1"><path d="M0.0 0.0L0.0 38.0L32.9 19.0L32.9 -19.0Z" fill="#181818" stroke="#000000" stroke-width="1.5"></path><path d="M65.8 0.0L65.8 38.0L98.7 19.0L98.7 -19.0Z" fill="#181818" stroke="#000000" stroke-width="1.5"></path><path d="M131.6 0.0L131.6 38.0L164.5 19.0L164.5 -19.0Z" fill="#181818" stroke="#000000" stroke-width="1.5"></path><path d="M197.5 0.0L197.5 38.0L230.4 19.0L230.4 -19.0Z" fill="#181818" stroke="#000000" stroke-width="1.5"></path><path d="M263.3 0.0L263.3 38.0L296.2 19.0L296.2 -19.0Z" fill="#181818" stroke="#000000" stroke-width="1.5"></path><path d="M329.1 0.0L329.1 38.0L362.0 19.0L362.0 -19.0Z" fill="#181818" stroke="#000000" stroke-width="1.5"></path><path d="M394.9 0.0L394.9 38.0L427.8 19.0L427.8 -19.0Z" fill="#181818" stroke="#000000" stroke-width="1.5"></path><path d="M460.7 0.0L460.7 38.0L493.6 19.0L493.6 -19.0Z" fill="#181818" stroke="#000000" stroke-width="1.5"></path><path d="M526.5 0.0L526.5 38.0L559.5 19.0L559.5 -19.0Z" fill="#181818" stroke="#000000" stroke-width="1.5"></path><path d="M592.4 0.0L592.4 38.0L625.3 19.0L625.3 -19.0Z" fill="#181818" stroke="#000000" stroke-width="1.5"></path><path d="M658.2 0.0L658.2 38.0L691.1 19.0L691.1 -19.0Z" fill="#181818" stroke="#000000" stroke-width="1.5"></path><path d="M32.9 57.0L32.9 95.0L65.8 76.0L65.8 38.0Z" fill="#181818" stroke="#000000" stroke-width="1.5"></path><path d="M98.7 57.0L98.7 95.0L131.6 76.0L131.6 38.0Z" fill="#181818" stroke="#000000" stroke-width="1.5"></path><path d="M164.5 57.0L164.5 95.0L197.5 76.0L197.5 38.0Z" fill="#181818" stroke="#000000" stroke-width="1.5"></path><path d="M230.4 57.0L230.4 95.0L263.3 76.0L263.3 38.0Z" fill="#181818" stroke="#000000" stroke-width="1.5"></path><path d="M296.2 57.0L296.2 95.0L329.1 76.0L329.1 38.0Z" fill="#181818" stroke="#000000" stroke-width="1.5"></path><path d="M362.0 57.0L362.0 95.0L394.9 76.0L394.9 38.0Z" fill="#181818" stroke="#000000" stroke-width="1.5"></path><path d="M427.8 57.0L427.8 95.0L460.7 76.0L460.7 38.0Z" fill="#181818" stroke="#000000" stroke-width="1.5"></path><path d="M493.6 57.0L493.6 95.0L526.5 76.0L526.5 38.0Z" fill="#181818" stroke="#000000" stroke-width="1.5"></path><path d="M559.5 57.0L559.5 95.0L592.4 76.0L592.4 38.0Z" fill="#181818" stroke="#000000" stroke-width="1.5"></path><path d="M625.3 57.0L625.3 95.0L658.2 76.0L658.2 38.0Z" fill="#181818" stroke="#000000" stroke-width="1.5"></path><path d="M691.1 57.0L691.1 95.0L724.0 76.0L724.0 38.0Z" fill="#181818" stroke="#000000" stroke-width="1.5"></path><path d="M0.0 114.0L0.0 152.0L32.9 133.0L32.9 95.0Z" fill="#181818" stroke="#000000" stroke-width="1.5"></path><path d="M65.8 114.0L65.8 152.0L98.7 133.0L98.7 95.0Z" fill="#181818" stroke="#000000" stroke-width="1.5"></path><path d="M131.6 114.0L131.6 152.0L164.5 133.0L164.5 95.0Z" fill="#181818" stroke="#000000" stroke-width="1.5"></path><path d="M197.5 114.0L197.5 152.0L230.4 133.0L230.4 95.0Z" fill="#181818" stroke="#000000" stroke-width="1.5"></path><path d="M263.3 114.0L263.3 152.0L296.2 133.0L296.2 95.0Z" fill="#181818" stroke="#000000" stroke-width="1.5"></path><path d="M329.1 114.0L329.1 152.0L362.0 133.0L362.0 95.0Z" fill="#181818" stroke="#000000" stroke-width="1.5"></path><path d="M394.9 114.0L394.9 152.0L427.8 133.0L427.8 95.0Z" fill="#181818" stroke="#000000" stroke-width="1.5"></path><path d="M460.7 114.0L460.7 152.0L493.6 133.0L493.6 95.0Z" fill="#181818" stroke="#000000" stroke-width="1.5"></path><path d="M526.5 114.0L526.5 152.0L559.5 133.0L559.5 95.0Z" fill="#181818" stroke="#000000" stroke-width="1.5"></path><path d="M592.4 114.0L592.4 152.0L625.3 133.0L625.3 95.0Z" fill="#181818" stroke="#000000" stroke-width="1.5"></path><path d="M658.2 114.0L658.2 152.0L691.1 133.0L691.1 95.0Z" fill="#181818" stroke="#000000" stroke-width="1.5"></path><path d="M32.9 171.0L32.9 209.0L65.8 190.0L65.8 152.0Z" fill="#181818" stroke="#000000" stroke-width="1.5"></path><path d="M98.7 171.0L98.7 209.0L131.6 190.0L131.6 152.0Z" fill="#181818" stroke="#000000" stroke-width="1.5"></path><path d="M164.5 171.0L164.5 209.0L197.5 190.0L197.5 152.0Z" fill="#181818" stroke="#000000" stroke-width="1.5"></path><path d="M230.4 171.0L230.4 209.0L263.3 190.0L263.3 152.0Z" fill="#181818" stroke="#000000" stroke-width="1.5"></path><path d="M296.2 171.0L296.2 209.0L329.1 190.0L329.1 152.0Z" fill="#181818" stroke="#000000" stroke-width="1.5"></path><path d="M362.0 171.0L362.0 209.0L394.9 190.0L394.9 152.0Z" fill="#181818" stroke="#000000" stroke-width="1.5"></path><path d="M427.8 171.0L427.8 209.0L460.7 190.0L460.7 152.0Z" fill="#181818" stroke="#000000" stroke-width="1.5"></path><path d="M493.6 171.0L493.6 209.0L526.5 190.0L526.5 152.0Z" fill="#181818" stroke="#000000" stroke-width="1.5"></path><path d="M559.5 171.0L559.5 209.0L592.4 190.0L592.4 152.0Z" fill="#181818" stroke="#000000" stroke-width="1.5"></path><path d="M625.3 171.0L625.3 209.0L658.2 190.0L658.2 152.0Z" fill="#181818" stroke="#000000" stroke-width="1.5"></path><path d="M691.1 171.0L691.1 209.0L724.0 190.0L724.0 152.0Z" fill="#181818" stroke="#000000" stroke-width="1.5"></path><path d="M0.0 228.0L0.0 266.0L32.9 247.0L32.9 209.0Z" fill="#181818" stroke="#000000" stroke-width="1.5"></path><path d="M65.8 228.0L65.8 266.0L98.7 247.0L98.7 209.0Z" fill="#181818" stroke="#000000" stroke-width="1.5"></path><path d="M131.6 228.0L131.6 266.0L164.5 247.0L164.5 209.0Z" fill="#181818" stroke="#000000" stroke-width="1.5"></path><path d="M197.5 228.0L197.5 266.0L230.4 247.0L230.4 209.0Z" fill="#181818" stroke="#000000" stroke-width="1.5"></path><path d="M263.3 228.0L263.3 266.0L296.2 247.0L296.2 209.0Z" fill="#181818" stroke="#000000" stroke-width="1.5"></path><path d="M329.1 228.0L329.1 266.0L362.0 247.0L362.0 209.0Z" fill="#181818" stroke="#000000" stroke-width="1.5"></path><path d="M394.9 228.0L394.9 266.0L427.8 247.0L427.8 209.0Z" fill="#181818" stroke="#000000" stroke-width="1.5"></path><path d="M460.7 228.0L460.7 266.0L493.6 247.0L493.6 209.0Z" fill="#181818" stroke="#000000" stroke-width="1.5"></path><path d="M526.5 228.0L526.5 266.0L559.5 247.0L559.5 209.0Z" fill="#181818" stroke="#000000" stroke-width="1.5"></path><path d="M592.4 228.0L592.4 266.0L625.3 247.0L625.3 209.0Z" fill="#181818" stroke="#000000" stroke-width="1.5"></path><path d="M658.2 228.0L658.2 266.0L691.1 247.0L691.1 209.0Z" fill="#181818" stroke="#000000" stroke-width="1.5"></path><path d="M32.9 285.0L32.9 323.0L65.8 304.0L65.8 266.0Z" fill="#181818" stroke="#000000" stroke-width="1.5"></path><path d="M98.7 285.0L98.7 323.0L131.6 304.0L131.6 266.0Z" fill="#181818" stroke="#000000" stroke-width="1.5"></path><path d="M164.5 285.0L164.5 323.0L197.5 304.0L197.5 266.0Z" fill="#181818" stroke="#000000" stroke-width="1.5"></path><path d="M230.4 285.0L230.4 323.0L263.3 304.0L263.3 266.0Z" fill="#181818" stroke="#000000" stroke-width="1.5"></path><path d="M296.2 285.0L296.2 323.0L329.1 304.0L329.1 266.0Z" fill="#181818" stroke="#000000" stroke-width="1.5"></path><path d="M362.0 285.0L362.0 323.0L394.9 304.0L394.9 266.0Z" fill="#181818" stroke="#000000" stroke-width="1.5"></path><path d="M427.8 285.0L427.8 323.0L460.7 304.0L460.7 266.0Z" fill="#181818" stroke="#000000" stroke-width="1.5"></path><path d="M493.6 285.0L493.6 323.0L526.5 304.0L526.5 266.0Z" fill="#181818" stroke="#000000" stroke-width="1.5"></path><path d="M559.5 285.0L559.5 323.0L592.4 304.0L592.4 266.0Z" fill="#181818" stroke="#000000" stroke-width="1.5"></path><path d="M625.3 285.0L625.3 323.0L658.2 304.0L658.2 266.0Z" fill="#181818" stroke="#000000" stroke-width="1.5"></path><path d="M691.1 285.0L691.1 323.0L724.0 304.0L724.0 266.0Z" fill="#181818" stroke="#000000" stroke-width="1.5"></path><path d="M0.0 342.0L0.0 380.0L32.9 361.0L32.9 323.0Z" fill="#181818" stroke="#000000" stroke-width="1.5"></path><path d="M65.8 342.0L65.8 380.0L98.7 361.0L98.7 323.0Z" fill="#181818" stroke="#000000" stroke-width="1.5"></path><path d="M131.6 342.0L131.6 380.0L164.5 361.0L164.5 323.0Z" fill="#181818" stroke="#000000" stroke-width="1.5"></path><path d="M197.5 342.0L197.5 380.0L230.4 361.0L230.4 323.0Z" fill="#181818" stroke="#000000" stroke-width="1.5"></path><path d="M263.3 342.0L263.3 380.0L296.2 361.0L296.2 323.0Z" fill="#181818" stroke="#000000" stroke-width="1.5"></path><path d="M329.1 342.0L329.1 380.0L362.0 361.0L362.0 323.0Z" fill="#181818" stroke="#000000" stroke-width="1.5"></path><path d="M394.9 342.0L394.9 380.0L427.8 361.0L427.8 323.0Z" fill="#181818" stroke="#000000" stroke-width="1.5"></path><path d="M460.7 342.0L460.7 380.0L493.6 361.0L493.6 323.0Z" fill="#181818" stroke="#000000" stroke-width="1.5"></path><path d="M526.5 342.0L526.5 380.0L559.5 361.0L559.5 323.0Z" fill="#181818" stroke="#000000" stroke-width="1.5"></path><path d="M592.4 342.0L592.4 380.0L625.3 361.0L625.3 323.0Z" fill="#181818" stroke="#000000" stroke-width="1.5"></path><path d="M658.2 342.0L658.2 380.0L691.1 361.0L691.1 323.0Z" fill="#181818" stroke="#000000" stroke-width="1.5"></path><path d="M32.9 399.0L32.9 437.0L65.8 418.0L65.8 380.0Z" fill="#181818" stroke="#000000" stroke-width="1.5"></path><path d="M98.7 399.0L98.7 437.0L131.6 418.0L131.6 380.0Z" fill="#181818" stroke="#000000" stroke-width="1.5"></path><path d="M164.5 399.0L164.5 437.0L197.5 418.0L197.5 380.0Z" fill="#181818" stroke="#000000" stroke-width="1.5"></path><path d="M230.4 399.0L230.4 437.0L263.3 418.0L263.3 380.0Z" fill="#181818" stroke="#000000" stroke-width="1.5"></path><path d="M296.2 399.0L296.2 437.0L329.1 418.0L329.1 380.0Z" fill="#181818" stroke="#000000" stroke-width="1.5"></path><path d="M362.0 399.0L362.0 437.0L394.9 418.0L394.9 380.0Z" fill="#181818" stroke="#000000" stroke-width="1.5"></path><path d="M427.8 399.0L427.8 437.0L460.7 418.0L460.7 380.0Z" fill="#181818" stroke="#000000" stroke-width="1.5"></path><path d="M493.6 399.0L493.6 437.0L526.5 418.0L526.5 380.0Z" fill="#181818" stroke="#000000" stroke-width="1.5"></path><path d="M559.5 399.0L559.5 437.0L592.4 418.0L592.4 380.0Z" fill="#181818" stroke="#000000" stroke-width="1.5"></path><path d="M625.3 399.0L625.3 437.0L658.2 418.0L658.2 380.0Z" fill="#181818" stroke="#000000" stroke-width="1.5"></path><path d="M691.1 399.0L691.1 437.0L724.0 418.0L724.0 380.0Z" fill="#181818" stroke="#000000" stroke-width="1.5"></path><path d="M0.0 456.0L0.0 494.0L32.9 475.0L32.9 437.0Z" fill="#181818" stroke="#000000" stroke-width="1.5"></path><path d="M65.8 456.0L65.8 494.0L98.7 475.0L98.7 437.0Z" fill="#181818" stroke="#000000" stroke-width="1.5"></path><path d="M131.6 456.0L131.6 494.0L164.5 475.0L164.5 437.0Z" fill="#181818" stroke="#000000" stroke-width="1.5"></path><path d="M197.5 456.0L197.5 494.0L230.4 475.0L230.4 437.0Z" fill="#181818" stroke="#000000" stroke-width="1.5"></path><path d="M263.3 456.0L263.3 494.0L296.2 475.0L296.2 437.0Z" fill="#181818" stroke="#000000" stroke-width="1.5"></path><path d="M329.1 456.0L329.1 494.0L362.0 475.0L362.0 437.0Z" fill="#181818" stroke="#000000" stroke-width="1.5"></path><path d="M394.9 456.0L394.9 494.0L427.8 475.0L427.8 437.0Z" fill="#181818" stroke="#000000" stroke-width="1.5"></path><path d="M460.7 456.0L460.7 494.0L493.6 475.0L493.6 437.0Z" fill="#181818" stroke="#000000" stroke-width="1.5"></path><path d="M526.5 456.0L526.5 494.0L559.5 475.0L559.5 437.0Z" fill="#181818" stroke="#000000" stroke-width="1.5"></path><path d="M592.4 456.0L592.4 494.0L625.3 475.0L625.3 437.0Z" fill="#181818" stroke="#000000" stroke-width="1.5"></path><path d="M658.2 456.0L658.2 494.0L691.1 475.0L691.1 437.0Z" fill="#181818" stroke="#000000" stroke-width="1.5"></path><path d="M32.9 513.0L32.9 551.0L65.8 532.0L65.8 494.0Z" fill="#181818" stroke="#000000" stroke-width="1.5"></path><path d="M98.7 513.0L98.7 551.0L131.6 532.0L131.6 494.0Z" fill="#181818" stroke="#000000" stroke-width="1.5"></path><path d="M164.5 513.0L164.5 551.0L197.5 532.0L197.5 494.0Z" fill="#181818" stroke="#000000" stroke-width="1.5"></path><path d="M230.4 513.0L230.4 551.0L263.3 532.0L263.3 494.0Z" fill="#181818" stroke="#000000" stroke-width="1.5"></path><path d="M296.2 513.0L296.2 551.0L329.1 532.0L329.1 494.0Z" fill="#181818" stroke="#000000" stroke-width="1.5"></path><path d="M362.0 513.0L362.0 551.0L394.9 532.0L394.9 494.0Z" fill="#181818" stroke="#000000" stroke-width="1.5"></path><path d="M427.8 513.0L427.8 551.0L460.7 532.0L460.7 494.0Z" fill="#181818" stroke="#000000" stroke-width="1.5"></path><path d="M493.6 513.0L493.6 551.0L526.5 532.0L526.5 494.0Z" fill="#181818" stroke="#000000" stroke-width="1.5"></path><path d="M559.5 513.0L559.5 551.0L592.4 532.0L592.4 494.0Z" fill="#181818" stroke="#000000" stroke-width="1.5"></path><path d="M625.3 513.0L625.3 551.0L658.2 532.0L658.2 494.0Z" fill="#181818" stroke="#000000" stroke-width="1.5"></path><path d="M691.1 513.0L691.1 551.0L724.0 532.0L724.0 494.0Z" fill="#181818" stroke="#000000" stroke-width="1.5"></path></g><g class="g2"><path d="M0.0 0.0L32.9 -19.0L0.0 -38.0L-32.9 -19.0Z" fill="#292929" stroke="#000000" stroke-width="1.5"></path><path d="M65.8 0.0L98.7 -19.0L65.8 -38.0L32.9 -19.0Z" fill="#292929" stroke="#000000" stroke-width="1.5"></path><path d="M131.6 0.0L164.5 -19.0L131.6 -38.0L98.7 -19.0Z" fill="#292929" stroke="#000000" stroke-width="1.5"></path><path d="M197.5 0.0L230.4 -19.0L197.5 -38.0L164.5 -19.0Z" fill="#292929" stroke="#000000" stroke-width="1.5"></path><path d="M263.3 0.0L296.2 -19.0L263.3 -38.0L230.4 -19.0Z" fill="#292929" stroke="#000000" stroke-width="1.5"></path><path d="M329.1 0.0L362.0 -19.0L329.1 -38.0L296.2 -19.0Z" fill="#292929" stroke="#000000" stroke-width="1.5"></path><path d="M394.9 0.0L427.8 -19.0L394.9 -38.0L362.0 -19.0Z" fill="#292929" stroke="#000000" stroke-width="1.5"></path><path d="M460.7 0.0L493.6 -19.0L460.7 -38.0L427.8 -19.0Z" fill="#292929" stroke="#000000" stroke-width="1.5"></path><path d="M526.5 0.0L559.5 -19.0L526.5 -38.0L493.6 -19.0Z" fill="#292929" stroke="#000000" stroke-width="1.5"></path><path d="M592.4 0.0L625.3 -19.0L592.4 -38.0L559.5 -19.0Z" fill="#292929" stroke="#000000" stroke-width="1.5"></path><path d="M658.2 0.0L691.1 -19.0L658.2 -38.0L625.3 -19.0Z" fill="#292929" stroke="#000000" stroke-width="1.5"></path><path d="M32.9 57.0L65.8 38.0L32.9 19.0L0.0 38.0Z" fill="#292929" stroke="#000000" stroke-width="1.5"></path><path d="M98.7 57.0L131.6 38.0L98.7 19.0L65.8 38.0Z" fill="#292929" stroke="#000000" stroke-width="1.5"></path><path d="M164.5 57.0L197.5 38.0L164.5 19.0L131.6 38.0Z" fill="#292929" stroke="#000000" stroke-width="1.5"></path><path d="M230.4 57.0L263.3 38.0L230.4 19.0L197.5 38.0Z" fill="#292929" stroke="#000000" stroke-width="1.5"></path><path d="M296.2 57.0L329.1 38.0L296.2 19.0L263.3 38.0Z" fill="#292929" stroke="#000000" stroke-width="1.5"></path><path d="M362.0 57.0L394.9 38.0L362.0 19.0L329.1 38.0Z" fill="#292929" stroke="#000000" stroke-width="1.5"></path><path d="M427.8 57.0L460.7 38.0L427.8 19.0L394.9 38.0Z" fill="#292929" stroke="#000000" stroke-width="1.5"></path><path d="M493.6 57.0L526.5 38.0L493.6 19.0L460.7 38.0Z" fill="#292929" stroke="#000000" stroke-width="1.5"></path><path d="M559.5 57.0L592.4 38.0L559.5 19.0L526.5 38.0Z" fill="#292929" stroke="#000000" stroke-width="1.5"></path><path d="M625.3 57.0L658.2 38.0L625.3 19.0L592.4 38.0Z" fill="#292929" stroke="#000000" stroke-width="1.5"></path><path d="M691.1 57.0L724.0 38.0L691.1 19.0L658.2 38.0Z" fill="#292929" stroke="#000000" stroke-width="1.5"></path><path d="M0.0 114.0L32.9 95.0L0.0 76.0L-32.9 95.0Z" fill="#292929" stroke="#000000" stroke-width="1.5"></path><path d="M65.8 114.0L98.7 95.0L65.8 76.0L32.9 95.0Z" fill="#292929" stroke="#000000" stroke-width="1.5"></path><path d="M131.6 114.0L164.5 95.0L131.6 76.0L98.7 95.0Z" fill="#292929" stroke="#000000" stroke-width="1.5"></path><path d="M197.5 114.0L230.4 95.0L197.5 76.0L164.5 95.0Z" fill="#292929" stroke="#000000" stroke-width="1.5"></path><path d="M263.3 114.0L296.2 95.0L263.3 76.0L230.4 95.0Z" fill="#292929" stroke="#000000" stroke-width="1.5"></path><path d="M329.1 114.0L362.0 95.0L329.1 76.0L296.2 95.0Z" fill="#292929" stroke="#000000" stroke-width="1.5"></path><path d="M394.9 114.0L427.8 95.0L394.9 76.0L362.0 95.0Z" fill="#292929" stroke="#000000" stroke-width="1.5"></path><path d="M460.7 114.0L493.6 95.0L460.7 76.0L427.8 95.0Z" fill="#292929" stroke="#000000" stroke-width="1.5"></path><path d="M526.5 114.0L559.5 95.0L526.5 76.0L493.6 95.0Z" fill="#292929" stroke="#000000" stroke-width="1.5"></path><path d="M592.4 114.0L625.3 95.0L592.4 76.0L559.5 95.0Z" fill="#292929" stroke="#000000" stroke-width="1.5"></path><path d="M658.2 114.0L691.1 95.0L658.2 76.0L625.3 95.0Z" fill="#292929" stroke="#000000" stroke-width="1.5"></path><path d="M32.9 171.0L65.8 152.0L32.9 133.0L0.0 152.0Z" fill="#292929" stroke="#000000" stroke-width="1.5"></path><path d="M98.7 171.0L131.6 152.0L98.7 133.0L65.8 152.0Z" fill="#292929" stroke="#000000" stroke-width="1.5"></path><path d="M164.5 171.0L197.5 152.0L164.5 133.0L131.6 152.0Z" fill="#292929" stroke="#000000" stroke-width="1.5"></path><path d="M230.4 171.0L263.3 152.0L230.4 133.0L197.5 152.0Z" fill="#292929" stroke="#000000" stroke-width="1.5"></path><path d="M296.2 171.0L329.1 152.0L296.2 133.0L263.3 152.0Z" fill="#292929" stroke="#000000" stroke-width="1.5"></path><path d="M362.0 171.0L394.9 152.0L362.0 133.0L329.1 152.0Z" fill="#292929" stroke="#000000" stroke-width="1.5"></path><path d="M427.8 171.0L460.7 152.0L427.8 133.0L394.9 152.0Z" fill="#292929" stroke="#000000" stroke-width="1.5"></path><path d="M493.6 171.0L526.5 152.0L493.6 133.0L460.7 152.0Z" fill="#292929" stroke="#000000" stroke-width="1.5"></path><path d="M559.5 171.0L592.4 152.0L559.5 133.0L526.5 152.0Z" fill="#292929" stroke="#000000" stroke-width="1.5"></path><path d="M625.3 171.0L658.2 152.0L625.3 133.0L592.4 152.0Z" fill="#292929" stroke="#000000" stroke-width="1.5"></path><path d="M691.1 171.0L724.0 152.0L691.1 133.0L658.2 152.0Z" fill="#292929" stroke="#000000" stroke-width="1.5"></path><path d="M0.0 228.0L32.9 209.0L0.0 190.0L-32.9 209.0Z" fill="#292929" stroke="#000000" stroke-width="1.5"></path><path d="M65.8 228.0L98.7 209.0L65.8 190.0L32.9 209.0Z" fill="#292929" stroke="#000000" stroke-width="1.5"></path><path d="M131.6 228.0L164.5 209.0L131.6 190.0L98.7 209.0Z" fill="#292929" stroke="#000000" stroke-width="1.5"></path><path d="M197.5 228.0L230.4 209.0L197.5 190.0L164.5 209.0Z" fill="#292929" stroke="#000000" stroke-width="1.5"></path><path d="M263.3 228.0L296.2 209.0L263.3 190.0L230.4 209.0Z" fill="#292929" stroke="#000000" stroke-width="1.5"></path><path d="M329.1 228.0L362.0 209.0L329.1 190.0L296.2 209.0Z" fill="#292929" stroke="#000000" stroke-width="1.5"></path><path d="M394.9 228.0L427.8 209.0L394.9 190.0L362.0 209.0Z" fill="#292929" stroke="#000000" stroke-width="1.5"></path><path d="M460.7 228.0L493.6 209.0L460.7 190.0L427.8 209.0Z" fill="#292929" stroke="#000000" stroke-width="1.5"></path><path d="M526.5 228.0L559.5 209.0L526.5 190.0L493.6 209.0Z" fill="#292929" stroke="#000000" stroke-width="1.5"></path><path d="M592.4 228.0L625.3 209.0L592.4 190.0L559.5 209.0Z" fill="#292929" stroke="#000000" stroke-width="1.5"></path><path d="M658.2 228.0L691.1 209.0L658.2 190.0L625.3 209.0Z" fill="#292929" stroke="#000000" stroke-width="1.5"></path><path d="M32.9 285.0L65.8 266.0L32.9 247.0L0.0 266.0Z" fill="#292929" stroke="#000000" stroke-width="1.5"></path><path d="M98.7 285.0L131.6 266.0L98.7 247.0L65.8 266.0Z" fill="#292929" stroke="#000000" stroke-width="1.5"></path><path d="M164.5 285.0L197.5 266.0L164.5 247.0L131.6 266.0Z" fill="#292929" stroke="#000000" stroke-width="1.5"></path><path d="M230.4 285.0L263.3 266.0L230.4 247.0L197.5 266.0Z" fill="#292929" stroke="#000000" stroke-width="1.5"></path><path d="M296.2 285.0L329.1 266.0L296.2 247.0L263.3 266.0Z" fill="#292929" stroke="#000000" stroke-width="1.5"></path><path d="M362.0 285.0L394.9 266.0L362.0 247.0L329.1 266.0Z" fill="#292929" stroke="#000000" stroke-width="1.5"></path><path d="M427.8 285.0L460.7 266.0L427.8 247.0L394.9 266.0Z" fill="#292929" stroke="#000000" stroke-width="1.5"></path><path d="M493.6 285.0L526.5 266.0L493.6 247.0L460.7 266.0Z" fill="#292929" stroke="#000000" stroke-width="1.5"></path><path d="M559.5 285.0L592.4 266.0L559.5 247.0L526.5 266.0Z" fill="#292929" stroke="#000000" stroke-width="1.5"></path><path d="M625.3 285.0L658.2 266.0L625.3 247.0L592.4 266.0Z" fill="#292929" stroke="#000000" stroke-width="1.5"></path><path d="M691.1 285.0L724.0 266.0L691.1 247.0L658.2 266.0Z" fill="#292929" stroke="#000000" stroke-width="1.5"></path><path d="M0.0 342.0L32.9 323.0L0.0 304.0L-32.9 323.0Z" fill="#292929" stroke="#000000" stroke-width="1.5"></path><path d="M65.8 342.0L98.7 323.0L65.8 304.0L32.9 323.0Z" fill="#292929" stroke="#000000" stroke-width="1.5"></path><path d="M131.6 342.0L164.5 323.0L131.6 304.0L98.7 323.0Z" fill="#292929" stroke="#000000" stroke-width="1.5"></path><path d="M197.5 342.0L230.4 323.0L197.5 304.0L164.5 323.0Z" fill="#292929" stroke="#000000" stroke-width="1.5"></path><path d="M263.3 342.0L296.2 323.0L263.3 304.0L230.4 323.0Z" fill="#292929" stroke="#000000" stroke-width="1.5"></path><path d="M329.1 342.0L362.0 323.0L329.1 304.0L296.2 323.0Z" fill="#292929" stroke="#000000" stroke-width="1.5"></path><path d="M394.9 342.0L427.8 323.0L394.9 304.0L362.0 323.0Z" fill="#292929" stroke="#000000" stroke-width="1.5"></path><path d="M460.7 342.0L493.6 323.0L460.7 304.0L427.8 323.0Z" fill="#292929" stroke="#000000" stroke-width="1.5"></path><path d="M526.5 342.0L559.5 323.0L526.5 304.0L493.6 323.0Z" fill="#292929" stroke="#000000" stroke-width="1.5"></path><path d="M592.4 342.0L625.3 323.0L592.4 304.0L559.5 323.0Z" fill="#292929" stroke="#000000" stroke-width="1.5"></path><path d="M658.2 342.0L691.1 323.0L658.2 304.0L625.3 323.0Z" fill="#292929" stroke="#000000" stroke-width="1.5"></path><path d="M32.9 399.0L65.8 380.0L32.9 361.0L0.0 380.0Z" fill="#292929" stroke="#000000" stroke-width="1.5"></path><path d="M98.7 399.0L131.6 380.0L98.7 361.0L65.8 380.0Z" fill="#292929" stroke="#000000" stroke-width="1.5"></path><path d="M164.5 399.0L197.5 380.0L164.5 361.0L131.6 380.0Z" fill="#292929" stroke="#000000" stroke-width="1.5"></path><path d="M230.4 399.0L263.3 380.0L230.4 361.0L197.5 380.0Z" fill="#292929" stroke="#000000" stroke-width="1.5"></path><path d="M296.2 399.0L329.1 380.0L296.2 361.0L263.3 380.0Z" fill="#292929" stroke="#000000" stroke-width="1.5"></path><path d="M362.0 399.0L394.9 380.0L362.0 361.0L329.1 380.0Z" fill="#292929" stroke="#000000" stroke-width="1.5"></path><path d="M427.8 399.0L460.7 380.0L427.8 361.0L394.9 380.0Z" fill="#292929" stroke="#000000" stroke-width="1.5"></path><path d="M493.6 399.0L526.5 380.0L493.6 361.0L460.7 380.0Z" fill="#292929" stroke="#000000" stroke-width="1.5"></path><path d="M559.5 399.0L592.4 380.0L559.5 361.0L526.5 380.0Z" fill="#292929" stroke="#000000" stroke-width="1.5"></path><path d="M625.3 399.0L658.2 380.0L625.3 361.0L592.4 380.0Z" fill="#292929" stroke="#000000" stroke-width="1.5"></path><path d="M691.1 399.0L724.0 380.0L691.1 361.0L658.2 380.0Z" fill="#292929" stroke="#000000" stroke-width="1.5"></path><path d="M0.0 456.0L32.9 437.0L0.0 418.0L-32.9 437.0Z" fill="#292929" stroke="#000000" stroke-width="1.5"></path><path d="M65.8 456.0L98.7 437.0L65.8 418.0L32.9 437.0Z" fill="#292929" stroke="#000000" stroke-width="1.5"></path><path d="M131.6 456.0L164.5 437.0L131.6 418.0L98.7 437.0Z" fill="#292929" stroke="#000000" stroke-width="1.5"></path><path d="M197.5 456.0L230.4 437.0L197.5 418.0L164.5 437.0Z" fill="#292929" stroke="#000000" stroke-width="1.5"></path><path d="M263.3 456.0L296.2 437.0L263.3 418.0L230.4 437.0Z" fill="#292929" stroke="#000000" stroke-width="1.5"></path><path d="M329.1 456.0L362.0 437.0L329.1 418.0L296.2 437.0Z" fill="#292929" stroke="#000000" stroke-width="1.5"></path><path d="M394.9 456.0L427.8 437.0L394.9 418.0L362.0 437.0Z" fill="#292929" stroke="#000000" stroke-width="1.5"></path><path d="M460.7 456.0L493.6 437.0L460.7 418.0L427.8 437.0Z" fill="#292929" stroke="#000000" stroke-width="1.5"></path><path d="M526.5 456.0L559.5 437.0L526.5 418.0L493.6 437.0Z" fill="#292929" stroke="#000000" stroke-width="1.5"></path><path d="M592.4 456.0L625.3 437.0L592.4 418.0L559.5 437.0Z" fill="#292929" stroke="#000000" stroke-width="1.5"></path><path d="M658.2 456.0L691.1 437.0L658.2 418.0L625.3 437.0Z" fill="#292929" stroke="#000000" stroke-width="1.5"></path><path d="M32.9 513.0L65.8 494.0L32.9 475.0L0.0 494.0Z" fill="#292929" stroke="#000000" stroke-width="1.5"></path><path d="M98.7 513.0L131.6 494.0L98.7 475.0L65.8 494.0Z" fill="#292929" stroke="#000000" stroke-width="1.5"></path><path d="M164.5 513.0L197.5 494.0L164.5 475.0L131.6 494.0Z" fill="#292929" stroke="#000000" stroke-width="1.5"></path><path d="M230.4 513.0L263.3 494.0L230.4 475.0L197.5 494.0Z" fill="#292929" stroke="#000000" stroke-width="1.5"></path><path d="M296.2 513.0L329.1 494.0L296.2 475.0L263.3 494.0Z" fill="#292929" stroke="#000000" stroke-width="1.5"></path><path d="M362.0 513.0L394.9 494.0L362.0 475.0L329.1 494.0Z" fill="#292929" stroke="#000000" stroke-width="1.5"></path><path d="M427.8 513.0L460.7 494.0L427.8 475.0L394.9 494.0Z" fill="#292929" stroke="#000000" stroke-width="1.5"></path><path d="M493.6 513.0L526.5 494.0L493.6 475.0L460.7 494.0Z" fill="#292929" stroke="#000000" stroke-width="1.5"></path><path d="M559.5 513.0L592.4 494.0L559.5 475.0L526.5 494.0Z" fill="#292929" stroke="#000000" stroke-width="1.5"></path><path d="M625.3 513.0L658.2 494.0L625.3 475.0L592.4 494.0Z" fill="#292929" stroke="#000000" stroke-width="1.5"></path><path d="M691.1 513.0L724.0 494.0L691.1 475.0L658.2 494.0Z" fill="#292929" stroke="#000000" stroke-width="1.5"></path></g><g class="g3"><path d="M0.0 0.0L-32.9 -19.0L-32.9 19.0L0.0 38.0Z" fill="#3a3a3a" stroke="#000000" stroke-width="1.5"></path><path d="M65.8 0.0L32.9 -19.0L32.9 19.0L65.8 38.0Z" fill="#3a3a3a" stroke="#000000" stroke-width="1.5"></path><path d="M131.6 0.0L98.7 -19.0L98.7 19.0L131.6 38.0Z" fill="#3a3a3a" stroke="#000000" stroke-width="1.5"></path><path d="M197.5 0.0L164.5 -19.0L164.5 19.0L197.5 38.0Z" fill="#3a3a3a" stroke="#000000" stroke-width="1.5"></path><path d="M263.3 0.0L230.4 -19.0L230.4 19.0L263.3 38.0Z" fill="#3a3a3a" stroke="#000000" stroke-width="1.5"></path><path d="M329.1 0.0L296.2 -19.0L296.2 19.0L329.1 38.0Z" fill="#3a3a3a" stroke="#000000" stroke-width="1.5"></path><path d="M394.9 0.0L362.0 -19.0L362.0 19.0L394.9 38.0Z" fill="#3a3a3a" stroke="#000000" stroke-width="1.5"></path><path d="M460.7 0.0L427.8 -19.0L427.8 19.0L460.7 38.0Z" fill="#3a3a3a" stroke="#000000" stroke-width="1.5"></path><path d="M526.5 0.0L493.6 -19.0L493.6 19.0L526.5 38.0Z" fill="#3a3a3a" stroke="#000000" stroke-width="1.5"></path><path d="M592.4 0.0L559.5 -19.0L559.5 19.0L592.4 38.0Z" fill="#3a3a3a" stroke="#000000" stroke-width="1.5"></path><path d="M658.2 0.0L625.3 -19.0L625.3 19.0L658.2 38.0Z" fill="#3a3a3a" stroke="#000000" stroke-width="1.5"></path><path d="M32.9 57.0L0.0 38.0L0.0 76.0L32.9 95.0Z" fill="#3a3a3a" stroke="#000000" stroke-width="1.5"></path><path d="M98.7 57.0L65.8 38.0L65.8 76.0L98.7 95.0Z" fill="#3a3a3a" stroke="#000000" stroke-width="1.5"></path><path d="M164.5 57.0L131.6 38.0L131.6 76.0L164.5 95.0Z" fill="#3a3a3a" stroke="#000000" stroke-width="1.5"></path><path d="M230.4 57.0L197.5 38.0L197.5 76.0L230.4 95.0Z" fill="#3a3a3a" stroke="#000000" stroke-width="1.5"></path><path d="M296.2 57.0L263.3 38.0L263.3 76.0L296.2 95.0Z" fill="#3a3a3a" stroke="#000000" stroke-width="1.5"></path><path d="M362.0 57.0L329.1 38.0L329.1 76.0L362.0 95.0Z" fill="#3a3a3a" stroke="#000000" stroke-width="1.5"></path><path d="M427.8 57.0L394.9 38.0L394.9 76.0L427.8 95.0Z" fill="#3a3a3a" stroke="#000000" stroke-width="1.5"></path><path d="M493.6 57.0L460.7 38.0L460.7 76.0L493.6 95.0Z" fill="#3a3a3a" stroke="#000000" stroke-width="1.5"></path><path d="M559.5 57.0L526.5 38.0L526.5 76.0L559.5 95.0Z" fill="#3a3a3a" stroke="#000000" stroke-width="1.5"></path><path d="M625.3 57.0L592.4 38.0L592.4 76.0L625.3 95.0Z" fill="#3a3a3a" stroke="#000000" stroke-width="1.5"></path><path d="M691.1 57.0L658.2 38.0L658.2 76.0L691.1 95.0Z" fill="#3a3a3a" stroke="#000000" stroke-width="1.5"></path><path d="M0.0 114.0L-32.9 95.0L-32.9 133.0L0.0 152.0Z" fill="#3a3a3a" stroke="#000000" stroke-width="1.5"></path><path d="M65.8 114.0L32.9 95.0L32.9 133.0L65.8 152.0Z" fill="#3a3a3a" stroke="#000000" stroke-width="1.5"></path><path d="M131.6 114.0L98.7 95.0L98.7 133.0L131.6 152.0Z" fill="#3a3a3a" stroke="#000000" stroke-width="1.5"></path><path d="M197.5 114.0L164.5 95.0L164.5 133.0L197.5 152.0Z" fill="#3a3a3a" stroke="#000000" stroke-width="1.5"></path><path d="M263.3 114.0L230.4 95.0L230.4 133.0L263.3 152.0Z" fill="#3a3a3a" stroke="#000000" stroke-width="1.5"></path><path d="M329.1 114.0L296.2 95.0L296.2 133.0L329.1 152.0Z" fill="#3a3a3a" stroke="#000000" stroke-width="1.5"></path><path d="M394.9 114.0L362.0 95.0L362.0 133.0L394.9 152.0Z" fill="#3a3a3a" stroke="#000000" stroke-width="1.5"></path><path d="M460.7 114.0L427.8 95.0L427.8 133.0L460.7 152.0Z" fill="#3a3a3a" stroke="#000000" stroke-width="1.5"></path><path d="M526.5 114.0L493.6 95.0L493.6 133.0L526.5 152.0Z" fill="#3a3a3a" stroke="#000000" stroke-width="1.5"></path><path d="M592.4 114.0L559.5 95.0L559.5 133.0L592.4 152.0Z" fill="#3a3a3a" stroke="#000000" stroke-width="1.5"></path><path d="M658.2 114.0L625.3 95.0L625.3 133.0L658.2 152.0Z" fill="#3a3a3a" stroke="#000000" stroke-width="1.5"></path><path d="M32.9 171.0L0.0 152.0L0.0 190.0L32.9 209.0Z" fill="#3a3a3a" stroke="#000000" stroke-width="1.5"></path><path d="M98.7 171.0L65.8 152.0L65.8 190.0L98.7 209.0Z" fill="#3a3a3a" stroke="#000000" stroke-width="1.5"></path><path d="M164.5 171.0L131.6 152.0L131.6 190.0L164.5 209.0Z" fill="#3a3a3a" stroke="#000000" stroke-width="1.5"></path><path d="M230.4 171.0L197.5 152.0L197.5 190.0L230.4 209.0Z" fill="#3a3a3a" stroke="#000000" stroke-width="1.5"></path><path d="M296.2 171.0L263.3 152.0L263.3 190.0L296.2 209.0Z" fill="#3a3a3a" stroke="#000000" stroke-width="1.5"></path><path d="M362.0 171.0L329.1 152.0L329.1 190.0L362.0 209.0Z" fill="#3a3a3a" stroke="#000000" stroke-width="1.5"></path><path d="M427.8 171.0L394.9 152.0L394.9 190.0L427.8 209.0Z" fill="#3a3a3a" stroke="#000000" stroke-width="1.5"></path><path d="M493.6 171.0L460.7 152.0L460.7 190.0L493.6 209.0Z" fill="#3a3a3a" stroke="#000000" stroke-width="1.5"></path><path d="M559.5 171.0L526.5 152.0L526.5 190.0L559.5 209.0Z" fill="#3a3a3a" stroke="#000000" stroke-width="1.5"></path><path d="M625.3 171.0L592.4 152.0L592.4 190.0L625.3 209.0Z" fill="#3a3a3a" stroke="#000000" stroke-width="1.5"></path><path d="M691.1 171.0L658.2 152.0L658.2 190.0L691.1 209.0Z" fill="#3a3a3a" stroke="#000000" stroke-width="1.5"></path><path d="M0.0 228.0L-32.9 209.0L-32.9 247.0L0.0 266.0Z" fill="#3a3a3a" stroke="#000000" stroke-width="1.5"></path><path d="M65.8 228.0L32.9 209.0L32.9 247.0L65.8 266.0Z" fill="#3a3a3a" stroke="#000000" stroke-width="1.5"></path><path d="M131.6 228.0L98.7 209.0L98.7 247.0L131.6 266.0Z" fill="#3a3a3a" stroke="#000000" stroke-width="1.5"></path><path d="M197.5 228.0L164.5 209.0L164.5 247.0L197.5 266.0Z" fill="#3a3a3a" stroke="#000000" stroke-width="1.5"></path><path d="M263.3 228.0L230.4 209.0L230.4 247.0L263.3 266.0Z" fill="#3a3a3a" stroke="#000000" stroke-width="1.5"></path><path d="M329.1 228.0L296.2 209.0L296.2 247.0L329.1 266.0Z" fill="#3a3a3a" stroke="#000000" stroke-width="1.5"></path><path d="M394.9 228.0L362.0 209.0L362.0 247.0L394.9 266.0Z" fill="#3a3a3a" stroke="#000000" stroke-width="1.5"></path><path d="M460.7 228.0L427.8 209.0L427.8 247.0L460.7 266.0Z" fill="#3a3a3a" stroke="#000000" stroke-width="1.5"></path><path d="M526.5 228.0L493.6 209.0L493.6 247.0L526.5 266.0Z" fill="#3a3a3a" stroke="#000000" stroke-width="1.5"></path><path d="M592.4 228.0L559.5 209.0L559.5 247.0L592.4 266.0Z" fill="#3a3a3a" stroke="#000000" stroke-width="1.5"></path><path d="M658.2 228.0L625.3 209.0L625.3 247.0L658.2 266.0Z" fill="#3a3a3a" stroke="#000000" stroke-width="1.5"></path><path d="M32.9 285.0L0.0 266.0L0.0 304.0L32.9 323.0Z" fill="#3a3a3a" stroke="#000000" stroke-width="1.5"></path><path d="M98.7 285.0L65.8 266.0L65.8 304.0L98.7 323.0Z" fill="#3a3a3a" stroke="#000000" stroke-width="1.5"></path><path d="M164.5 285.0L131.6 266.0L131.6 304.0L164.5 323.0Z" fill="#3a3a3a" stroke="#000000" stroke-width="1.5"></path><path d="M230.4 285.0L197.5 266.0L197.5 304.0L230.4 323.0Z" fill="#3a3a3a" stroke="#000000" stroke-width="1.5"></path><path d="M296.2 285.0L263.3 266.0L263.3 304.0L296.2 323.0Z" fill="#3a3a3a" stroke="#000000" stroke-width="1.5"></path><path d="M362.0 285.0L329.1 266.0L329.1 304.0L362.0 323.0Z" fill="#3a3a3a" stroke="#000000" stroke-width="1.5"></path><path d="M427.8 285.0L394.9 266.0L394.9 304.0L427.8 323.0Z" fill="#3a3a3a" stroke="#000000" stroke-width="1.5"></path><path d="M493.6 285.0L460.7 266.0L460.7 304.0L493.6 323.0Z" fill="#3a3a3a" stroke="#000000" stroke-width="1.5"></path><path d="M559.5 285.0L526.5 266.0L526.5 304.0L559.5 323.0Z" fill="#3a3a3a" stroke="#000000" stroke-width="1.5"></path><path d="M625.3 285.0L592.4 266.0L592.4 304.0L625.3 323.0Z" fill="#3a3a3a" stroke="#000000" stroke-width="1.5"></path><path d="M691.1 285.0L658.2 266.0L658.2 304.0L691.1 323.0Z" fill="#3a3a3a" stroke="#000000" stroke-width="1.5"></path><path d="M0.0 342.0L-32.9 323.0L-32.9 361.0L0.0 380.0Z" fill="#3a3a3a" stroke="#000000" stroke-width="1.5"></path><path d="M65.8 342.0L32.9 323.0L32.9 361.0L65.8 380.0Z" fill="#3a3a3a" stroke="#000000" stroke-width="1.5"></path><path d="M131.6 342.0L98.7 323.0L98.7 361.0L131.6 380.0Z" fill="#3a3a3a" stroke="#000000" stroke-width="1.5"></path><path d="M197.5 342.0L164.5 323.0L164.5 361.0L197.5 380.0Z" fill="#3a3a3a" stroke="#000000" stroke-width="1.5"></path><path d="M263.3 342.0L230.4 323.0L230.4 361.0L263.3 380.0Z" fill="#3a3a3a" stroke="#000000" stroke-width="1.5"></path><path d="M329.1 342.0L296.2 323.0L296.2 361.0L329.1 380.0Z" fill="#3a3a3a" stroke="#000000" stroke-width="1.5"></path><path d="M394.9 342.0L362.0 323.0L362.0 361.0L394.9 380.0Z" fill="#3a3a3a" stroke="#000000" stroke-width="1.5"></path><path d="M460.7 342.0L427.8 323.0L427.8 361.0L460.7 380.0Z" fill="#3a3a3a" stroke="#000000" stroke-width="1.5"></path><path d="M526.5 342.0L493.6 323.0L493.6 361.0L526.5 380.0Z" fill="#3a3a3a" stroke="#000000" stroke-width="1.5"></path><path d="M592.4 342.0L559.5 323.0L559.5 361.0L592.4 380.0Z" fill="#3a3a3a" stroke="#000000" stroke-width="1.5"></path><path d="M658.2 342.0L625.3 323.0L625.3 361.0L658.2 380.0Z" fill="#3a3a3a" stroke="#000000" stroke-width="1.5"></path><path d="M32.9 399.0L0.0 380.0L0.0 418.0L32.9 437.0Z" fill="#3a3a3a" stroke="#000000" stroke-width="1.5"></path><path d="M98.7 399.0L65.8 380.0L65.8 418.0L98.7 437.0Z" fill="#3a3a3a" stroke="#000000" stroke-width="1.5"></path><path d="M164.5 399.0L131.6 380.0L131.6 418.0L164.5 437.0Z" fill="#3a3a3a" stroke="#000000" stroke-width="1.5"></path><path d="M230.4 399.0L197.5 380.0L197.5 418.0L230.4 437.0Z" fill="#3a3a3a" stroke="#000000" stroke-width="1.5"></path><path d="M296.2 399.0L263.3 380.0L263.3 418.0L296.2 437.0Z" fill="#3a3a3a" stroke="#000000" stroke-width="1.5"></path><path d="M362.0 399.0L329.1 380.0L329.1 418.0L362.0 437.0Z" fill="#3a3a3a" stroke="#000000" stroke-width="1.5"></path><path d="M427.8 399.0L394.9 380.0L394.9 418.0L427.8 437.0Z" fill="#3a3a3a" stroke="#000000" stroke-width="1.5"></path><path d="M493.6 399.0L460.7 380.0L460.7 418.0L493.6 437.0Z" fill="#3a3a3a" stroke="#000000" stroke-width="1.5"></path><path d="M559.5 399.0L526.5 380.0L526.5 418.0L559.5 437.0Z" fill="#3a3a3a" stroke="#000000" stroke-width="1.5"></path><path d="M625.3 399.0L592.4 380.0L592.4 418.0L625.3 437.0Z" fill="#3a3a3a" stroke="#000000" stroke-width="1.5"></path><path d="M691.1 399.0L658.2 380.0L658.2 418.0L691.1 437.0Z" fill="#3a3a3a" stroke="#000000" stroke-width="1.5"></path><path d="M0.0 456.0L-32.9 437.0L-32.9 475.0L0.0 494.0Z" fill="#3a3a3a" stroke="#000000" stroke-width="1.5"></path><path d="M65.8 456.0L32.9 437.0L32.9 475.0L65.8 494.0Z" fill="#3a3a3a" stroke="#000000" stroke-width="1.5"></path><path d="M131.6 456.0L98.7 437.0L98.7 475.0L131.6 494.0Z" fill="#3a3a3a" stroke="#000000" stroke-width="1.5"></path><path d="M197.5 456.0L164.5 437.0L164.5 475.0L197.5 494.0Z" fill="#3a3a3a" stroke="#000000" stroke-width="1.5"></path><path d="M263.3 456.0L230.4 437.0L230.4 475.0L263.3 494.0Z" fill="#3a3a3a" stroke="#000000" stroke-width="1.5"></path><path d="M329.1 456.0L296.2 437.0L296.2 475.0L329.1 494.0Z" fill="#3a3a3a" stroke="#000000" stroke-width="1.5"></path><path d="M394.9 456.0L362.0 437.0L362.0 475.0L394.9 494.0Z" fill="#3a3a3a" stroke="#000000" stroke-width="1.5"></path><path d="M460.7 456.0L427.8 437.0L427.8 475.0L460.7 494.0Z" fill="#3a3a3a" stroke="#000000" stroke-width="1.5"></path><path d="M526.5 456.0L493.6 437.0L493.6 475.0L526.5 494.0Z" fill="#3a3a3a" stroke="#000000" stroke-width="1.5"></path><path d="M592.4 456.0L559.5 437.0L559.5 475.0L592.4 494.0Z" fill="#3a3a3a" stroke="#000000" stroke-width="1.5"></path><path d="M658.2 456.0L625.3 437.0L625.3 475.0L658.2 494.0Z" fill="#3a3a3a" stroke="#000000" stroke-width="1.5"></path><path d="M32.9 513.0L0.0 494.0L0.0 532.0L32.9 551.0Z" fill="#3a3a3a" stroke="#000000" stroke-width="1.5"></path><path d="M98.7 513.0L65.8 494.0L65.8 532.0L98.7 551.0Z" fill="#3a3a3a" stroke="#000000" stroke-width="1.5"></path><path d="M164.5 513.0L131.6 494.0L131.6 532.0L164.5 551.0Z" fill="#3a3a3a" stroke="#000000" stroke-width="1.5"></path><path d="M230.4 513.0L197.5 494.0L197.5 532.0L230.4 551.0Z" fill="#3a3a3a" stroke="#000000" stroke-width="1.5"></path><path d="M296.2 513.0L263.3 494.0L263.3 532.0L296.2 551.0Z" fill="#3a3a3a" stroke="#000000" stroke-width="1.5"></path><path d="M362.0 513.0L329.1 494.0L329.1 532.0L362.0 551.0Z" fill="#3a3a3a" stroke="#000000" stroke-width="1.5"></path><path d="M427.8 513.0L394.9 494.0L394.9 532.0L427.8 551.0Z" fill="#3a3a3a" stroke="#000000" stroke-width="1.5"></path><path d="M493.6 513.0L460.7 494.0L460.7 532.0L493.6 551.0Z" fill="#3a3a3a" stroke="#000000" stroke-width="1.5"></path><path d="M559.5 513.0L526.5 494.0L526.5 532.0L559.5 551.0Z" fill="#3a3a3a" stroke="#000000" stroke-width="1.5"></path><path d="M625.3 513.0L592.4 494.0L592.4 532.0L625.3 551.0Z" fill="#3a3a3a" stroke="#000000" stroke-width="1.5"></path><path d="M691.1 513.0L658.2 494.0L658.2 532.0L691.1 551.0Z" fill="#3a3a3a" stroke="#000000" stroke-width="1.5"></path></g></g><g></g></g><!-- [ldio] generated by https://loading.io --></svg>