<svg xmlns="http://www.w3.org/2000/svg" viewBox="0 0 500 350" preserveAspectRatio="xMidYMid" width="500" height="350" style="shape-rendering: auto; display: block; " xmlns:xlink="http://www.w3.org/1999/xlink"><g><defs><g id="id-0" transform="scale(0.490) translate(-50,-50)"><path d="M0 0M100 0A100 100 0 0 1 0 100L0 0" fill="#0d538d"></path></g><g id="id-1" transform="scale(0.490) translate(-50,-50)"><path d="M0 0M100 0A100 100 0 0 1 0 100L0 0" fill="#f2cf64"></path></g><g id="id-2" transform="scale(0.490) translate(-50,-50)"><path d="M0 0M100 0A100 100 0 0 1 0 100L0 0" fill="#f25140"></path></g><g id="id-3" transform="scale(0.490) translate(-50,-50)"><path d="M0 0M100 0A100 100 0 0 1 0 100L0 0" fill="#1d1d1b"></path></g></defs><use href="#id-1" transform="translate(0,0) rotate(0)"></use><use href="#id-1" transform="translate(50,0) rotate(90)"></use><g transform="translate(100,0)"><g>
<use href="#id-0" transform="rotate(270)"></use>
<animateTransform attributeName="transform" type="translate" keyTimes="0;0.25;0.5;0.75;1" keySplines="0.5 0 0.5 1;0.5 0 0.5 1;0.5 0 0.5 1;0.5 0 0.5 1" calcMode="spline" values="0 0;0 50;0 50;0 0;0 0" dur="10s" repeatCount="indefinite"></animateTransform>
</g></g><use href="#id-1" transform="translate(150,0) rotate(270)"></use><use href="#id-0" transform="translate(200,0) rotate(180)"></use><use href="#id-0" transform="translate(250,0) rotate(180)"></use><use href="#id-1" transform="translate(300,0) rotate(180)"></use><use href="#id-1" transform="translate(350,0) rotate(180)"></use><use href="#id-1" transform="translate(400,0) rotate(270)"></use><use href="#id-1" transform="translate(450,0) rotate(90)"></use><use href="#id-0" transform="translate(500,0) rotate(180)"></use><use href="#id-0" transform="translate(0,50) rotate(90)"></use><use href="#id-2" transform="translate(50,50) rotate(0)"></use><use href="#id-2" transform="translate(150,50) rotate(0)"></use><use href="#id-3" transform="translate(200,50) rotate(180)"></use><use href="#id-3" transform="translate(250,50) rotate(180)"></use><use href="#id-2" transform="translate(300,50) rotate(180)"></use><use href="#id-1" transform="translate(350,50) rotate(90)"></use><use href="#id-0" transform="translate(400,50) rotate(180)"></use><use href="#id-2" transform="translate(450,50) rotate(90)"></use><use href="#id-0" transform="translate(500,50) rotate(180)"></use><g transform="translate(0,100)"><g>
<use href="#id-2" transform="rotate(0)"></use>
<animateTransform attributeName="transform" type="translate" keyTimes="0;0.25;0.5;0.75;1" keySplines="0.5 0 0.5 1;0.5 0 0.5 1;0.5 0 0.5 1;0.5 0 0.5 1" calcMode="spline" values="0 0;50 0;50 0;0 0;0 0" dur="10s" repeatCount="indefinite"></animateTransform>
</g></g><g transform="translate(100,100)"><g>
<use href="#id-0" transform="rotate(180)"></use>
<animateTransform attributeName="transform" type="translate" keyTimes="0;0.25;0.5;0.75;1" keySplines="0.5 0 0.5 1;0.5 0 0.5 1;0.5 0 0.5 1;0.5 0 0.5 1" calcMode="spline" values="0 0;50 0;50 0;0 0;0 0" dur="10s" repeatCount="indefinite"></animateTransform>
</g></g><g transform="translate(150,100)"><g>
<use href="#id-2" transform="rotate(90)"></use>
<animateTransform attributeName="transform" type="translate" keyTimes="0;0.25;0.5;0.75;1" keySplines="0.5 0 0.5 1;0.5 0 0.5 1;0.5 0 0.5 1;0.5 0 0.5 1" calcMode="spline" values="0 0;50 0;50 0;0 0;0 0" dur="10s" repeatCount="indefinite"></animateTransform>
</g></g><g transform="translate(200,100)"><g>
<use href="#id-1" transform="rotate(0)"></use>
<animateTransform attributeName="transform" type="translate" keyTimes="0;0.25;0.5;0.75;1" keySplines="0.5 0 0.5 1;0.5 0 0.5 1;0.5 0 0.5 1;0.5 0 0.5 1" calcMode="spline" values="0 0;50 0;50 0;0 0;0 0" dur="10s" repeatCount="indefinite"></animateTransform>
</g></g><g transform="translate(250,100)"><g>
<use href="#id-0" transform="rotate(180)"></use>
<animateTransform attributeName="transform" type="translate" keyTimes="0;0.25;0.5;0.75;1" keySplines="0.5 0 0.5 1;0.5 0 0.5 1;0.5 0 0.5 1;0.5 0 0.5 1" calcMode="spline" values="0 0;50 0;50 0;0 0;0 0" dur="10s" repeatCount="indefinite"></animateTransform>
</g></g><g transform="translate(300,100)"><g>
<use href="#id-3" transform="rotate(270)"></use>
<animateTransform attributeName="transform" type="translate" keyTimes="0;0.25;0.5;0.75;1" keySplines="0.5 0 0.5 1;0.5 0 0.5 1;0.5 0 0.5 1;0.5 0 0.5 1" calcMode="spline" values="0 0;50 0;50 0;0 0;0 0" dur="10s" repeatCount="indefinite"></animateTransform>
</g></g><g transform="translate(350,100)"><g>
<use href="#id-1" transform="rotate(90)"></use>
<animateTransform attributeName="transform" type="translate" keyTimes="0;0.25;0.5;0.75;1" keySplines="0.5 0 0.5 1;0.5 0 0.5 1;0.5 0 0.5 1;0.5 0 0.5 1" calcMode="spline" values="0 0;50 0;50 0;0 0;0 0" dur="10s" repeatCount="indefinite"></animateTransform>
</g></g><g transform="translate(400,100)"><g>
<use href="#id-3" transform="rotate(90)"></use>
<animateTransform attributeName="transform" type="translate" keyTimes="0;0.25;0.5;0.75;1" keySplines="0.5 0 0.5 1;0.5 0 0.5 1;0.5 0 0.5 1;0.5 0 0.5 1" calcMode="spline" values="0 0;50 0;50 0;0 0;0 0" dur="10s" repeatCount="indefinite"></animateTransform>
</g></g><g transform="translate(450,100)"><g>
<use href="#id-0" transform="rotate(270)"></use>
<animateTransform attributeName="transform" type="translate" keyTimes="0;0.25;0.5;0.75;1" keySplines="0.5 0 0.5 1;0.5 0 0.5 1;0.5 0 0.5 1;0.5 0 0.5 1" calcMode="spline" values="0 0;50 0;50 0;0 0;0 0" dur="10s" repeatCount="indefinite"></animateTransform>
</g></g><g transform="translate(500,100)"><g>
<use href="#id-3" transform="rotate(90)"></use>
<animateTransform attributeName="transform" type="translate" keyTimes="0;0.25;0.5;0.75;1" keySplines="0.5 0 0.5 1;0.5 0 0.5 1;0.5 0 0.5 1;0.5 0 0.5 1" calcMode="spline" values="0 0;50 0;50 0;0 0;0 0" dur="10s" repeatCount="indefinite"></animateTransform>
</g></g><use href="#id-0" transform="translate(0,150) rotate(180)"></use><use href="#id-1" transform="translate(50,150) rotate(90)"></use><g transform="translate(100,150)"><g>
<use href="#id-1" transform="rotate(180)"></use>
<animateTransform attributeName="transform" type="translate" keyTimes="0;0.25;0.5;0.75;1" keySplines="0.5 0 0.5 1;0.5 0 0.5 1;0.5 0 0.5 1;0.5 0 0.5 1" calcMode="spline" values="0 0;0 50;0 50;0 0;0 0" dur="10s" repeatCount="indefinite"></animateTransform>
</g></g><use href="#id-3" transform="translate(150,150) rotate(270)"></use><use href="#id-1" transform="translate(200,150) rotate(0)"></use><use href="#id-2" transform="translate(250,150) rotate(180)"></use><use href="#id-1" transform="translate(300,150) rotate(180)"></use><use href="#id-1" transform="translate(350,150) rotate(180)"></use><use href="#id-1" transform="translate(400,150) rotate(180)"></use><use href="#id-2" transform="translate(450,150) rotate(270)"></use><use href="#id-0" transform="translate(500,150) rotate(90)"></use><use href="#id-1" transform="translate(0,200) rotate(0)"></use><use href="#id-0" transform="translate(50,200) rotate(0)"></use><g transform="translate(100,200)"><g>
<use href="#id-0" transform="rotate(90)"></use>
<animateTransform attributeName="transform" type="translate" keyTimes="0;0.25;0.5;0.75;1" keySplines="0.5 0 0.5 1;0.5 0 0.5 1;0.5 0 0.5 1;0.5 0 0.5 1" calcMode="spline" values="0 0;0 50;0 50;0 0;0 0" dur="10s" repeatCount="indefinite"></animateTransform>
</g></g><use href="#id-0" transform="translate(150,200) rotate(90)"></use><use href="#id-2" transform="translate(200,200) rotate(270)"></use><use href="#id-1" transform="translate(250,200) rotate(0)"></use><use href="#id-0" transform="translate(300,200) rotate(180)"></use><use href="#id-0" transform="translate(350,200) rotate(90)"></use><use href="#id-2" transform="translate(400,200) rotate(270)"></use><use href="#id-2" transform="translate(450,200) rotate(0)"></use><use href="#id-3" transform="translate(500,200) rotate(180)"></use><use href="#id-2" transform="translate(0,250) rotate(180)"></use><use href="#id-1" transform="translate(50,250) rotate(270)"></use><g transform="translate(100,250)"><g>
<use href="#id-3" transform="rotate(270)"></use>
<animateTransform attributeName="transform" type="translate" keyTimes="0;0.25;0.5;0.75;1" keySplines="0.5 0 0.5 1;0.5 0 0.5 1;0.5 0 0.5 1;0.5 0 0.5 1" calcMode="spline" values="0 0;0 50;0 50;0 0;0 0" dur="10s" repeatCount="indefinite"></animateTransform>
</g></g><use href="#id-3" transform="translate(150,250) rotate(0)"></use><use href="#id-2" transform="translate(200,250) rotate(90)"></use><use href="#id-0" transform="translate(250,250) rotate(180)"></use><use href="#id-3" transform="translate(300,250) rotate(0)"></use><use href="#id-3" transform="translate(350,250) rotate(90)"></use><use href="#id-0" transform="translate(400,250) rotate(180)"></use><use href="#id-3" transform="translate(450,250) rotate(180)"></use><use href="#id-3" transform="translate(500,250) rotate(90)"></use><use href="#id-1" transform="translate(0,300) rotate(180)"></use><use href="#id-1" transform="translate(50,300) rotate(180)"></use><g transform="translate(100,300)"><g>
<use href="#id-1" transform="rotate(0)"></use>
<animateTransform attributeName="transform" type="translate" keyTimes="0;0.25;0.5;0.75;1" keySplines="0.5 0 0.5 1;0.5 0 0.5 1;0.5 0 0.5 1;0.5 0 0.5 1" calcMode="spline" values="0 0;0 50;0 50;0 0;0 0" dur="10s" repeatCount="indefinite"></animateTransform>
</g></g><use href="#id-3" transform="translate(150,300) rotate(180)"></use><use href="#id-2" transform="translate(200,300) rotate(0)"></use><use href="#id-2" transform="translate(250,300) rotate(270)"></use><use href="#id-0" transform="translate(300,300) rotate(180)"></use><use href="#id-1" transform="translate(350,300) rotate(270)"></use><use href="#id-3" transform="translate(400,300) rotate(270)"></use><use href="#id-0" transform="translate(450,300) rotate(180)"></use><use href="#id-0" transform="translate(500,300) rotate(0)"></use><use href="#id-1" transform="translate(0,350) rotate(270)"></use><use href="#id-2" transform="translate(50,350) rotate(270)"></use><g transform="translate(100,350)"><g>
<use href="#id-0" transform="rotate(270)"></use>
<animateTransform attributeName="transform" type="translate" keyTimes="0;0.25;0.5;0.75;1" keySplines="0.5 0 0.5 1;0.5 0 0.5 1;0.5 0 0.5 1;0.5 0 0.5 1" calcMode="spline" values="0 0;0 50;0 50;0 0;0 0" dur="10s" repeatCount="indefinite"></animateTransform>
</g></g><use href="#id-3" transform="translate(150,350) rotate(0)"></use><use href="#id-2" transform="translate(200,350) rotate(90)"></use><use href="#id-2" transform="translate(250,350) rotate(180)"></use><use href="#id-0" transform="translate(300,350) rotate(90)"></use><use href="#id-3" transform="translate(350,350) rotate(90)"></use><use href="#id-2" transform="translate(400,350) rotate(180)"></use><use href="#id-1" transform="translate(450,350) rotate(180)"></use><use href="#id-3" transform="translate(500,350) rotate(270)"></use><g></g></g><!-- [ldio] generated by https://loading.io --></svg>