<svg xmlns="http://www.w3.org/2000/svg" viewBox="0 0 800 500" preserveAspectRatio="xMidYMid" width="800" height="500" style="shape-rendering: auto; display: block;" xmlns:xlink="http://www.w3.org/1999/xlink"><g><g><animateTransform attributeName="transform" type="translate" dur="5s" repeatCount="indefinite" calcMode="spline" keySplines="0.5 0 0.5 1;0.5 0 0.5 1" values="-12.5 0;12.50 ;-12.5 0" keyTimes="0;0.5;1"></animateTransform><rect x="-100" y="400" width="100" height="50" fill="#181818" stroke="#000000" stroke-width="2.5"></rect><rect x="-50" y="450" width="100" height="50" fill="#292929" stroke="#000000" stroke-width="2.5"></rect><rect x="-100" y="200" width="100" height="50" fill="#292929" stroke="#000000" stroke-width="2.5"></rect><rect x="-50" y="250" width="100" height="50" fill="#3a3a3a" stroke="#000000" stroke-width="2.5"></rect><rect x="-50" y="300" width="50" height="100" fill="#292929" stroke="#000000" stroke-width="2.5"></rect><rect x="0" y="300" width="100" height="50" fill="#4b4b4b" stroke="#000000" stroke-width="2.5"></rect><rect x="0" y="350" width="50" height="100" fill="#3a3a3a" stroke="#000000" stroke-width="2.5"></rect><rect x="50" y="350" width="100" height="50" fill="#181818" stroke="#000000" stroke-width="2.5"></rect><rect x="50" y="400" width="50" height="100" fill="#4b4b4b" stroke="#000000" stroke-width="2.5"></rect><rect x="100" y="400" width="100" height="50" fill="#292929" stroke="#000000" stroke-width="2.5"></rect><rect x="100" y="450" width="50" height="100" fill="#181818" stroke="#000000" stroke-width="2.5"></rect><rect x="150" y="450" width="100" height="50" fill="#3a3a3a" stroke="#000000" stroke-width="2.5"></rect><rect x="-100" y="0" width="100" height="50" fill="#3a3a3a" stroke="#000000" stroke-width="2.5"></rect><rect x="-50" y="50" width="100" height="50" fill="#4b4b4b" stroke="#000000" stroke-width="2.5"></rect><rect x="-50" y="100" width="50" height="100" fill="#3a3a3a" stroke="#000000" stroke-width="2.5"></rect><rect x="0" y="100" width="100" height="50" fill="#181818" stroke="#000000" stroke-width="2.5"></rect><rect x="0" y="150" width="50" height="100" fill="#4b4b4b" stroke="#000000" stroke-width="2.5"></rect><rect x="50" y="150" width="100" height="50" fill="#292929" stroke="#000000" stroke-width="2.5"></rect><rect x="50" y="200" width="50" height="100" fill="#181818" stroke="#000000" stroke-width="2.5"></rect><rect x="100" y="200" width="100" height="50" fill="#3a3a3a" stroke="#000000" stroke-width="2.5"></rect><rect x="100" y="250" width="50" height="100" fill="#292929" stroke="#000000" stroke-width="2.5"></rect><rect x="150" y="250" width="100" height="50" fill="#4b4b4b" stroke="#000000" stroke-width="2.5"></rect><rect x="150" y="300" width="50" height="100" fill="#3a3a3a" stroke="#000000" stroke-width="2.5"></rect><rect x="200" y="300" width="100" height="50" fill="#181818" stroke="#000000" stroke-width="2.5"></rect><rect x="200" y="350" width="50" height="100" fill="#4b4b4b" stroke="#000000" stroke-width="2.5"></rect><rect x="250" y="350" width="100" height="50" fill="#292929" stroke="#000000" stroke-width="2.5"></rect><rect x="250" y="400" width="50" height="100" fill="#181818" stroke="#000000" stroke-width="2.5"></rect><rect x="300" y="400" width="100" height="50" fill="#3a3a3a" stroke="#000000" stroke-width="2.5"></rect><rect x="300" y="450" width="50" height="100" fill="#292929" stroke="#000000" stroke-width="2.5"></rect><rect x="350" y="450" width="100" height="50" fill="#4b4b4b" stroke="#000000" stroke-width="2.5"></rect><rect x="0" y="-50" width="50" height="100" fill="#181818" stroke="#000000" stroke-width="2.5"></rect><rect x="50" y="0" width="50" height="100" fill="#292929" stroke="#000000" stroke-width="2.5"></rect><rect x="100" y="0" width="100" height="50" fill="#4b4b4b" stroke="#000000" stroke-width="2.5"></rect><rect x="100" y="50" width="50" height="100" fill="#3a3a3a" stroke="#000000" stroke-width="2.5"></rect><rect x="150" y="50" width="100" height="50" fill="#181818" stroke="#000000" stroke-width="2.5"></rect><rect x="150" y="100" width="50" height="100" fill="#4b4b4b" stroke="#000000" stroke-width="2.5"></rect><rect x="200" y="100" width="100" height="50" fill="#292929" stroke="#000000" stroke-width="2.5"></rect><rect x="200" y="150" width="50" height="100" fill="#181818" stroke="#000000" stroke-width="2.5"></rect><rect x="250" y="150" width="100" height="50" fill="#3a3a3a" stroke="#000000" stroke-width="2.5"></rect><rect x="250" y="200" width="50" height="100" fill="#292929" stroke="#000000" stroke-width="2.5"></rect><rect x="300" y="200" width="100" height="50" fill="#4b4b4b" stroke="#000000" stroke-width="2.5"></rect><rect x="300" y="250" width="50" height="100" fill="#3a3a3a" stroke="#000000" stroke-width="2.5"></rect><rect x="350" y="250" width="100" height="50" fill="#181818" stroke="#000000" stroke-width="2.5"></rect><rect x="350" y="300" width="50" height="100" fill="#4b4b4b" stroke="#000000" stroke-width="2.5"></rect><rect x="400" y="300" width="100" height="50" fill="#292929" stroke="#000000" stroke-width="2.5"></rect><rect x="400" y="350" width="50" height="100" fill="#181818" stroke="#000000" stroke-width="2.5"></rect><rect x="450" y="350" width="100" height="50" fill="#3a3a3a" stroke="#000000" stroke-width="2.5"></rect><rect x="450" y="400" width="50" height="100" fill="#292929" stroke="#000000" stroke-width="2.5"></rect><rect x="500" y="400" width="100" height="50" fill="#4b4b4b" stroke="#000000" stroke-width="2.5"></rect><rect x="500" y="450" width="50" height="100" fill="#3a3a3a" stroke="#000000" stroke-width="2.5"></rect><rect x="550" y="450" width="100" height="50" fill="#181818" stroke="#000000" stroke-width="2.5"></rect><rect x="200" y="-50" width="50" height="100" fill="#292929" stroke="#000000" stroke-width="2.5"></rect><rect x="250" y="0" width="50" height="100" fill="#3a3a3a" stroke="#000000" stroke-width="2.5"></rect><rect x="300" y="0" width="100" height="50" fill="#181818" stroke="#000000" stroke-width="2.5"></rect><rect x="300" y="50" width="50" height="100" fill="#4b4b4b" stroke="#000000" stroke-width="2.5"></rect><rect x="350" y="50" width="100" height="50" fill="#292929" stroke="#000000" stroke-width="2.5"></rect><rect x="350" y="100" width="50" height="100" fill="#181818" stroke="#000000" stroke-width="2.5"></rect><rect x="400" y="100" width="100" height="50" fill="#3a3a3a" stroke="#000000" stroke-width="2.5"></rect><rect x="400" y="150" width="50" height="100" fill="#292929" stroke="#000000" stroke-width="2.5"></rect><rect x="450" y="150" width="100" height="50" fill="#4b4b4b" stroke="#000000" stroke-width="2.5"></rect><rect x="450" y="200" width="50" height="100" fill="#3a3a3a" stroke="#000000" stroke-width="2.5"></rect><rect x="500" y="200" width="100" height="50" fill="#181818" stroke="#000000" stroke-width="2.5"></rect><rect x="500" y="250" width="50" height="100" fill="#4b4b4b" stroke="#000000" stroke-width="2.5"></rect><rect x="550" y="250" width="100" height="50" fill="#292929" stroke="#000000" stroke-width="2.5"></rect><rect x="550" y="300" width="50" height="100" fill="#181818" stroke="#000000" stroke-width="2.5"></rect><rect x="600" y="300" width="100" height="50" fill="#3a3a3a" stroke="#000000" stroke-width="2.5"></rect><rect x="600" y="350" width="50" height="100" fill="#292929" stroke="#000000" stroke-width="2.5"></rect><rect x="650" y="350" width="100" height="50" fill="#4b4b4b" stroke="#000000" stroke-width="2.5"></rect><rect x="650" y="400" width="50" height="100" fill="#3a3a3a" stroke="#000000" stroke-width="2.5"></rect><rect x="700" y="400" width="100" height="50" fill="#181818" stroke="#000000" stroke-width="2.5"></rect><rect x="700" y="450" width="50" height="100" fill="#4b4b4b" stroke="#000000" stroke-width="2.5"></rect><rect x="750" y="450" width="100" height="50" fill="#292929" stroke="#000000" stroke-width="2.5"></rect><rect x="400" y="-50" width="50" height="100" fill="#3a3a3a" stroke="#000000" stroke-width="2.5"></rect><rect x="450" y="0" width="50" height="100" fill="#4b4b4b" stroke="#000000" stroke-width="2.5"></rect><rect x="500" y="0" width="100" height="50" fill="#292929" stroke="#000000" stroke-width="2.5"></rect><rect x="500" y="50" width="50" height="100" fill="#181818" stroke="#000000" stroke-width="2.5"></rect><rect x="550" y="50" width="100" height="50" fill="#3a3a3a" stroke="#000000" stroke-width="2.5"></rect><rect x="550" y="100" width="50" height="100" fill="#292929" stroke="#000000" stroke-width="2.5"></rect><rect x="600" y="100" width="100" height="50" fill="#4b4b4b" stroke="#000000" stroke-width="2.5"></rect><rect x="600" y="150" width="50" height="100" fill="#3a3a3a" stroke="#000000" stroke-width="2.5"></rect><rect x="650" y="150" width="100" height="50" fill="#181818" stroke="#000000" stroke-width="2.5"></rect><rect x="650" y="200" width="50" height="100" fill="#4b4b4b" stroke="#000000" stroke-width="2.5"></rect><rect x="700" y="200" width="100" height="50" fill="#292929" stroke="#000000" stroke-width="2.5"></rect><rect x="700" y="250" width="50" height="100" fill="#181818" stroke="#000000" stroke-width="2.5"></rect><rect x="750" y="250" width="100" height="50" fill="#3a3a3a" stroke="#000000" stroke-width="2.5"></rect><rect x="750" y="300" width="50" height="100" fill="#292929" stroke="#000000" stroke-width="2.5"></rect><rect x="800" y="300" width="100" height="50" fill="#4b4b4b" stroke="#000000" stroke-width="2.5"></rect><rect x="800" y="350" width="50" height="100" fill="#3a3a3a" stroke="#000000" stroke-width="2.5"></rect><rect x="600" y="-50" width="50" height="100" fill="#4b4b4b" stroke="#000000" stroke-width="2.5"></rect><rect x="650" y="0" width="50" height="100" fill="#181818" stroke="#000000" stroke-width="2.5"></rect><rect x="700" y="0" width="100" height="50" fill="#3a3a3a" stroke="#000000" stroke-width="2.5"></rect><rect x="700" y="50" width="50" height="100" fill="#292929" stroke="#000000" stroke-width="2.5"></rect><rect x="750" y="50" width="100" height="50" fill="#4b4b4b" stroke="#000000" stroke-width="2.5"></rect><rect x="750" y="100" width="50" height="100" fill="#3a3a3a" stroke="#000000" stroke-width="2.5"></rect><rect x="800" y="100" width="100" height="50" fill="#181818" stroke="#000000" stroke-width="2.5"></rect><rect x="800" y="150" width="50" height="100" fill="#4b4b4b" stroke="#000000" stroke-width="2.5"></rect><rect x="800" y="-50" width="50" height="100" fill="#181818" stroke="#000000" stroke-width="2.5"></rect></g><g></g></g><!-- [ldio] generated by https://loading.io --></svg>