<svg xmlns="http://www.w3.org/2000/svg" viewBox="0 0 800 600" preserveAspectRatio="xMidYMid" width="800" height="600" style="shape-rendering: auto; display: block; " xmlns:xlink="http://www.w3.org/1999/xlink"><g><g transform="translate(400 300)"><g><path d="M0 0L600 0 L563.815572471545 205.21208599540122 Z" fill="#ffb700"></path><path d="M0 0L459.6266658713868 385.67256581192356 L300.00000000000006 519.6152422706632 Z" fill="#ffb700"></path><path d="M0 0L104.18890660015825 590.8846518073248 L-104.18890660015818 590.8846518073248 Z" fill="#ffb700"></path><path d="M0 0L-299.9999999999999 519.6152422706632 L-459.62666587138676 385.6725658119237 Z" fill="#ffb700"></path><path d="M0 0L-563.815572471545 205.21208599540134 L-600 7.347880794884119e-14 Z" fill="#ffb700"></path><path d="M0 0L-563.815572471545 -205.2120859954012 L-459.626665871387 -385.67256581192333 Z" fill="#ffb700"></path><path d="M0 0L-300.0000000000003 -519.615242270663 L-104.1889066001582 -590.8846518073248 Z" fill="#ffb700"></path><path d="M0 0L104.18890660015798 -590.8846518073249 L299.9999999999996 -519.6152422706634 Z" fill="#ffb700"></path><path d="M0 0L459.62666587138665 -385.67256581192373 L563.815572471545 -205.21208599540117 Z" fill="#ffb700"></path><path d="M58.5 0A22.462387473167023 22.462387473167023 0 0 0 44.81359992246021 37.60307516666255A22.462387473167023 22.462387473167023 0 0 0 10.15841839351543 57.61125355121417A22.462387473167023 22.462387473167023 0 0 0 -29.249999999999986 50.66248612138966A22.462387473167023 22.462387473167023 0 0 0 -54.97201831597564 20.00817838455163A22.462387473167023 22.462387473167023 0 0 0 -54.972018315975646 -20.008178384551616A22.462387473167023 22.462387473167023 0 0 0 -29.250000000000025 -50.66248612138965A22.462387473167023 22.462387473167023 0 0 0 10.158418393515403 -57.611253551214176A22.462387473167023 22.462387473167023 0 0 0 44.8135999224602 -37.60307516666256A22.462387473167023 22.462387473167023 0 0 0 58.5 -1.432836755002403e-14" fill="#ffcd4c" stroke="#ffb700" stroke-linejoin="round" stroke-linecap="round" stroke-width="0"></path><animateTransform attributeName="transform" type="rotate" values="0 0 0;80 0 0" keyTimes="0;1" dur="2s" repeatCount="indefinite"></animateTransform>
</g>
</g><g></g></g><style type="text/css"></style><!-- [ldio] generated by https://loading.io --></svg>