<svg xmlns="http://www.w3.org/2000/svg" viewBox="0 0 500 350" preserveAspectRatio="xMidYMid" width="500" height="350" style="shape-rendering: auto; display: block; " xmlns:xlink="http://www.w3.org/1999/xlink"><g><defs>
  <radialGradient id="lgbk-oersv4ab58c">
  <stop offset="0.28" stop-color="#ffffff" stop-opacity="1"></stop>
  <stop offset="1" stop-color="#ffffff" stop-opacity="0"></stop>
  </radialGradient>
</defs><g transform="translate(250 175)"><g><path d="M0 0L375 0 L370.38312772317664 58.66292439008657 Z" fill="#00ddff"></path><path d="M0 0L356.6461936106826 115.88137289060528 L334.12744657063797 170.24643740233003 Z" fill="#00ddff"></path><path d="M0 0L303.3813728906053 220.41946960967744 L265.16504294495536 265.1650429449553 Z" fill="#00ddff"></path><path d="M0 0L220.41946960967744 303.3813728906053 L170.24643740233006 334.1274465706379 Z" fill="#00ddff"></path><path d="M0 0L115.88137289060529 356.6461936106826 L58.662924390086594 370.38312772317664 Z" fill="#00ddff"></path><path d="M0 0L2.2962127484012872e-14 375 L-58.662924390086474 370.38312772317664 Z" fill="#00ddff"></path><path d="M0 0L-115.88137289060525 356.64619361068264 L-170.24643740233 334.12744657063797 Z" fill="#00ddff"></path><path d="M0 0L-220.41946960967738 303.3813728906053 L-265.1650429449553 265.16504294495536 Z" fill="#00ddff"></path><path d="M0 0L-303.38137289060523 220.41946960967746 L-334.1274465706379 170.24643740233006 Z" fill="#00ddff"></path><path d="M0 0L-356.6461936106826 115.88137289060532 L-370.38312772317664 58.662924390086616 Z" fill="#00ddff"></path><path d="M0 0L-375 4.5924254968025744e-14 L-370.38312772317664 -58.66292439008652 Z" fill="#00ddff"></path><path d="M0 0L-356.64619361068264 -115.88137289060509 L-334.12744657063797 -170.24643740233 Z" fill="#00ddff"></path><path d="M0 0L-303.38137289060535 -220.41946960967738 L-265.16504294495536 -265.1650429449553 Z" fill="#00ddff"></path><path d="M0 0L-220.41946960967746 -303.38137289060523 L-170.2464374023301 -334.1274465706379 Z" fill="#00ddff"></path><path d="M0 0L-115.88137289060533 -356.6461936106826 L-58.66292439008664 -370.38312772317664 Z" fill="#00ddff"></path><path d="M0 0L-6.888638245203861e-14 -375 L58.6629243900865 -370.38312772317664 Z" fill="#00ddff"></path><path d="M0 0L115.8813728906052 -356.64619361068264 L170.24643740233 -334.12744657063797 Z" fill="#00ddff"></path><path d="M0 0L220.41946960967735 -303.38137289060535 L265.16504294495525 -265.16504294495536 Z" fill="#00ddff"></path><path d="M0 0L303.38137289060523 -220.41946960967752 L334.1274465706379 -170.24643740233012 Z" fill="#00ddff"></path><path d="M0 0L356.6461936106826 -115.88137289060538 L370.38312772317664 -58.66292439008667 Z" fill="#00ddff"></path><circle cx="0" cy="0" r="350.00000000000006" fill="url(#lgbk-oersv4ab58c)"></circle><animateTransform attributeName="transform" type="rotate" values="0 0 0;36 0 0" keyTimes="0;1" dur="2s" repeatCount="indefinite"></animateTransform>
</g>
</g><g></g></g><style type="text/css"></style><!-- [ldio] generated by https://loading.io --></svg>