<svg xmlns="http://www.w3.org/2000/svg" viewBox="0 0 500 350" preserveAspectRatio="xMidYMid" width="500" height="350" style="shape-rendering: auto; display: block;" xmlns:xlink="http://www.w3.org/1999/xlink">
<g><defs><g id="id-0" transform="scale(0.314) translate(-50,-50)"><g> 
<rect fill="#d8d0bb" width="100" height="100"></rect> 
</g> <g> <path fill="#d8d0bb" d="M100,99.9C100,99.9,99.9,100,100,99.9L100,99.9L100,99.9z"></path> </g> <path fill="#e07400" d="M100,30.7c-9.1-9.4-21.8-15.3-35.9-15.3c-27.5,0-49.9,22.3-49.9,49.9c0,13.5,5.4,25.7,14.1,34.7h71.6 c0,0,0.1-0.1,0.1-0.1V30.7z"></path></g><g id="id-1" transform="scale(0.314) translate(-50,-50)"><g> <rect fill="#d8d0bb" width="100" height="100"></rect> </g> <path fill="#e07400" d="M50,50c0,27.6,22.4,50,50,50V0C72.4,0,50,22.4,50,50z"></path></g><g id="id-2" transform="scale(0.314) translate(-50,-50)"><g> <rect fill="#d8d0bb" width="100" height="100"></rect> </g> <path fill="#e07400" d="M0,0v58.4c5.1-5,11.8-8.4,18.9-9.1c6.9-0.6,13.8,1,20.7,1c11.3,0,22.9-4.9,29.2-14.4 c3.7-5.5,5.4-12.3,9.8-17.2c4.1-4.6,10.4-7.1,16.6-6.6c1.6,0.1,3.2,0.5,4.7,1V0H0z"></path></g><g id="id-3" transform="scale(0.314) translate(-50,-50)"><g> <rect fill="#d8d0bb" width="100" height="100"></rect> </g> <circle fill="#e07400" cx="75.9" cy="38.9" r="14.1"></circle> <circle fill="#e07400" cx="24.4" cy="24.8" r="7.1"></circle> <circle fill="#005cff" cx="34.4" cy="74" r="15.6"></circle></g><g id="id-4" transform="scale(0.314) translate(-50,-50)"><g> <rect fill="#d8d0bb" width="100" height="100"></rect> </g> <path fill="#e07400" d="M50,50c27.6,0,50,22.4,50,50H0C0,72.4,22.4,50,50,50z"></path> <path fill="#2c7878" d="M50,0c27.6,0,50,22.4,50,50H0C0,22.4,22.4,0,50,0z"></path></g><g id="id-5" transform="scale(0.314) translate(-50,-50)"><g> <rect fill="#d8d0bb" width="100" height="100"></rect> </g> <path fill="#e07400" d="M100,0H39.4c-0.2,0.3-0.4,0.6-0.6,0.9c-1.5,2.8,0.8,7.2,3.8,6.3c-1.5,7.1-14.4,7.2-14.9,14.4 c-0.3,5,5.9,7.5,10.8,8.5c-1.3,3.4-5.3,4.7-8.6,6.1s-7.1,3.8-6.9,7.4c0.2,3.8,4.6,5.9,8.4,6.3c3.8,0.5,8.1,0.3,10.9,3 c-3.2,2-6.6,4.3-8.1,7.8c-1.5,3.5-0.1,8.5,3.6,9.3c2.5,0.5,5-1,7.5-1.7c2.5-0.7,6,0.1,6.2,2.7c0.2,1.9-1.6,3.3-2.6,4.9 c-1.9,3-0.7,7.5,2.4,9.3c2.8,1.6,6.3,1,9.4,1.8c3.1,0.8,6.1,4.5,4,6.9c-0.9,1-2.3,1.4-3.2,2.4c-1,1-1.1,2.4-0.7,3.8H100V0z"></path></g><g id="id-6" transform="scale(0.314) translate(-50,-50)"><g> <rect fill="#d8d0bb" width="100" height="100"></rect> </g> <path fill="#e07400" d="M50,97.5C23.8,97.5,2.5,76.2,2.5,50S23.8,2.5,50,2.5S97.5,23.8,97.5,50S76.2,97.5,50,97.5z M50,12.5 c-20.7,0-37.5,16.8-37.5,37.5S29.3,87.5,50,87.5S87.5,70.7,87.5,50S70.7,12.5,50,12.5z"></path> <path fill="#005cff" d="M50,77.5c-15.2,0-27.5-12.3-27.5-27.5S34.8,22.5,50,22.5S77.5,34.8,77.5,50S65.2,77.5,50,77.5z M50,32.5 c-9.6,0-17.5,7.9-17.5,17.5S40.4,67.5,50,67.5S67.5,59.6,67.5,50S59.6,32.5,50,32.5z"></path></g><g id="id-7" transform="scale(0.314) translate(-50,-50)"><g> <rect fill="#d8d0bb" width="100" height="100"></rect> </g> <path fill="#e07400" d="M33.8,50L52.3,3.7C52.8,2.5,53,1.2,53,0H32.2L13.7,46.3c-1,2.4-1,5,0,7.4L32.2,100H53c0-1.2-0.2-2.5-0.7-3.7 L33.8,50z"></path> <path fill="#2c7878" d="M68.8,50L87.3,3.7C87.8,2.5,88,1.2,88,0H67.2L48.7,46.3c-1,2.4-1,5,0,7.4L67.2,100H88c0-1.2-0.2-2.5-0.7-3.7 L68.8,50z"></path></g><g id="id-8" transform="scale(0.314) translate(-50,-50)"><g> <rect fill="#d8d0bb" width="100" height="100"></rect> </g> <polygon fill="#e07400" points="50,100 19.6,50 50,0 80.4,50 "></polygon></g><g id="id-9" transform="scale(0.314) translate(-50,-50)"><g> <rect fill="#d8d0bb" width="100" height="100"></rect> </g> <polygon fill="#005cff" points="50,100 30,50 50,0 70,50 "></polygon> <polygon fill="#2c7878" points="80,100 60,50 80,0 100,50 "></polygon> <polygon fill="#e07400" points="20,100 0,50 20,0 40,50 "></polygon></g><g id="id-10" transform="scale(0.314) translate(-50,-50)"><g> <rect fill="#d8d0bb" width="100" height="100"></rect> </g> <circle fill="#e07400" cx="50" cy="50" r="50"></circle></g><g id="id-11" transform="scale(0.314) translate(-50,-50)"><g> <rect fill="#d8d0bb" width="100" height="100"></rect> </g> <path fill="#005cff" d="M79.2,80.6c-4.1-8.6-15.6-13.3-23.9-8.7c6.7-6.6,13.4-14.3,14.1-23.7c0.2-2.5-0.1-5.2-1.4-7.4 c-2.9-4.9-9.7-5.6-15.3-4.6C45,37.6,37.8,41.4,32.3,47c5.2-5.9,10.5-12.3,12-20c0.6-3.3,0.2-7.4-2.6-9.3c-1.4-1-3.2-1.3-5-1.4 C26,15.9,16.3,22.5,8.1,29.5c-2.8,2.4-5.6,5-8.1,7.8V100h78.9C81.6,93.8,82.1,86.6,79.2,80.6z"></path></g><g id="id-12" transform="scale(0.314) translate(-50,-50)"><g> <rect fill="#d8d0bb" width="100" height="100"></rect> </g> <path fill="#e07400" d="M0,0v100h100V0H0z M85,85H15V15h70V85z"></path> <rect x="30" y="30" fill="#2c7878" width="40" height="40"></rect></g><g id="id-13" transform="scale(0.314) translate(-50,-50)"><g> <rect fill="#d8d0bb" width="100" height="100"></rect> </g> <path fill="#e07400" d="M45.8,78.3c-12.7-11.7-14.7-30.9-4.5-43.5c1.9-2.3,4-4.3,6.4-5.9c3.1-2.1,1.3-7-2.5-7 c-9.2-0.1-18.2,3.7-24.1,11.4C11,46,13.2,65.2,26.1,76.7c5,4.5,10.9,7.2,16.9,8.3c3.8,0.7,5.9-3.9,3-6.5 C46,78.4,45.9,78.3,45.8,78.3z"></path> <path fill="#e07400" d="M80.4,65.5C63.1,65.2,49,52.2,48.2,36c-0.1-3,0.2-5.9,0.9-8.6c0.9-3.6-3.7-6.1-6.6-3.6 c-7,6.1-11.1,14.9-10.5,24.5c1,16.2,15.4,29,32.7,29.1c6.7,0,13-1.8,18.2-5c3.3-2,1.9-6.8-2.1-6.9C80.7,65.5,80.6,65.5,80.4,65.5z"></path> <path fill="#e07400" d="M84.5,33.6c-12,8-27.9,5.9-36.2-4.8c-1.5-2-2.7-4.1-3.5-6.3c-1.1-2.9-5.4-2.4-6.2,0.7 c-1.9,7.5-0.5,15.5,4.5,21.8c8.4,10.6,24.4,12.5,36.3,4.3c4.6-3.2,8-7.4,10-12.1c1.3-3-2-5.6-4.7-3.7C84.6,33.5,84.6,33.5,84.5,33.6 z"></path> <path fill="#e07400" d="M40.3,13.9c1.2-2.2,3.9-3,6.4-2.8c2.4,0.3,4.7,1.5,6.8,2.7c2,1.1,4.1,2.3,5.6,4.2c1.4,1.8,1.4,4.3,0.9,6.5 c-0.4,1.9-3.8,3.7-5.5,4c-2,0.4-4.8-0.1-6.3-1.3c-2.4-1.8-4.8-3.2-6.7-5.7c-1.1-1.4-2.1-2.9-2.3-4.7c-0.2-1.8,0.8-3.7,2.5-4.1"></path></g><g id="id-14" transform="scale(0.314) translate(-50,-50)"><g> <rect fill="#d8d0bb" width="100" height="100"></rect> </g> <path fill="#e07400" d="M60.1,39L37.7,77c-0.6,1.1-2.3,0.7-2.4-0.6l-0.7-23.5c0-0.7-0.5-1.2-1.2-1.2l-22.1-1.5 c-1-0.1-1.6-1.3-0.9-2.1L41.6,11c0.8-1,2.4-0.3,2.2,1l-4.2,26.1c-0.1,0.8,0.6,1.6,1.4,1.5l17.9-2.4C59.9,37,60.7,38.1,60.1,39z"></path> <path fill="#e07400" d="M89.5,62.2L75.9,85.3c-0.6,1.1-2.3,0.7-2.4-0.6L73.1,71c0-0.7-0.5-1.2-1.2-1.2l-13.4-0.9 c-1-0.1-1.6-1.3-0.9-2.1l19-22.7c0.8-1,2.4-0.3,2.2,1l-2.5,15.1c-0.1,0.8,0.6,1.6,1.4,1.5l10.4-1.4C89.3,60.1,90,61.2,89.5,62.2z"></path></g><g id="id-15" transform="scale(0.314) translate(-50,-50)"><g> <rect fill="#d8d0bb" width="100" height="100"></rect> </g> <path fill="#e07400" d="M88.3,26.9c-1.1-0.5-2.3-1-3.5-0.9c-2.7,0.2-4.2,3.1-5.1,5.6c-2.2,5.6-4.5,11.1-6.7,16.7 c-7.5-8.5-14.9-17-22.4-25.5c-0.6-0.7-1.3-1.4-2.2-1.5c-0.9-0.1-1.8,0.4-2.5,1c-4.9,3.7-9,8.5-12,13.8c-0.8,1.4-1.8,3-3.4,2.8 c-0.8-0.1-1.5-0.6-2.1-1.2c-4.7-4.1-9.4-8.3-14.1-12.4c-1-0.9-2.1-1.8-3.4-1.8c-1.4-0.1-2.6,0.8-3.7,1.7c-2.5,2-5,4.2-7.3,6.5v39.3 c2.6-2.5,5.2-5,7.8-7.5c5,5,10.5,9.4,16.4,13.3c0.9-5.7,2.9-11.3,5.8-16.3c1-1.7,2.3-3.5,4.2-4c2.4-0.7,4.8,0.8,6.8,2.1 C49.7,64.5,58.3,70.2,67,76c4.5-6,10.5-10.8,17.3-13.8c5.1,3.1,10.3,5.8,15.7,8.3V32.6C96.1,30.6,92.2,28.7,88.3,26.9z"></path> <g> <path fill="#005cff" d="M67,76C58.3,70.2,49.7,64.5,41,58.7c-2-1.4-4.4-2.8-6.8-2.1c-1.9,0.5-3.2,2.3-4.2,4c-3,5-4.9,10.6-5.8,16.3 c-5.9-3.8-11.4-8.3-16.4-13.3c-2.6,2.5-5.2,5-7.8,7.5V100h100V70.5c-5.4-2.5-10.7-5.3-15.7-8.3C77.5,65.2,71.5,70,67,76z"></path> </g></g><g id="id-16" transform="scale(0.314) translate(-50,-50)"><g> <rect fill="#d8d0bb" width="100" height="100"></rect> </g> <g> <path fill="#005cff" d="M6.9,6.9L6.9,6.9l0,48.3c0,20.9,16.9,37.8,37.8,37.8h0V44.7C44.7,23.9,27.8,6.9,6.9,6.9z"></path> </g> <path fill="#e07400" d="M51.8,44.7v48.3h0c20.9,0,37.8-16.9,37.8-37.8V6.9h0C68.7,6.9,51.8,23.9,51.8,44.7z"></path></g><g id="id-17" transform="scale(0.314) translate(-50,-50)"><g> <rect fill="#d8d0bb" width="100" height="100"></rect> </g> <g> <path fill="#005cff" d="M6.9,93.1L6.9,93.1l0-48.3c0-20.9,16.9-37.8,37.8-37.8h0v48.3C44.7,76.1,27.8,93.1,6.9,93.1z"></path> </g> <path fill="#e07400" d="M51.8,44.7v48.3h0c20.9,0,37.8-16.9,37.8-37.8V6.9h0C68.7,6.9,51.8,23.9,51.8,44.7z"></path></g><g id="id-18" transform="scale(0.314) translate(-50,-50)"><g> <rect x="0" y="0" fill="#d8d0bb" width="100" height="100"></rect> </g> <path fill="#e07400" d="M84.2,65.9C73,65.7,66.4,76.1,63.6,80.5c-0.4,0.6-0.8,1.3-1.2,1.9c-1.5,2.5-2.9,4.8-4.6,5.5 c-1.5,0.6-2,0.3-2.3,0.1c-1.5-1-2.7-4.2-2.5-6.9c0.1-2.9,1.2-5.7,3-7.6c1.8-1.9,4.4-3.2,7.2-4.6c1.2-0.6,2.4-1.2,3.6-1.9 C79.9,59.6,89.5,45,90.1,31.5c0.2-4.9-0.4-8.8-2-12.1c-2.3-4.9-6.7-8.2-11.5-8.8c-8-0.9-13.9,5.5-16.5,11.2c-1,2.1-1.7,4.3-2.4,6.3 c-0.9,2.6-1.7,5.1-3,7.1c-2.2,3.5-9.7,7.1-14.6,6.1c-1.5-0.3-3-1-3.4-4c-0.3-2.1,0.1-2.7,4.9-5.2C46,30,53.2,26.3,52.2,16.8 c-0.6-5.6-3.7-10-8.6-12.4c-6.2-3-14.9-2.2-21.2,1.8c-1.9,1.2-3.8,2.5-5.5,4C2.1,23.4,7.4,49.8,14.6,64.4c0.3,0.7,0.7,1.3,1,2 c1,1.9,1.9,3.8,2.5,5.6c1.3,4.4,0.3,9.8-2.7,15c-2.8,4.9-7,9.1-11.1,13.1h13.8c2.2-2.5,4.2-5.2,5.9-8.1c4.4-7.6,5.7-15.7,3.6-22.8 c-0.8-2.7-2-5.1-3.2-7.4c-0.3-0.6-0.6-1.2-0.9-1.8c-3.4-6.8-5.6-15.4-6-22.8C17.2,31,18,22.6,23.5,17.7c1.2-1.1,2.6-2,4.3-3.1 c3.4-2.2,8.4-2.7,11.5-1.2c1.8,0.9,2.7,2.3,3,4.5c0.2,2.3-0.5,3-5.1,5.4c-4.4,2.2-11.6,5.9-10.3,15.5c0.9,6.6,5,11.1,11.2,12.4 c8.6,1.8,20.6-3.2,25.2-10.5c1.9-3,3-6.2,4-9.3c0.6-1.9,1.2-3.7,2-5.3c1.4-2.9,4-5.7,6.3-5.5c1.3,0.2,2.8,1.4,3.6,3.1 c0.9,1.8,1.2,4.2,1,7.4c-0.4,10-8.1,21.5-18.2,27.3c-1,0.6-2.1,1.1-3.2,1.7c-3.3,1.7-6.9,3.5-9.9,6.6c-3.5,3.7-5.5,8.7-5.7,14 c-0.2,5.3,1.8,12.1,6.9,15.6c3.5,2.4,7.7,2.7,11.9,0.9c4.7-2,7.2-6.2,9.2-9.6c0.4-0.6,0.7-1.2,1.1-1.7c3.1-4.9,7-9.9,11.9-9.9 c0,0,0.1,0,0.1,0c4.9,0.1,11.5,7.6,15.9,14.8V74.1C96.2,69.6,91.1,66,84.2,65.9z"></path></g><g id="id-19" transform="scale(0.314) translate(-50,-50)"><g> <rect fill="#d8d0bb" width="100" height="100"></rect> </g> <path fill="#e07400" d="M50,100c0-27.6-22.4-50-50-50l0,50H50z"></path> <path fill="#e07400" d="M0,50c27.6,0,50-22.4,50-50L0,0L0,50z"></path> <path fill="#2c7878" d="M100,50V0L50,0C50,27.6,72.4,50,100,50z"></path> <path fill="#e07400" d="M100,50c-27.6,0-50,22.4-50,50h50V50z"></path></g><g id="id-20" transform="scale(0.314) translate(-50,-50)"><g> <rect fill="#d8d0bb" width="100" height="100"></rect> </g> <path fill="#e07400" d="M50,50c0,27.6-22.4,50-50,50l0-50H50z"></path> <path fill="#e07400" d="M50,0C22.4,0,0,22.4,0,50h50V0z"></path> <path fill="#005cff" d="M100,50V0L50,0C50,27.6,72.4,50,100,50z"></path> <path fill="#e07400" d="M50,100c27.6,0,50-22.4,50-50H50V100z"></path></g><g id="id-21" transform="scale(0.314) translate(-50,-50)"><g> <rect fill="#d8d0bb" width="100" height="100"></rect> </g> <path fill="#e07400" d="M50,50c0,27.6-22.4,50-50,50l0-50H50z"></path> <path fill="#e07400" d="M50,0C22.4,0,0,22.4,0,50h50V0z"></path> <path fill="#e07400" d="M50,50V0h50C100,27.6,77.6,50,50,50z"></path> <path fill="#005cff" d="M100,100c-27.6,0-50-22.4-50-50h50V100z"></path></g><g id="id-22" transform="scale(0.314) translate(-50,-50)"><g> <rect fill="#d8d0bb" width="100" height="100"></rect> </g> <path fill="#005cff" d="M50,50c0,27.6-22.4,50-50,50l0-50H50z"></path> <path fill="#e07400" d="M0,0c27.6,0,50,22.4,50,50H0L0,0z"></path> <path fill="#2c7878" d="M50,50V0h50C100,27.6,77.6,50,50,50z"></path> <path fill="#e07400" d="M100,100c-27.6,0-50-22.4-50-50h50V100z"></path></g><g id="id-23" transform="scale(0.314) translate(-50,-50)"><g> <rect fill="#d8d0bb" width="100" height="100"></rect> </g> <path fill="#e07400" d="M50,50c0,27.6-22.4,50-50,50l0-50H50z"></path> <path fill="#005cff" d="M0,0c27.6,0,50,22.4,50,50H0L0,0z"></path> <path fill="#e07400" d="M100,50V0L50,0C50,27.6,72.4,50,100,50z"></path> <path fill="#e07400" d="M100,100c-27.6,0-50-22.4-50-50h50V100z"></path></g><g id="id-24" transform="scale(0.314) translate(-50,-50)"><g> <rect x="0" fill="#d8d0bb" width="100" height="100"></rect> </g> <circle fill="#e07400" cx="25" cy="25" r="25"></circle> <circle fill="#005cff" cx="75" cy="25" r="25"></circle> <circle fill="#2c7878" cx="25" cy="75" r="25"></circle> <circle fill="#e07400" cx="75" cy="75" r="25"></circle></g><g id="id-25" transform="scale(0.314) translate(-50,-50)"><g> <rect x="0" fill="#d8d0bb" width="100" height="100"></rect> </g> <path fill="#e07400" d="M50,100c0-27.6-22.4-50-50-50l0,50H50z"></path> <path fill="#e07400" d="M100,50V0L50,0C50,27.6,72.4,50,100,50z"></path> <rect fill="#2c7878" width="50" height="50"></rect> <rect x="50" y="50" fill="#005cff" width="50" height="50"></rect></g><g id="id-26" transform="scale(0.314) translate(-50,-50)"><g> <rect x="0" fill="#d8d0bb" width="100" height="100"></rect> </g> <path fill="#e07400" d="M50,0C22.4,0,0,22.4,0,50h50V0z"></path> <path fill="#e07400" d="M50,0v50h50C100,22.4,77.6,0,50,0z"></path> <path fill="#e07400" d="M50,100c27.6,0,50-22.4,50-50H50V100z"></path> <rect x="0" y="50" fill="#e07400" width="50" height="50"></rect></g><g id="id-27" transform="scale(0.314) translate(-50,-50)"><g> <rect x="0" fill="#d8d0bb" width="100" height="100"></rect> </g> <path fill="#005cff" d="M50,50c0,27.6-22.4,50-50,50l0-50H50z"></path> <path fill="#e07400" d="M50,0C22.4,0,0,22.4,0,50h50V0z"></path> <path fill="#e07400" d="M100,100c-27.6,0-50-22.4-50-50h50V100z"></path></g><g id="id-28" transform="scale(0.314) translate(-50,-50)"><g> <rect x="0" fill="#d8d0bb" width="100" height="100"></rect> </g> <path fill="#005cff" d="M0,0c27.6,0,50,22.4,50,50H0L0,0z"></path> <path fill="#e07400" d="M50,50V0h50C100,27.6,77.6,50,50,50z"></path></g><g id="id-29" transform="scale(0.314) translate(-50,-50)"><g> <rect x="0" fill="#d8d0bb" width="100" height="100"></rect> </g> <path fill="#e07400" d="M50,50c0,27.6-22.4,50-50,50l0-50H50z"></path></g><g id="id-30" transform="scale(0.314) translate(-50,-50)"><rect x="0" y="0" width="100" height="100" fill="#d8d0bb"></rect><g transform="translate(50 50)"> <path fill="#e07400" d="M31.5-5.9H40V5.9h-8.5c-0.8,4.4-2.5,8.6-5.1,12.2l0,0l6,6l-8.3,8.3l-6-6c-3.7,2.5-7.8,4.2-12.2,5.1l0,0V40 H-5.9v-8.5c-4.4-0.8-8.6-2.5-12.2-5.1l0,0l-6,6l-8.3-8.3l6-6c-2.5-3.7-4.2-7.8-5.1-12.2l0,0H-40V-5.9h8.5c0.8-4.4,2.5-8.6,5.1-12.2 l0,0l-6-6l8.3-8.3l6,6c3.7-2.5,7.8-4.2,12.2-5.1l0,0V-40H5.9v8.5c4.4,0.8,8.6,2.5,12.2,5.1l0,0l6-6l8.3,8.3l-6,6 C28.9-14.4,30.6-10.3,31.5-5.9 M0-21.3c-11.8,0-21.3,9.6-21.3,21.3S-11.8,21.3,0,21.3S21.3,11.8,21.3,0S11.8-21.3,0-21.3"> <animateTransform attributeName="transform" type="rotate" values="0;45" keyTimes="0;1" dur="0.2s" repeatCount="indefinite"></animateTransform> </path> </g></g></defs><use href="#id-6" transform="translate(0,0) rotate(270)"></use><use href="#id-7" transform="translate(96,0) rotate(180)"></use><use href="#id-15" transform="translate(128,0) rotate(180)"></use><use href="#id-12" transform="translate(160,0) rotate(90)"></use><use href="#id-10" transform="translate(192,0) rotate(90)"></use><use href="#id-8" transform="translate(288,0) rotate(90)"></use><use href="#id-14" transform="translate(320,0) rotate(90)"></use><use href="#id-8" transform="translate(416,0) rotate(270)"></use><use href="#id-7" transform="translate(480,0) rotate(180)"></use><use href="#id-8" transform="translate(512,0) rotate(0)"></use><use href="#id-8" transform="translate(0,32) rotate(0)"></use><use href="#id-4" transform="translate(64,32) rotate(270)"></use><use href="#id-8" transform="translate(96,32) rotate(180)"></use><use href="#id-7" transform="translate(128,32) rotate(90)"></use><use href="#id-24" transform="translate(160,32) rotate(180)"></use><use href="#id-14" transform="translate(192,32) rotate(0)"></use><use href="#id-30" transform="translate(224,32) rotate(270)"></use><use href="#id-16" transform="translate(256,32) rotate(180)"></use><use href="#id-8" transform="translate(320,32) rotate(90)"></use><use href="#id-10" transform="translate(352,32) rotate(90)"></use><use href="#id-8" transform="translate(416,32) rotate(180)"></use><use href="#id-16" transform="translate(448,32) rotate(0)"></use><use href="#id-10" transform="translate(480,32) rotate(270)"></use><use href="#id-7" transform="translate(512,32) rotate(90)"></use><use href="#id-8" transform="translate(32,64) rotate(0)"></use><use href="#id-10" transform="translate(64,64) rotate(270)"></use><use href="#id-4" transform="translate(96,64) rotate(270)"></use><use href="#id-8" transform="translate(128,64) rotate(180)"></use><use href="#id-8" transform="translate(160,64) rotate(180)"></use><use href="#id-24" transform="translate(192,64) rotate(0)"></use><use href="#id-17" transform="translate(224,64) rotate(0)"></use><use href="#id-17" transform="translate(256,64) rotate(0)"></use><use href="#id-6" transform="translate(288,64) rotate(270)"></use><use href="#id-2" transform="translate(320,64) rotate(0)"></use><use href="#id-2" transform="translate(384,64) rotate(180)"></use><use href="#id-6" transform="translate(448,64) rotate(90)"></use><use href="#id-24" transform="translate(480,64) rotate(270)"></use><use href="#id-17" transform="translate(512,64) rotate(0)"></use><use href="#id-12" transform="translate(0,96) rotate(0)"></use><use href="#id-20" transform="translate(32,96) rotate(0)"></use><use href="#id-7" transform="translate(96,96) rotate(90)"></use><use href="#id-12" transform="translate(128,96) rotate(180)"></use><use href="#id-7" transform="translate(160,96) rotate(90)"></use><use href="#id-6" transform="translate(192,96) rotate(0)"></use><use href="#id-7" transform="translate(256,96) rotate(0)"></use><use href="#id-15" transform="translate(288,96) rotate(0)"></use><use href="#id-24" transform="translate(320,96) rotate(90)"></use><use href="#id-20" transform="translate(352,96) rotate(0)"></use><use href="#id-24" transform="translate(384,96) rotate(90)"></use><use href="#id-20" transform="translate(416,96) rotate(0)"></use><use href="#id-2" transform="translate(448,96) rotate(90)"></use><use href="#id-30" transform="translate(480,96) rotate(270)"></use><use href="#id-10" transform="translate(0,128) rotate(270)"></use><use href="#id-10" transform="translate(32,128) rotate(270)"></use><use href="#id-10" transform="translate(64,128) rotate(90)"></use><use href="#id-16" transform="translate(96,128) rotate(0)"></use><use href="#id-30" transform="translate(160,128) rotate(90)"></use><use href="#id-24" transform="translate(192,128) rotate(0)"></use><use href="#id-7" transform="translate(224,128) rotate(180)"></use><use href="#id-8" transform="translate(256,128) rotate(90)"></use><use href="#id-1" transform="translate(288,128) rotate(90)"></use><use href="#id-6" transform="translate(320,128) rotate(90)"></use><use href="#id-6" transform="translate(352,128) rotate(180)"></use><use href="#id-7" transform="translate(384,128) rotate(270)"></use><use href="#id-6" transform="translate(416,128) rotate(180)"></use><use href="#id-16" transform="translate(448,128) rotate(0)"></use><use href="#id-4" transform="translate(480,128) rotate(270)"></use><use href="#id-10" transform="translate(512,128) rotate(0)"></use><use href="#id-20" transform="translate(0,160) rotate(180)"></use><use href="#id-14" transform="translate(32,160) rotate(180)"></use><use href="#id-24" transform="translate(64,160) rotate(0)"></use><use href="#id-27" transform="translate(128,160) rotate(270)"></use><use href="#id-14" transform="translate(192,160) rotate(180)"></use><use href="#id-4" transform="translate(224,160) rotate(270)"></use><use href="#id-17" transform="translate(256,160) rotate(90)"></use><use href="#id-20" transform="translate(288,160) rotate(180)"></use><use href="#id-6" transform="translate(320,160) rotate(0)"></use><use href="#id-24" transform="translate(352,160) rotate(0)"></use><use href="#id-15" transform="translate(416,160) rotate(0)"></use><use href="#id-12" transform="translate(448,160) rotate(270)"></use><use href="#id-8" transform="translate(512,160) rotate(270)"></use><use href="#id-14" transform="translate(0,192) rotate(270)"></use><use href="#id-12" transform="translate(64,192) rotate(90)"></use><use href="#id-24" transform="translate(96,192) rotate(0)"></use><use href="#id-16" transform="translate(128,192) rotate(180)"></use><use href="#id-17" transform="translate(160,192) rotate(270)"></use><use href="#id-24" transform="translate(224,192) rotate(0)"></use><use href="#id-15" transform="translate(256,192) rotate(0)"></use><use href="#id-30" transform="translate(288,192) rotate(180)"></use><use href="#id-7" transform="translate(320,192) rotate(0)"></use><use href="#id-10" transform="translate(352,192) rotate(180)"></use><use href="#id-1" transform="translate(384,192) rotate(270)"></use><use href="#id-17" transform="translate(416,192) rotate(0)"></use><use href="#id-1" transform="translate(448,192) rotate(0)"></use><use href="#id-7" transform="translate(480,192) rotate(90)"></use><use href="#id-24" transform="translate(512,192) rotate(180)"></use><use href="#id-30" transform="translate(32,224) rotate(90)"></use><use href="#id-15" transform="translate(128,224) rotate(270)"></use><use href="#id-20" transform="translate(160,224) rotate(270)"></use><use href="#id-16" transform="translate(192,224) rotate(0)"></use><use href="#id-12" transform="translate(256,224) rotate(0)"></use><use href="#id-14" transform="translate(288,224) rotate(270)"></use><use href="#id-7" transform="translate(320,224) rotate(90)"></use><use href="#id-20" transform="translate(352,224) rotate(90)"></use><use href="#id-14" transform="translate(384,224) rotate(90)"></use><use href="#id-24" transform="translate(416,224) rotate(90)"></use><use href="#id-4" transform="translate(448,224) rotate(90)"></use><use href="#id-16" transform="translate(480,224) rotate(90)"></use><use href="#id-30" transform="translate(512,224) rotate(180)"></use><use href="#id-14" transform="translate(0,256) rotate(0)"></use><use href="#id-20" transform="translate(96,256) rotate(270)"></use><use href="#id-27" transform="translate(128,256) rotate(270)"></use><use href="#id-15" transform="translate(160,256) rotate(90)"></use><use href="#id-2" transform="translate(192,256) rotate(0)"></use><use href="#id-2" transform="translate(224,256) rotate(0)"></use><use href="#id-6" transform="translate(288,256) rotate(90)"></use><use href="#id-10" transform="translate(320,256) rotate(90)"></use><use href="#id-10" transform="translate(384,256) rotate(0)"></use><use href="#id-10" transform="translate(416,256) rotate(270)"></use><use href="#id-14" transform="translate(448,256) rotate(0)"></use><use href="#id-10" transform="translate(480,256) rotate(270)"></use><use href="#id-27" transform="translate(512,256) rotate(180)"></use><use href="#id-30" transform="translate(64,288) rotate(180)"></use><use href="#id-12" transform="translate(96,288) rotate(90)"></use><use href="#id-10" transform="translate(128,288) rotate(90)"></use><use href="#id-12" transform="translate(160,288) rotate(0)"></use><use href="#id-16" transform="translate(192,288) rotate(0)"></use><use href="#id-16" transform="translate(224,288) rotate(90)"></use><use href="#id-17" transform="translate(256,288) rotate(180)"></use><use href="#id-4" transform="translate(288,288) rotate(180)"></use><use href="#id-20" transform="translate(352,288) rotate(270)"></use><use href="#id-17" transform="translate(384,288) rotate(90)"></use><use href="#id-14" transform="translate(416,288) rotate(270)"></use><use href="#id-1" transform="translate(448,288) rotate(90)"></use><use href="#id-15" transform="translate(480,288) rotate(180)"></use><use href="#id-24" transform="translate(0,320) rotate(270)"></use><use href="#id-10" transform="translate(64,320) rotate(180)"></use><use href="#id-20" transform="translate(96,320) rotate(0)"></use><use href="#id-20" transform="translate(128,320) rotate(270)"></use><use href="#id-16" transform="translate(160,320) rotate(90)"></use><use href="#id-12" transform="translate(192,320) rotate(180)"></use><use href="#id-12" transform="translate(256,320) rotate(90)"></use><use href="#id-17" transform="translate(288,320) rotate(90)"></use><use href="#id-1" transform="translate(384,320) rotate(90)"></use><use href="#id-7" transform="translate(416,320) rotate(0)"></use><use href="#id-20" transform="translate(480,320) rotate(0)"></use><use href="#id-8" transform="translate(512,320) rotate(0)"></use><use href="#id-16" transform="translate(32,352) rotate(270)"></use><use href="#id-10" transform="translate(96,352) rotate(180)"></use><use href="#id-2" transform="translate(128,352) rotate(0)"></use><use href="#id-24" transform="translate(192,352) rotate(180)"></use><use href="#id-2" transform="translate(224,352) rotate(90)"></use><use href="#id-30" transform="translate(256,352) rotate(270)"></use><use href="#id-30" transform="translate(288,352) rotate(180)"></use><use href="#id-12" transform="translate(320,352) rotate(90)"></use><use href="#id-6" transform="translate(352,352) rotate(90)"></use><use href="#id-16" transform="translate(384,352) rotate(180)"></use><use href="#id-16" transform="translate(448,352) rotate(270)"></use><use href="#id-12" transform="translate(480,352) rotate(90)"></use><use href="#id-1" transform="translate(512,352) rotate(270)"></use><g></g></g></svg>